<?xml version="1.0" standalone="no"?>
<!DOCTYPE svg PUBLIC "-//W3C//DTD SVG 1.1//EN" "http://www.w3.org/Graphics/SVG/1.1/DTD/svg11.dtd" >
<svg xmlns="http://www.w3.org/2000/svg">
<metadata></metadata>
<defs>
<font id="savantitalic" horiz-adv-x="1331" >
<font-face units-per-em="2048" ascent="1475" descent="-573" />
<missing-glyph horiz-adv-x="552" />
<glyph unicode="&#xfb01;" horiz-adv-x="1484" d="M-178 -199q80 8 139.5 42t98.5 91.5t63.5 125.5t40.5 159l84 445h-139l34 159l115 13h21l8 36q37 193 171 285t335 92q161 0 297 -61l-58 -139q-124 39 -215.5 10.5t-109.5 -127.5l-19 -96h318l413 24l-123 -532q-21 -89 -13 -124.5t50 -35.5q20 0 66 16l26 -118 q-70 -43 -135.5 -64.5t-148.5 -21.5q-329 0 -254 335l80 349h-312l-80 -433q-33 -170 -138 -296.5t-256.5 -191.5t-330.5 -65z" />
<glyph unicode="&#xfb02;" horiz-adv-x="1562" d="M-178 -199q80 8 139.5 42t98.5 91.5t63.5 125.5t40.5 159l84 445h-139l34 159l115 13h21l8 36q37 192 170.5 284.5t335.5 92.5q135 0 233 -37l479 35l-194 -919q-18 -69 -1.5 -107.5t76.5 -38.5q34 0 113 23l29 -123q-171 -102 -371 -102q-329 0 -258 335l156 729 q-77 21 -129 25q-191 13 -219 -137l-19 -96h193l-58 -172h-168l-80 -433q-33 -170 -138 -296.5t-256.5 -191.5t-330.5 -65z" />
<glyph horiz-adv-x="2048" />
<glyph horiz-adv-x="2048" />
<glyph unicode="&#xd;" horiz-adv-x="2048" />
<glyph unicode=" "  horiz-adv-x="552" />
<glyph unicode="&#x09;" horiz-adv-x="552" />
<glyph unicode="&#xa0;" horiz-adv-x="552" />
<glyph unicode="!" horiz-adv-x="618" d="M98 162q0 80 57 137t136 57t136.5 -57t57.5 -137q0 -79 -57 -136t-137 -57q-79 0 -136 56.5t-57 136.5zM195 496l81 712h455l-213 -753z" />
<glyph unicode="&#x22;" horiz-adv-x="1093" d="M190 741q68 24 106.5 58t51.5 86q-48 25 -77 71.5t-29 102.5q0 80 56.5 137t135.5 57q80 0 137.5 -57.5t57.5 -136.5q0 -15 -4 -39q-15 -75 -47 -135.5t-71 -101t-87.5 -69.5t-94 -44t-94.5 -21zM692 741q68 24 106.5 58t51.5 86q-48 25 -77.5 71.5t-29.5 102.5 q0 80 57 137t136 57q80 0 137 -57.5t57 -136.5q0 -15 -4 -39q-19 -92 -61.5 -163t-99 -112.5t-113.5 -64.5t-119 -31z" />
<glyph unicode="#" horiz-adv-x="1404" d="M145 209v197h252l45 178h-215v196h265l51 207h258l-51 -207h165l52 207h256l-52 -207h191v-196h-240l-45 -178h203v-197h-252l-51 -209h-256l51 209h-166l-51 -209h-258l51 209h-203zM655 406h166l45 178h-166z" />
<glyph unicode="$" horiz-adv-x="1411" d="M8 90l109 189q235 -91 467 -91q100 0 153.5 22.5t63.5 74.5q8 39 -15 60t-86 48q-171 75 -274 130.5t-156.5 104.5t-69.5 89t-16 96q0 88 39 163t113.5 132t193 90t269.5 35l41 192l338 39l-54 -252q121 -13 248 -43l-86 -190q-246 39 -407 39q-98 0 -146 -22t-57 -66 q-13 -67 84 -113q142 -66 231 -113t148 -85t86.5 -73.5t37 -67t9.5 -77.5q0 -334 -416 -407l-49 -230h-330l45 216q-325 14 -514 110z" />
<glyph unicode="%" horiz-adv-x="1878" d="M221 850q20 92 49 159t78.5 121t125.5 81.5t179 27.5q193 0 259.5 -95.5t29.5 -271.5q-44 -205 -142.5 -300t-287.5 -95q-180 0 -257 88.5t-34 284.5zM410 0l999 1208h193l-1000 -1208h-192zM445 652q16 -60 77 -60q60 0 100 63t72 213q20 93 22 151.5t-15.5 89 t-57.5 30.5q-61 0 -109 -74t-77 -215q-28 -138 -12 -198zM1069 342q20 92 49 159t78.5 121t125.5 81.5t179 27.5q369 0 289 -366q-42 -205 -141.5 -300.5t-288.5 -95.5q-180 0 -256 88t-35 285zM1293 144q16 -60 77 -60q60 0 100 63t72 213q20 93 22 151.5t-15.5 89 t-57.5 30.5q-60 0 -107.5 -73.5t-78.5 -215.5q-28 -138 -12 -198z" />
<glyph unicode="&#x26;" horiz-adv-x="1521" d="M94.5 211.5q-18.5 63.5 1.5 148.5q26 122 102 198t179 110q-155 72 -117 241q22 105 99.5 173.5t187 97t252.5 28.5h321l-39 -184h-151q-123 0 -176.5 -34.5t-67.5 -108.5q-19 -88 24.5 -121t147.5 -33h78l16 80l418 49l-29 -129h195l-39 -182h-192l-45 -217 q-18 -69 -1.5 -107.5t76.5 -38.5q34 0 113 23l29 -123q-177 -102 -363 -102q-158 0 -225 67q-142 -67 -336 -67q-86 0 -159 12.5t-138 40t-104 71.5t-57.5 107.5zM535 362q-21 -96 24.5 -138t145.5 -42q72 0 131 23q0 49 12 110l49 230h-109q-215 0 -253 -183z" />
<glyph unicode="'" horiz-adv-x="602" d="M193 655l83 553h398l-238 -553h-243z" />
<glyph unicode="(" horiz-adv-x="819" d="M58 208q7 124 38 271q45 213 118 382t158 278.5t188 184.5t203.5 109t209.5 42l26 -150q-173 -54 -296.5 -261t-204.5 -587q-41 -190 -50.5 -328t12 -230.5t68 -147t123.5 -82.5l-90 -150q-73 7 -136 25t-124 53t-107 84.5t-80 123.5t-48.5 166.5t-7.5 216.5z" />
<glyph unicode=")" horiz-adv-x="800" d="M-106 -311q173 54 295.5 261t203.5 587q41 190 51 327.5t-11.5 231t-68.5 147.5t-124 82l92 150q72 -7 135 -25t123.5 -53t106.5 -84.5t80 -123.5t48.5 -166.5t7.5 -216.5t-38 -271q-45 -213 -118 -382t-158 -278.5t-187.5 -184.5t-202 -109t-207.5 -42z" />
<glyph unicode="*" horiz-adv-x="720" d="M121 1059l137 198l143 -86l25 189h252l-57 -191l182 88l49 -198l-217 -74l113 -131l-216 -152l-90 158l-157 -160l-146 150l164 135z" />
<glyph unicode="+" horiz-adv-x="1382" d="M150 424l49 225h436l90 422h264l-90 -422h436l-49 -225h-436l-88 -424h-264l88 424h-436z" />
<glyph unicode="," horiz-adv-x="530" d="M20 -156q69 26 107 59.5t51 86.5q-48 24 -77 70t-29 102q0 80 56.5 137t135.5 57q80 0 137.5 -57.5t57.5 -136.5q0 -15 -4 -39q-15 -75 -47 -135.5t-71 -101t-87.5 -69.5t-94 -44t-94.5 -21z" />
<glyph unicode="-" horiz-adv-x="849" d="M127 360l51 244h645l-92 -244h-604z" />
<glyph unicode="." horiz-adv-x="591" d="M74 162q0 80 56.5 137t135.5 57q80 0 137.5 -57.5t57.5 -136.5t-57.5 -136t-137.5 -57q-79 0 -135.5 56.5t-56.5 136.5z" />
<glyph unicode="/" horiz-adv-x="1183" d="M-166 -401l1174 1640h376l-1175 -1640h-375z" />
<glyph unicode="0" d="M131 590q25 119 61.5 212.5t95.5 176t137.5 137t189.5 86t249 31.5q132 0 228.5 -28t153 -80.5t85.5 -126.5t27 -167t-23 -202q-47 -222 -135 -363.5t-235.5 -216t-360.5 -74.5q-296 0 -418.5 146.5t-54.5 468.5zM505.5 263.5q28.5 -97.5 129.5 -97.5t166 103.5 t119 353.5q51 227 31 335.5t-117 108.5q-208 0 -310 -477q-47 -229 -18.5 -326.5z" />
<glyph unicode="1" d="M113 0l37 182h317l170 801h-248l33 162l491 80h211l-221 -1043h277l-37 -182h-1030z" />
<glyph unicode="2" d="M74 0l35 168q15 70 61.5 136t109 118t135.5 101t145 93.5t132 86.5t102.5 88.5t51.5 91.5q13 64 -35 97.5t-143 33.5q-148 0 -324 -47l23 186q258 80 495 80q232 0 353.5 -90t89.5 -244q-12 -54 -41.5 -104.5t-63.5 -88.5t-92 -82t-103 -73.5t-120 -75.5 q-231 -140 -292 -188t-73 -105h635l-39 -182h-1042z" />
<glyph unicode="3" d="M68 76l106 164q185 -54 330 -54q91 0 169.5 32t129.5 99t51 156q0 56 -18.5 85.5t-69.5 44.5t-148 15h-249l372 381h-426l45 209h1029l-441 -413h41q97 0 167.5 -74t70.5 -186q0 -82 -30.5 -162.5t-90.5 -152t-142 -126.5t-193 -87t-236 -32q-115 0 -242 26t-225 75z" />
<glyph unicode="4" d="M74 236l35 165q15 70 54.5 139t91.5 126.5t111.5 113.5t118 109t108.5 104t86 106.5t46 108.5h436q-11 -70 -57.5 -149.5t-108 -147.5t-132.5 -139.5t-131.5 -127t-103.5 -107.5t-50 -84l-7 -35h240l322 370h170l-166 -788h-408l49 236h-704z" />
<glyph unicode="5" d="M88 76l107 164q185 -54 303 -54q145 0 249.5 77t104.5 210q0 56 -18.5 85.5t-70 44.5t-149.5 15h-335l124 590h910l-45 -209h-502l-43 -204h131q189 0 280 -70t91 -190q0 -81 -30.5 -161t-91 -152t-142.5 -127t-193.5 -87.5t-235.5 -32.5q-117 0 -235 27t-209 74z" />
<glyph unicode="6" d="M143 553q68 320 277 500t526 180q92 0 200.5 -14.5t168.5 -34.5l-60 -189q-130 37 -282 37t-242.5 -64t-155.5 -227q126 78 310 78q227 0 325 -90.5t58 -284.5q-49 -226 -220 -347.5t-436 -121.5q-279 0 -405 141.5t-64 436.5zM478 301.5q3 -47.5 20 -77t53.5 -45.5 t93.5 -13q103 4 161 66.5t85 183.5q26 124 -6 177.5t-123 53.5q-149 0 -254 -125q-17 -70 -25 -121.5t-5 -99z" />
<glyph unicode="7" d="M270 0l29 141q23 110 66 208.5t93 170t105.5 133.5t108 109.5t95.5 87.5t73 78t37 71h-605l45 209h1125q-18 -84 -63 -161t-105 -139t-129 -124t-140 -129.5t-133 -141.5t-112.5 -174t-75.5 -214q-3 -17 0 -2q1 2 2 6q-1 -2 -2 -9q-10 -50 -25 -120h-389z" />
<glyph unicode="8" d="M90 281q0 65 29.5 125t81 107t112 83t129.5 63q-57 34 -91 77t-50.5 107.5t-5 155t52.5 209.5h1034q-8 -119 -37.5 -212t-77 -157.5t-104 -108t-129.5 -75.5q112 -43 167.5 -99.5t55.5 -147.5q0 -196 -170.5 -314.5t-470.5 -118.5q-257 0 -391.5 78t-134.5 228zM469 336 q-16 -76 28 -123t144 -47t162 47.5t80 126.5q5 32 5 56.5t-12 46t-25.5 37t-36.5 29t-44 23t-49 19.5q-223 -74 -252 -215zM615 958.5q-3 -26.5 0.5 -62t17 -62t44 -53t77.5 -42.5q225 62 272 281h-401q-7 -35 -10 -61.5z" />
<glyph unicode="9" d="M139 20l60 189q51 -15 131.5 -26t150.5 -11q152 0 242.5 64t153.5 227q-124 -78 -308 -78q-227 0 -325 90.5t-58 284.5q49 226 220 347.5t436 121.5q279 0 405 -141.5t64 -436.5q-68 -320 -277 -500t-526 -180q-92 0 -200.5 14.5t-168.5 34.5zM563 788q-26 -124 6 -177.5 t123 -53.5q149 0 252 123q18 70 26 122t5.5 100t-19.5 77.5t-53.5 45.5t-93.5 13q-103 -4 -161.5 -66.5t-84.5 -183.5z" />
<glyph unicode=":" horiz-adv-x="591" d="M74 162q0 80 56.5 137t135.5 57q80 0 137.5 -57.5t57.5 -136.5t-57.5 -136t-137.5 -57q-79 0 -135.5 56.5t-56.5 136.5zM190 698q0 80 57 137.5t136 57.5t137 -57.5t58 -137.5q0 -79 -57.5 -135.5t-137.5 -56.5t-136.5 56.5t-56.5 135.5z" />
<glyph unicode=";" horiz-adv-x="591" d="M20 -156q69 26 107 59.5t51 86.5q-48 24 -77 70t-29 102q0 80 56.5 137t135.5 57q80 0 137.5 -57.5t57.5 -136.5q0 -15 -4 -39q-15 -75 -47 -135.5t-71 -101t-87.5 -69.5t-94 -44t-94.5 -21zM190 698q0 80 57 137.5t136 57.5t137 -57.5t58 -137.5q0 -79 -57.5 -135.5 t-137.5 -56.5t-136.5 56.5t-56.5 135.5z" />
<glyph unicode="&#x3c;" horiz-adv-x="1032" d="M86 414l1014 485l-64 -295l-372 -178l299 -172l-62 -287z" />
<glyph unicode="=" horiz-adv-x="1218" d="M102 199l48 225h972l-47 -225h-973zM199 649l47 225h973l-48 -225h-972z" />
<glyph unicode="&#x3e;" horiz-adv-x="1032" d="M-8 -33l61 287l373 172l-299 178l63 295l805 -485z" />
<glyph unicode="?" horiz-adv-x="1114" d="M248 162q0 80 56.5 137t135.5 57q80 0 137.5 -57.5t57.5 -136.5t-57.5 -136t-137.5 -57q-79 0 -135.5 56.5t-56.5 136.5zM260 1163q245 76 481 76q233 0 325.5 -72t61.5 -215q-7 -35 -20 -64t-26 -50.5t-38 -42t-41.5 -33t-53 -29.5t-56 -25.5t-66.5 -27t-69 -27.5 q-47 -20 -66 -34t-26 -44l-13 -79l-385 -62q0 111 17 197q7 33 19.5 57t28.5 42t51.5 37.5t69.5 34.5t101 42q109 44 139 63.5t39 57.5q9 47 -19.5 66.5t-105.5 19.5q-144 0 -342 -58z" />
<glyph unicode="@" horiz-adv-x="1810" d="M104 258q-1 78 17 172q71 332 340 500t702 168q367 0 517 -141t96 -398q-34 -155 -103 -247.5t-199 -139.5t-337 -47q-250 0 -367 68t-86 219q14 63 49 111.5t85.5 80.5t121.5 53t151 30.5t181 12.5q0 -65 -15 -131q-169 -20 -198 -145q-11 -58 15 -90.5t91 -32.5 q45 0 78 16t54 49t33.5 68.5t23.5 89.5q21 110 21.5 184t-30.5 119t-87 64.5t-148 19.5q-132 0 -242.5 -37.5t-187 -103t-126.5 -150t-71 -184.5q-29 -118 -3.5 -209t101.5 -152t220.5 -89t353.5 -19l31 -141q-63 -22 -182 -33.5t-238 -11.5q-67 0 -131 7.5t-130 23.5 t-122.5 42t-108 63.5t-87 87t-59 112.5t-24.5 141z" />
<glyph unicode="A" horiz-adv-x="1486" d="M20 0l39 188q23 109 51.5 207.5t71 206.5t93.5 198t120.5 172.5t150 139.5t184 91t220.5 34q489 0 489 -584q0 -199 -57 -465l-39 -188h-438l74 346h-447l-73 -346h-439zM569 528h447l4 13q33 153 33 259q0 14 -1 28q-5 113 -42 167t-103 54q-103 0 -192 -127.5 t-142 -380.5z" />
<glyph unicode="B" horiz-adv-x="1511" d="M113 0l217 1024h-154l39 184h887q106 0 186.5 -16.5t138 -51t79.5 -93.5q13 -34 13 -76q0 -29 -6 -62q-39 -171 -219 -241q94 -38 136 -106q26 -42 26 -105q0 -39 -10 -86q-22 -104 -79.5 -177t-148.5 -115t-201.5 -60.5t-252.5 -18.5h-651zM592 203h156q112 0 176.5 40 t85.5 138q6 27 6 49q0 50 -30 77q-43 38 -157 38h-165zM702 727h136q103 0 160.5 33t76.5 121q4 21 4 39q-1 46 -27 70q-38 34 -159 34h-127z" />
<glyph unicode="C" horiz-adv-x="1351" d="M122 396q-1 13 0 26q0 70 19 153q68 321 282.5 477t606.5 156h385l-39 -184h-295q-108 0 -188 -29.5t-132 -87.5t-84 -129t-52 -168q-17 -81 -17 -147q0 -43 8 -79q18 -91 105.5 -137t253.5 -46q150 0 266 37l16 -142q-220 -121 -542 -121q-83 0 -155 9t-140 29t-119 52 t-93 78.5t-62 109.5t-24 143z" />
<glyph unicode="D" horiz-adv-x="1628" d="M113 0l217 1024h-154l39 184h756q215 0 355.5 -35t215.5 -107q74 -70 91 -180q6 -38 6 -81q0 -80 -21 -178q-71 -333 -290 -480t-626 -147h-589zM590 195h176q60 0 107.5 20t82 54.5t62 90.5t47 118.5t37.5 148.5q26 129 28 217v7q0 83 -42 127q-44 46 -142 46h-180z" />
<glyph unicode="E" horiz-adv-x="1345" d="M176 1024l39 184h1221l-39 -184h-631l-64 -297h451l-39 -182h-450l-7 -29q-14 -67 -14 -120q1 -30 5 -55q12 -70 83 -105t211 -35q177 0 293 37l16 -142q-87 -48 -238 -84.5t-319 -36.5q-307 0 -417 144q-70 91 -70 246q0 90 24 202l99 457h-154z" />
<glyph unicode="F" horiz-adv-x="1282" d="M113 0l217 1024h-154l39 184h1221l-39 -184h-631l-64 -297h451l-39 -182h-450l-115 -545h-436z" />
<glyph unicode="G" horiz-adv-x="1505" d="M122 414q1 73 19 159q68 323 281.5 479t607.5 156h488l-39 -184h-398q-108 0 -188 -29.5t-132.5 -87.5t-84.5 -130t-53 -171q-20 -98 -20 -171q0 -106 42 -163q72 -96 305 -96h39l68 318h-191l39 182h590l-39 -182h-2l-82 -394q-287 -125 -622 -125q-80 0 -149.5 7 t-134.5 21.5t-117.5 39t-96 58t-72 80t-44.5 103.5q-14 54 -14 121v9z" />
<glyph unicode="H" horiz-adv-x="1632" d="M113 0l217 1024h-154l39 184h590l-107 -501h449l106 501h441l-256 -1208h-441l111 524h-449l-110 -524h-436z" />
<glyph unicode="I" horiz-adv-x="743" d="M113 0l217 1024h-154l39 184h590l-256 -1208h-436z" />
<glyph unicode="J" horiz-adv-x="974" d="M-25 -14l29 133q115 12 209.5 57t163 128.5t92.5 195.5l113 524h-263l39 184h699l-148 -696q-29 -135 -120.5 -243.5t-219.5 -174t-282 -94.5q-101 -19 -205 -19q-53 0 -107 5z" />
<glyph unicode="K" horiz-adv-x="1519" d="M113 0l217 1024h-154l39 184h590l-100 -469l444 469h465l-551 -581q37 -84 65 -141.5t70.5 -128t83 -113t94.5 -72t111 -29.5l-25 -120q-108 -48 -243 -48q-108 0 -197.5 36.5t-158 106.5t-120 158t-94.5 203l-100 -479h-436z" />
<glyph unicode="L" horiz-adv-x="1198" d="M176 1024l39 184h590l-150 -702q-11 -50 -11 -92q0 -86 44 -146q66 -88 232 -88q116 0 237 41l14 -145q-68 -33 -202 -67t-289 -34q-473 0 -473 394q0 85 22 188l101 467h-154z" />
<glyph unicode="M" horiz-adv-x="1867" d="M113 0l217 1024h-154l39 184h590l215 -592l469 592h440l-256 -1208h-440l143 684l-463 -586l-221 586l-143 -684h-436z" />
<glyph unicode="N" horiz-adv-x="1607" d="M113 0l217 1024h-154l39 184h590l293 -612l131 612h440l-256 -1208h-371l-346 700l-147 -700h-436z" />
<glyph unicode="O" horiz-adv-x="1626" d="M147 602q24 114 65.5 206t111.5 173t165 135.5t230 85.5t303 31q161 0 279 -28.5t188 -81.5t107.5 -129.5t37.5 -173t-22 -210.5q-44 -208 -146 -346t-283 -213.5t-442 -75.5q-367 0 -515 152q-101 104 -100 288q0 85 21 187zM610 275q37 -111 178 -111 q144 0 222.5 109.5t124.5 332.5q31 134 31 227q0 62 -14 104q-34 107 -173 107q-143 0 -225 -106t-131 -332q-29 -126 -28 -217q-1 -67 15 -114z" />
<glyph unicode="P" horiz-adv-x="1486" d="M113 0l217 1024h-154l39 184h907q105 0 184.5 -23t136 -72t73.5 -127q8 -36 8 -77q0 -49 -11 -108q-32 -148 -126 -250.5t-226 -149.5t-297 -47h-241l-74 -354h-436zM666 557h135q117 0 198 61t105 177q7 35 7 64q0 73 -43 111q-61 54 -196 54h-106z" />
<glyph unicode="Q" horiz-adv-x="1626" d="M86 602q24 114 65.5 206t111.5 173t165 135.5t230 85.5t303 31q161 0 279 -28.5t188 -81.5t107 -129.5t37 -173t-22 -210.5q-63 -298 -253.5 -457t-540.5 -176q-3 -13 -3 -25q0 -30 21 -50q29 -27 105 -27q43 0 185.5 15.5t211.5 15.5q133 0 190 -45q43 -33 43 -95 q0 -23 -6 -49q-10 -52 -40 -113.5t-64 -99.5l-86 4q3 13 3 25q0 27 -20 41q-27 18 -79 18q-33 0 -189.5 -14t-224.5 -14q-166 0 -240 68q-53 48 -53 132q0 33 8 72q18 85 62 144q-313 19 -436 170q-80 100 -80 264q0 85 22 188zM548 275q38 -111 179 -111q144 0 222 109.5 t124 332.5q31 134 31 227q0 61 -14 104q-34 107 -172 107q-143 0 -225.5 -106t-131.5 -332q-29 -126 -29 -216q0 -67 16 -115z" />
<glyph unicode="R" horiz-adv-x="1509" d="M113 0l217 1024h-154l39 184h907q105 0 184.5 -23t136 -72t73.5 -127q8 -36 8 -77q0 -49 -11 -108q-66 -301 -374 -391q77 -146 148 -202t200 -65l-25 -120q-113 -48 -258 -48q-199 0 -321.5 95t-194.5 305h-59l-80 -375h-436zM668 557h133q117 0 198 61t105 177 q7 35 7 64q0 73 -43 111q-61 54 -196 54h-106z" />
<glyph unicode="S" horiz-adv-x="1329" d="M18 90l109 189q235 -91 467 -91q100 0 153.5 22.5t63.5 74.5q2 10 2 19q-1 25 -17 41q-22 21 -85 48q-171 75 -274 130.5t-156.5 104.5t-69.5 89t-16 96q0 90 40.5 166t118 133t200.5 89t280 32q134 0 287 -18.5t261 -45.5l-86 -190q-246 39 -407 39q-98 0 -146 -22 t-57 -66q-2 -8 -2 -16q0 -57 86 -97q142 -66 231 -113t148 -85t86.5 -73.5t37 -67t9.5 -77.5q0 -97 -36 -172t-96 -122.5t-146 -77.5t-176.5 -42t-196.5 -12q-198 0 -358.5 34t-254.5 81z" />
<glyph unicode="T" horiz-adv-x="1286" d="M135 1024l39 184h1235l-39 -184h-467l-133 -623q-10 -48 -10 -85q0 -49 18 -79q32 -53 135 -53q101 0 213 41l19 -137q-86 -47 -205 -80t-248 -33q-232 1 -316 119q-53 75 -52 193q0 70 18 155l125 582h-332z" />
<glyph unicode="U" horiz-adv-x="1566" d="M164 436l164 772h440l-172 -809q-10 -47 -10 -85q0 -64 30 -97q46 -53 148 -53q100 0 162 52t90 183l172 809h440l-164 -772q-50 -233 -231 -347t-512 -114q-345 -1 -476 113q-95 82 -95 228q0 55 14 120z" />
<glyph unicode="V" horiz-adv-x="1566" d="M174 1208h545l213 -792l543 792h307l-842 -1208h-379z" />
<glyph unicode="W" horiz-adv-x="2215" d="M172 1204h537l106 -762l445 766h307l116 -745l441 745h307l-709 -1208h-401l-111 639l-389 -639h-383z" />
<glyph unicode="X" horiz-adv-x="1656" d="M-61 0l696 590l-82 264q-21 70 -75 104.5t-132 34.5q-69 0 -149 -28l-23 135q216 133 442 133q305 0 385 -260l17 -55l344 290h426l-680 -577l66 -209q38 -122 97 -169.5t165 -47.5q65 0 125 22l32 -131q-195 -121 -432 -121q-59 0 -108.5 8t-100.5 29.5t-91.5 56.5 t-75.5 92t-58 132l-4 10l-358 -303h-426z" />
<glyph unicode="Y" horiz-adv-x="1529" d="M158 72l80 157q147 -45 346 -45q180 0 272.5 67t134.5 202q-166 -56 -329 -56q-225 0 -322 110q-68 77 -68 196q0 52 13 112l45 209h-154l39 184h590l-98 -465q-4 -21 -4 -38q0 -43 27 -67q37 -32 136 -32q68 0 164 15l125 587h436l-139 -651q-63 -298 -248.5 -440 t-509.5 -142q-174 0 -322.5 30.5t-213.5 66.5z" />
<glyph unicode="Z" horiz-adv-x="1372" d="M31 0l35 172l786 852h-551l39 182h1100l-35 -162l-762 -829q92 -11 171 -39.5t140.5 -50t126.5 -21.5q60 0 119.5 19.5t89.5 38.5l29 20l29 -176q-5 -4 -14.5 -11t-39.5 -24.5t-62.5 -31t-80.5 -24.5t-96 -11q-124 0 -226.5 15t-173 33t-233 33t-391.5 15z" />
<glyph unicode="[" horiz-adv-x="761" d="M-104 -401l346 1638h680l-41 -193h-283l-266 -1253h282l-41 -192h-677z" />
<glyph unicode="\" horiz-adv-x="1142" d="M160 1237h397l479 -1638h-397z" />
<glyph unicode="]" horiz-adv-x="761" d="M-104 -401l41 192h280l266 1253h-282l41 193h680l-349 -1638h-677z" />
<glyph unicode="^" horiz-adv-x="1202" d="M96 365l574 843h239l226 -843h-342l-82 434l-273 -434h-342z" />
<glyph unicode="_" horiz-adv-x="819" d="M-100 -184l39 184h819l-41 -184h-817z" />
<glyph unicode="`" horiz-adv-x="589" d="M174 1192h438l127 -313h-284z" />
<glyph unicode="a" horiz-adv-x="1351" d="M110 208q-7 35 -7 77q0 53 12 116q20 94 64.5 172.5t103 131.5t130 90t146 54t150.5 17q159 0 290 -41l297 35l-129 -606q-3 -17 -3 -30q0 -56 57 -56q24 0 65 16l27 -118q-72 -44 -137.5 -65t-147.5 -21q-181 0 -240 98q-145 -103 -321 -103q-91 0 -163.5 24.5 t-125 76.5t-68.5 132zM530 416q-13 -60 -14 -103q0 -44 14 -69q28 -51 103 -51q60 0 127 36q3 39 12 86l72 338q-57 11 -90 11q-171 0 -224 -248z" />
<glyph unicode="b" horiz-adv-x="1296" d="M141 395l138 649h-129l34 164l545 39l-98 -465q125 84 289 84q191 0 276 -106q57 -71 57 -181q0 -55 -14 -120q-22 -109 -75.5 -197t-136.5 -153.5t-202.5 -101.5t-265.5 -36q-253 0 -358 108q-73 76 -73 200q0 54 13 116zM514 256q8 -59 33.5 -86t64.5 -27 q68 0 125.5 81.5t85.5 213.5q13 62 13 107q0 123 -97 123q-78 0 -133 -69t-80 -191q-15 -66 -14 -115q0 -20 2 -37z" />
<glyph unicode="c" horiz-adv-x="1015" d="M117 412q47 216 197 335t395 119q183 0 325 -71l-71 -133q-114 30 -172 30q-104 0 -163 -64.5t-91 -213.5q-14 -69 -14 -118q1 -49 15 -76q30 -54 130 -54q97 0 213 41l28 -123q-187 -109 -413 -109q-234 0 -328 114q-64 78 -65 200q0 57 14 123z" />
<glyph unicode="d" horiz-adv-x="1351" d="M110 208q-7 35 -7 77q0 53 12 116q20 94 65 172.5t103 131.5t127.5 90t139 54t138.5 17q126 0 193 -41l47 219h-129l35 164l544 39l-211 -993q-3 -17 -3 -30q0 -56 57 -56q24 0 65 16l27 -118q-140 -86 -283 -86q-177 0 -244 98q-145 -103 -319 -103q-91 0 -163.5 24.5 t-125 76.5t-68.5 132zM530 416q-13 -60 -14 -103q0 -44 14 -69q28 -51 103 -51q57 0 123 32q0 19 6 37l82 391q-57 11 -90 11q-171 0 -224 -248z" />
<glyph unicode="e" horiz-adv-x="1236" d="M117 408q49 231 198 344.5t441 113.5q248 0 366 -76q95 -61 95 -157q0 -23 -5 -47q-33 -154 -203.5 -225.5t-484.5 -77.5q6 -71 44 -96t122 -25q151 0 305 41l27 -135q-206 -97 -447 -97q-278 -1 -390 113q-80 81 -80 213q0 52 12 111zM535 416q136 6 210.5 41.5 t92.5 115.5q3 17 3 31q-1 34 -17 56q-24 32 -81 32q-83 0 -135 -72.5t-73 -203.5z" />
<glyph unicode="f" horiz-adv-x="827" d="M-178 -199q80 8 139.5 42t98.5 91.5t63.5 125.5t40.5 159l84 445h-139l34 159l115 13h21l8 36q36 190 159 283.5t318 93.5q158 0 268 -41l-57 -139q-31 10 -66 10q-8 0 -17 -1q-44 -3 -81.5 -16t-66 -47t-37.5 -83l-19 -96h213l-57 -172h-189l-80 -433 q-50 -259 -252 -406t-473 -147z" />
<glyph unicode="g" horiz-adv-x="1323" d="M61 -51q18 81 62 150.5t98 109.5q-120 70 -120 194q0 31 8 66q18 85 61.5 154t117 125t188 87t261.5 31q179 0 301 -45q143 35 383 35l-59 -211l-164 70q45 -59 45 -135q0 -28 -6 -58q-18 -85 -62.5 -154t-118.5 -124t-188.5 -85t-261.5 -30q-172 0 -284 37 q-24 -54 -24 -91q0 -87 126 -87q38 0 221.5 15t253.5 15q133 0 191 -44q44 -33 44 -96q0 -22 -6 -48q-10 -52 -40 -113.5t-64 -99.5l-86 4q3 14 3 26q0 30 -18 50q-26 29 -85 29q-22 0 -220 -14.5t-276 -14.5q-160 0 -234 64q-54 47 -54 126q0 29 7 62zM526 489 q-6 -32 -6 -59q0 -44 16 -74q28 -47 97 -47q72 0 122 53t68 138q8 35 8 64q0 39 -13 69q-24 53 -89 53q-78 0 -131 -53.5t-72 -143.5z" />
<glyph unicode="h" d="M57 0l222 1044h-129l34 164l545 39l-102 -485q157 98 334 98q145 0 219 -76q50 -51 50 -135q0 -40 -11 -88l-56 -233q-16 -56 -16 -90q1 -6 1 -12q4 -36 16 -47t36 -11t66 16l26 -118q-141 -86 -286 -86q-56 0 -101 10t-83.5 33.5t-58 62t-25.5 95.5q-1 12 -1 25 q0 48 17 109l53 222q3 12 3 25q0 20 -9 40q-15 32 -62 31q-73 0 -155 -70l-119 -563h-408z" />
<glyph unicode="i" horiz-adv-x="712" d="M115 315l114 496l418 49l-123 -532q-15 -64 -15 -101q0 -13 2 -23q8 -36 50 -36q20 0 66 16l26 -118q-70 -43 -135.5 -64.5t-148.5 -21.5q-268 0 -268 222q0 51 14 113zM262 1120q0 86 71.5 138.5t194.5 52.5q114 0 175 -45.5t61 -126.5q0 -86 -69 -134.5t-193 -48.5 q-120 0 -180 44.5t-60 119.5z" />
<glyph unicode="j" horiz-adv-x="643" d="M-276 -340q65 7 117.5 33t88 62.5t63 91.5t44 108t31.5 123l155 733l418 49l-164 -770q-55 -254 -255 -403.5t-470 -149.5zM248 1120q0 86 71.5 138.5t194.5 52.5q114 0 175 -45.5t61 -126.5q0 -86 -69.5 -134.5t-193.5 -48.5q-120 0 -179.5 44.5t-59.5 119.5z" />
<glyph unicode="k" horiz-adv-x="1300" d="M61 0l222 1044h-133l34 164l549 39l-102 -483q56 37 148 66.5t198 29.5q71 0 130.5 -15.5t106.5 -48.5q46 -32 65 -90q10 -31 10 -69q0 -31 -7 -66q-26 -120 -114.5 -187t-215.5 -87q2 -67 27.5 -102t87.5 -35q52 0 107 20l28 -110q-57 -40 -144 -65t-177 -25 q-167 0 -231 94q-49 72 -49 192q0 37 5 80h5q25 0 61 9q40 10 82.5 29t76.5 54t43 78q3 14 3 26q0 35 -23 59q-31 32 -92 32q-93 0 -174 -66l-119 -567h-408z" />
<glyph unicode="l" horiz-adv-x="784" d="M127 315l156 729h-133l34 164l549 39l-194 -919q-9 -36 -10 -64q1 -26 9 -44q16 -38 76 -38q34 0 113 23l29 -123q-171 -102 -371 -102q-271 0 -271 227q0 49 13 108z" />
<glyph unicode="m" horiz-adv-x="1964" d="M61 0l172 811l418 49l-20 -98q157 98 334 98q189 0 247 -119q199 119 385 119q145 0 217 -78q48 -53 48 -135q0 -40 -11 -86l-55 -233q-16 -56 -16 -90v-12q4 -36 16.5 -47t36.5 -11q23 0 65 16l27 -118q-141 -86 -287 -86q-56 0 -101 10t-83.5 33.5t-58 62t-25.5 95.5 q-1 12 -1 25q0 48 17 109l54 222q4 12 4 25q0 20 -10 39q-16 32 -64 32q-65 0 -143 -62q-2 -4 -2 -10l-119 -561h-408l113 537q3 15 3 28q0 25 -12 42q-19 26 -54 26q-78 0 -160 -70l-119 -563h-408z" />
<glyph unicode="n" horiz-adv-x="1335" d="M61 0l172 811l418 49l-20 -92q176 92 338 92q145 0 217 -78q48 -53 48 -135q0 -40 -11 -86l-56 -233q-16 -56 -16 -90q1 -6 1 -12q4 -36 16 -47t36 -11t66 16l26 -118q-141 -86 -286 -86q-56 0 -101 10t-83.5 33.5t-58 62t-25.5 95.5q-1 12 -1 25q0 48 17 109l53 222 q4 12 4 25q0 20 -10 39q-16 32 -64 32q-71 0 -153 -70l-119 -563h-408z" />
<glyph unicode="o" horiz-adv-x="1302" d="M115 403q49 228 202 345.5t439 117.5q268 0 400 -104q99 -78 98 -217q0 -46 -11 -99q-102 -475 -647 -475q-274 1 -398 115q-93 86 -94 220q0 46 11 97zM516 255q9 -59 34 -85.5t64 -26.5q69 0 126 81.5t85 217.5q15 70 15 120q0 126 -97 126q-75 0 -131.5 -75 t-83.5 -203q-15 -67 -15 -116q0 -21 3 -39z" />
<glyph unicode="p" horiz-adv-x="1298" d="M-29 -422l262 1233l418 49l-20 -94q140 86 301 86q47 0 90 -8.5t84.5 -28t71 -51t50.5 -77.5t22 -107q1 -6 1 -11q0 -57 -14 -129q-45 -219 -208 -342t-429 -123q-64 0 -135 11l-76 -359zM506 180q46 -12 90 -12q83 0 140.5 62t82.5 176q10 48 10 85q0 127 -118 127 q-62 0 -119 -32z" />
<glyph unicode="q" horiz-adv-x="1298" d="M110 209q-6 34 -6 73q0 57 13 124q31 146 120 251t214 157t272 52q145 0 276 -41l297 35l-262 -1231l-416 -49l97 455q-114 -60 -248 -60q-91 0 -163.5 24t-125 76t-68.5 134zM530 416q-13 -59 -13 -102q0 -44 14 -70q28 -51 104 -51q63 0 121 32l90 428q-57 11 -92 11 q-171 0 -224 -248z" />
<glyph unicode="r" horiz-adv-x="923" d="M61 0l172 811l418 49l-41 -190q65 82 149.5 133t170.5 51q63 0 114 -41l-135 -238q-51 21 -110 21q-128 0 -228 -115l-102 -481h-408z" />
<glyph unicode="s" horiz-adv-x="1069" d="M55 45l70 172q66 -25 151.5 -41t151.5 -16q60 0 102 14.5t48 44.5q4 16 -7.5 28t-24.5 16.5t-42 12.5q-73 21 -117 35.5t-86 32.5t-64 35t-39.5 41.5t-23.5 53t-6 67.5q0 149 119.5 237t335.5 88q251 0 419 -57l-57 -164q-143 35 -272 35q-121 0 -131 -49 q-4 -20 10.5 -32.5t52.5 -23.5q58 -18 93.5 -29.5t74 -25.5t59.5 -24t43 -24t32 -27t19.5 -31t12 -37t2.5 -45q0 -76 -27 -137.5t-71.5 -101.5t-106 -67.5t-128 -39t-138.5 -11.5q-277 0 -455 70z" />
<glyph unicode="t" horiz-adv-x="847" d="M129 664l35 161l110 11l41 194l420 49l-51 -243h211l-57 -172h-191l-72 -336q-9 -35 -9 -63q0 -27 8 -45q17 -38 77 -38q34 0 113 23l29 -123q-177 -102 -363 -102q-165 0 -234 78q-45 51 -45 145q0 50 13 112l74 349h-109z" />
<glyph unicode="u" horiz-adv-x="1343" d="M127 315l106 496l418 49l-112 -532q-7 -34 -7 -59q0 -29 10 -47q18 -34 72 -34q75 0 138 45q3 37 12 82l106 496l418 49l-129 -606q-3 -17 -3 -30q0 -56 56 -56q25 0 66 16l27 -118q-72 -44 -137.5 -65t-147.5 -21q-188 0 -244 106q-167 -106 -377 -106q-173 0 -241 80 q-44 52 -44 144q0 50 13 111z" />
<glyph unicode="v" horiz-adv-x="1222" d="M109 807l442 53l151 -561q118 113 179 193.5t61 134.5q0 66 -99 66q-28 0 -63 -5l27 137q114 36 197 35q22 0 42 -2q96 -12 142.5 -61t46.5 -127q0 -55 -27 -118t-68 -122t-114 -135.5t-139.5 -139.5t-169.5 -155h-363z" />
<glyph unicode="w" horiz-adv-x="1863" d="M109 807l442 53l78 -532l248 473l364 47l105 -547q119 113 178 192t59 134q1 39 -31 55q-23 12 -55 12q-11 0 -24 -2l26 148q83 21 150 21q73 1 126 -25q101 -50 101 -166q0 -69 -36 -145.5t-110 -163t-160.5 -169.5t-213.5 -192h-305l-99 426l-241 -426h-439z" />
<glyph unicode="x" horiz-adv-x="1298" d="M-33 0l500 401l-64 170q-20 46 -58 71.5t-81 25.5q-50 0 -117 -21l-22 117q152 96 342 96q123 0 200 -46t124 -150l245 196l301 -41l-463 -373l46 -118q58 -160 204 -160q36 0 78 16l27 -118q-136 -86 -300 -86h-11q-115 2 -211.5 52.5t-153.5 155.5l-234 -188h-352z" />
<glyph unicode="y" horiz-adv-x="1161" d="M88 807l442 53l152 -526l352 502h273l-727 -1012q-80 -111 -199.5 -170.5t-243.5 -59.5l-33 199q44 0 75.5 4.5t69 18.5t70 46t60.5 81z" />
<glyph unicode="z" horiz-adv-x="1118" d="M20 0l31 145l561 523h-413l37 172h884l-28 -133l-562 -535q76 -9 172.5 -45.5t149.5 -36.5q48 0 92.5 14t65.5 28l20 13l23 -143q-4 -3 -10.5 -9t-30.5 -20.5t-51 -25.5t-70.5 -20t-89.5 -9q-78 0 -156 13t-140 28t-190 28t-295 13z" />
<glyph unicode="{" horiz-adv-x="913" d="M25 346l65 307q119 0 178.5 29.5t73.5 93.5q6 28 11 131.5t16 153.5q17 81 68 148.5t120.5 112t157 77t173.5 48.5t175 21l29 -153q-75 -4 -135.5 -30.5t-98 -67t-60 -83t-32.5 -87.5q-8 -37 -11 -137.5t-12 -145.5q-23 -106 -97.5 -180t-160.5 -86v-2q84 -17 128 -78.5 t18 -177.5q-11 -54 -50 -151t-46 -130q-4 -21 -6.5 -37.5t-1.5 -41.5t7 -45.5t21 -44.5t38.5 -42.5t62.5 -36t89 -28.5l-94 -152q-79 6 -156.5 24.5t-151.5 53.5t-126.5 81t-77 113t-8.5 144q9 44 47 143t45 131q15 68 -29.5 96.5t-168.5 28.5z" />
<glyph unicode="|" horiz-adv-x="643" d="M6 -401l400 1884h335l-399 -1884h-336z" />
<glyph unicode="}" horiz-adv-x="913" d="M-88 -317q75 16 132.5 43t90 55t55.5 64t31.5 60t14.5 54q8 35 10 132t12 149q26 116 95.5 177.5t160.5 78.5v2q-80 12 -122.5 86.5t-20.5 179.5q9 46 48.5 146.5t47.5 136.5q7 29 7.5 57.5t-5 58.5t-21 55.5t-40 46.5t-63.5 34t-89 16l94 153q86 -5 165 -21t153 -48.5 t124.5 -77t73.5 -112t6 -148.5q-11 -51 -50.5 -154.5t-45.5 -130.5q-14 -64 33 -93.5t166 -29.5l-66 -307q-124 0 -180.5 -28.5t-71.5 -96.5q-6 -31 -9 -130.5t-13 -143.5q-20 -96 -95 -174.5t-178 -127.5t-211 -77.5t-212 -36.5z" />
<glyph unicode="~" horiz-adv-x="1183" d="M158 565q44 91 124.5 149t194.5 58q110 0 209 -76q60 -46 90.5 -60.5t67.5 -14.5q120 0 176 131l119 -201q-38 -83 -109 -142t-178 -59q-116 0 -223 80q-58 44 -87 59t-67 15q-127 0 -196 -133z" />
<glyph unicode="&#xa1;" horiz-adv-x="618" d="M76 -31h454l82 713l-323 41zM322 1016q0 79 57 135.5t137 56.5t136.5 -56.5t56.5 -135.5q0 -80 -57 -137.5t-136 -57.5t-136.5 57.5t-57.5 137.5z" />
<glyph unicode="&#xa2;" horiz-adv-x="1382" d="M61.5 387q-0.5 83 18.5 188q61 288 238.5 443t494.5 184l47 223l338 39l-55 -256h211l-39 -184h-295q-108 0 -188 -29.5t-132.5 -87.5t-84.5 -129.5t-52 -167.5q-28 -135 -9.5 -226t106 -137t253.5 -46q151 0 267 37l16 -142q-134 -75 -319 -104l-50 -228h-329l45 216 q-82 6 -151 23.5t-130.5 48.5t-102.5 77t-69 110.5t-28.5 147.5z" />
<glyph unicode="&#xa3;" d="M84 0l37 182h207l26 324h-180l39 184h158l12 144q8 103 55.5 182t123 127t169.5 72t203 24q107 0 234 -25.5t206 -54.5l-57 -186q-62 19 -147.5 33t-153.5 14q-102 0 -159.5 -44.5t-63.5 -111.5l-15 -174h316l-39 -184h-293l-27 -324h195q129 0 153 123h185 q-44 -145 -138 -225t-239 -80h-807z" />
<glyph unicode="&#xa5;" horiz-adv-x="1566" d="M121 207l39 184h481l-53 115h-404l39 184h277l-244 518h545l192 -501l400 501h307l-428 -518h256l-39 -184h-371l-94 -115h440l-39 -184h-442l-43 -207h-379l43 207h-483z" />
<glyph unicode="&#xa6;" horiz-adv-x="602" d="M-25 -401l170 798h357l-170 -798h-357zM205 684l170 799h356l-170 -799h-356z" />
<glyph unicode="&#xa7;" horiz-adv-x="1124" d="M-59 -94l102 166q65 -41 173.5 -65.5t189.5 -24.5q60 0 113.5 15t97 46t65.5 84.5t16 122.5l-61 676h328l61 -668q10 -103 -38 -193t-135.5 -151t-204 -96t-242.5 -35q-137 0 -271 37.5t-194 85.5zM186 819q-19 190 140 321.5t430 131.5q135 0 259 -31.5t199 -69.5 l-100 -180q-56 32 -153.5 55t-186.5 23q-135 0 -202.5 -60.5t-55.5 -187.5l59 -688h-325z" />
<glyph unicode="&#xa8;" horiz-adv-x="804" d="M104 879l60 278h348l-59 -278h-349zM602 879l60 278h348l-60 -278h-348z" />
<glyph unicode="&#xa9;" horiz-adv-x="1304" d="M115 512q0 171 76.5 305.5t209.5 207.5t299 73q165 0 298.5 -74t210.5 -208.5t77 -303.5q0 -128 -45 -237.5t-123.5 -184.5t-186.5 -117.5t-231 -42.5q-253 0 -419 162t-166 420zM291 514q0 -181 113 -300.5t294 -119.5q185 0 298.5 119t113.5 301q0 181 -113.5 300.5 t-296.5 119.5t-296 -119.5t-113 -300.5zM432.5 398.5q-7.5 49.5 7.5 103.5q14 67 37 118t60 93t93.5 64t131.5 22q107 0 170 -49l-70 -107q-34 31 -96 31q-115 0 -152 -164q-17 -85 3 -123.5t75 -38.5q57 0 115 45l49 -86q-49 -43 -89 -59.5t-103 -16.5q-74 0 -125.5 22 t-75 59t-31 86.5z" />
<glyph unicode="&#xaa;" horiz-adv-x="800" d="M131 496l25 114h616l-24 -114h-617zM205 872q19 89 109.5 132t281.5 43q4 0 11 -1.5t11 -1.5q0 44 -25 63t-83 19q-76 0 -172 -22l-8 94q134 41 291 41q163 0 216.5 -68.5t24.5 -205.5q-32 -142 -117 -203.5t-268 -61.5q-151 0 -221.5 40.5t-50.5 131.5zM432 883 q-16 -76 60 -76q46 0 72.5 28.5t39.5 94.5l8 43q-92 -3 -131.5 -24t-48.5 -66z" />
<glyph unicode="&#xab;" horiz-adv-x="1662" d="M84 399l489 441h431l-486 -434l291 -406h-440zM791 414l483 426h444l-487 -424l309 -416h-453z" />
<glyph unicode="&#xac;" horiz-adv-x="1226" d="M109 424l49 225h1063l-127 -598h-314l78 373h-749z" />
<glyph unicode="&#xad;" horiz-adv-x="849" d="M127 360l51 244h645l-92 -244h-604z" />
<glyph unicode="&#xae;" horiz-adv-x="1304" d="M115 512q0 171 76.5 305.5t209.5 207.5t299 73q165 0 298.5 -74t210.5 -208.5t77 -303.5q0 -128 -45 -237.5t-123.5 -184.5t-186.5 -117.5t-231 -42.5q-253 0 -419 162t-166 420zM291 514q0 -181 113 -300.5t294 -119.5q185 0 298.5 119t113.5 301q0 181 -113.5 300.5 t-296.5 119.5t-296 -119.5t-113 -300.5zM442 242l115 540h205q119 0 161.5 -41.5t24.5 -122.5q-25 -114 -127 -161l86 -215h-182l-63 180q-12 -4 -19 -4h-2l-37 -176h-162zM666 532h10q90 0 108 78q5 30 -6 45t-51 15h-33z" />
<glyph unicode="&#xb0;" horiz-adv-x="763" d="M197 928q29 140 133.5 225.5t240.5 85.5t215 -89.5t52 -221.5q-29 -137 -134 -223.5t-239 -86.5q-137 0 -216 87.5t-52 222.5zM387 928q-12 -54 17 -91.5t83 -37.5t101 37.5t59 91.5q11 54 -19.5 92.5t-84.5 38.5t-99.5 -38.5t-56.5 -92.5z" />
<glyph unicode="&#xb1;" horiz-adv-x="1218" d="M61 0h973l47 225h-972zM193 618l47 226h354l49 227h264l-49 -227h354l-47 -226h-354l-51 -239h-264l51 239h-354z" />
<glyph unicode="&#xb2;" horiz-adv-x="686" d="M145 596l19 84q10 48 49.5 92t89.5 77t100 63.5t87.5 64.5t44.5 67q6 30 -19.5 46t-73.5 16q-60 0 -159 -23l12 93q45 15 119 28t139 13q115 0 170.5 -43.5t40.5 -120.5q-14 -64 -67 -113.5t-144 -105.5q-109 -65 -142.5 -91.5t-39.5 -54.5h317l-20 -92h-523z" />
<glyph unicode="&#xb3;" horiz-adv-x="702" d="M156 639l51 82q96 -27 172 -27q63 0 116.5 38.5t53.5 105.5q0 45 -23.5 60t-95.5 15h-125l187 191h-213l22 104h514l-221 -207h20q51 0 85 -36.5t34 -106.5q0 -103 -106.5 -185.5t-243.5 -82.5q-123 0 -227 49z" />
<glyph unicode="&#xb4;" horiz-adv-x="589" d="M115 879l258 313h438l-412 -313h-284z" />
<glyph unicode="&#xb5;" horiz-adv-x="1343" d="M-29 -422l262 1233l418 49l-112 -532q-15 -73 2.5 -106.5t72.5 -33.5q75 0 138 45q3 37 12 82l106 496l418 49l-129 -606q-17 -86 53 -86q25 0 66 16l27 -118q-72 -44 -137.5 -65t-147.5 -21q-188 0 -244 106q-129 -87 -311 -104l-76 -355z" />
<glyph unicode="&#xb6;" horiz-adv-x="1538" d="M186 881q35 163 156.5 245t284.5 82h444l-256 -1208h-338l113 535h-111q-159 0 -243.5 91t-49.5 255zM979 0l256 1208h477l-39 -184h-143l-217 -1024h-334z" />
<glyph unicode="&#xb7;" horiz-adv-x="544" d="M139 555q0 80 57 137.5t136 57.5t136.5 -57.5t57.5 -137.5q0 -79 -57 -136t-137 -57t-136.5 57t-56.5 136z" />
<glyph unicode="&#xb8;" horiz-adv-x="528" d="M-74 -147q28 139 158 192l66 -20q-46 -66 -42.5 -97.5t60.5 -31.5h68q63 0 98.5 -32.5t23.5 -90.5q-7 -33 -24.5 -65t-33 -51t-46.5 -52l-84 4q24 49 17 70.5t-50 21.5h-53q-87 0 -129 45t-29 107z" />
<glyph unicode="&#xb9;" horiz-adv-x="677" d="M145 596l21 92h156l86 399h-125l18 82l246 39h104l-112 -520h141l-21 -92h-514z" />
<glyph unicode="&#xba;" horiz-adv-x="835" d="M147 496l25 114h616l-24 -114h-617zM223 961q28 133 131.5 205.5t278.5 72.5q158 0 226.5 -62t41.5 -190q-29 -137 -137.5 -212t-276.5 -75q-162 0 -226.5 68t-37.5 193zM471.5 841q14.5 -36 52.5 -36q40 0 74 48.5t53 129.5q29 147 -51 147q-45 0 -78.5 -44.5 t-48.5 -120.5q-16 -88 -1.5 -124z" />
<glyph unicode="&#xbb;" horiz-adv-x="1662" d="M0 0l485 424l-307 416h453l295 -414l-482 -426h-444zM715 0l485 434l-291 406h441l282 -400l-487 -440h-430z" />
<glyph unicode="&#xbc;" horiz-adv-x="1437" d="M145 596h514l21 92h-141l112 520h-104l-246 -39l-18 -82h125l-86 -399h-156zM254 0l999 1208h193l-1000 -1208h-192zM764 119h352l-24 -119h202l84 395h-84l-164 -186h-118l4 18q4 22 48 68t94 91.5t95.5 106.5t53.5 111h-217q-7 -36 -38.5 -75t-72 -75t-81.5 -74 t-74.5 -85t-43.5 -94z" />
<glyph unicode="&#xbd;" horiz-adv-x="1519" d="M145 596h514l21 92h-141l112 520h-104l-246 -39l-18 -82h125l-86 -399h-156zM254 0l999 1208h193l-1000 -1208h-192zM854 0h522l19 92h-318q6 28 39.5 54.5t143.5 91.5q90 54 143 104.5t67 114.5q17 77 -39 120.5t-171 43.5q-65 0 -139.5 -13t-119.5 -28l-12 -93 q99 23 160 23q49 0 73.5 -15.5t18.5 -45.5q-7 -33 -44 -67t-87 -64.5t-100 -63.5t-90 -77.5t-50 -92.5z" />
<glyph unicode="&#xbe;" horiz-adv-x="1396" d="M156 639l51 82q96 -27 172 -27q63 0 116.5 38.5t53.5 105.5q0 45 -23.5 60t-95.5 15h-125l187 191h-213l22 104h514l-221 -207h20q51 0 85 -36.5t34 -106.5q0 -103 -106.5 -185.5t-243.5 -82.5q-123 0 -227 49zM211 0l999 1208h193l-1000 -1208h-192zM723 119l16 82 q10 47 43.5 94t74.5 85t81.5 74t72 75t38.5 75h217q-8 -50 -53.5 -111t-95.5 -106.5t-94 -91.5t-48 -68l-4 -18h119l163 186h84l-84 -395h-202l24 119h-352z" />
<glyph unicode="&#xbf;" horiz-adv-x="1114" d="M172 225q7 35 20 64t26 50.5t38 42t42 33t53 29.5t56 25.5t66.5 27t69.5 27.5q47 20 66 34t26 44l12 80l385 61q0 -115 -16 -196q-16 -78 -65.5 -114t-205.5 -99q-109 -44 -139 -63.5t-39 -57.5q-9 -47 19.5 -66.5t105.5 -19.5q148 0 342 57l6 -170q-242 -75 -481 -75 q-233 0 -325.5 72t-61.5 214zM666 1016q0 79 57 135.5t137 56.5t136.5 -56.5t56.5 -135.5q0 -80 -57 -137.5t-136 -57.5t-136.5 57.5t-57.5 137.5z" />
<glyph unicode="&#xc0;" horiz-adv-x="1486" d="M20 0l39 188q23 109 51.5 207.5t71 206.5t93.5 198t120.5 172.5t150 139.5t184 91t220.5 34q655 0 432 -1049l-39 -188h-438l74 346h-447l-73 -346h-439zM532 1659h439l127 -313h-285zM569 528h447l4 13q37 174 32 287t-42 167t-103 54q-103 0 -192 -127.5t-142 -380.5z " />
<glyph unicode="&#xc1;" horiz-adv-x="1486" d="M20 0h439l73 346h447l-74 -346h438l39 188q223 1049 -432 1049q-117 0 -220.5 -34t-184 -91t-150 -139.5t-120.5 -172.5t-93.5 -198t-71 -206.5t-51.5 -207.5zM569 528l4 13q53 253 142 380.5t192 127.5q66 0 103 -54t42 -167t-32 -287l-4 -13h-447zM807 1346l258 313 h438l-411 -313h-285z" />
<glyph unicode="&#xc2;" horiz-adv-x="1486" d="M20 0h439l73 346h447l-74 -346h438l39 188q223 1049 -432 1049q-117 0 -220.5 -34t-184 -91t-150 -139.5t-120.5 -172.5t-93.5 -198t-71 -206.5t-51.5 -207.5zM473 1346l442 313h220l311 -313h-346l-115 124l-166 -124h-346zM569 528l4 13q53 253 142 380.5t192 127.5 q66 0 103 -54t42 -167t-32 -287l-4 -13h-447z" />
<glyph unicode="&#xc3;" horiz-adv-x="1486" d="M20 0h439l73 346h447l-74 -346h438l39 188q223 1049 -432 1049q-117 0 -220.5 -34t-184 -91t-150 -139.5t-120.5 -172.5t-93.5 -198t-71 -206.5t-51.5 -207.5zM496 1346q36 168 121 243.5t221 75.5q51 0 104.5 -18t89 -39.5t73 -39.5t62.5 -18q43 0 69.5 23t39.5 86h203 q-35 -170 -120 -245t-216 -75q-49 0 -101.5 18t-89 39.5t-76.5 39.5t-67 18q-44 0 -71 -22.5t-40 -85.5h-202zM569 528l4 13q53 253 142 380.5t192 127.5q66 0 103 -54t42 -167t-32 -287l-4 -13h-447z" />
<glyph unicode="&#xc4;" horiz-adv-x="1486" d="M20 0h439l73 346h447l-74 -346h438l39 188q223 1049 -432 1049q-117 0 -220.5 -34t-184 -91t-150 -139.5t-120.5 -172.5t-93.5 -198t-71 -206.5t-51.5 -207.5zM551 1346l59 278h348l-59 -278h-348zM569 528l4 13q53 253 142 380.5t192 127.5q66 0 103 -54t42 -167 t-32 -287l-4 -13h-447zM1049 1346l59 278h348l-59 -278h-348z" />
<glyph unicode="&#xc5;" horiz-adv-x="1486" d="M20 0l39 188q23 109 51.5 207.5t71 206.5t93.5 198t120.5 172.5t150 139.5t184 91t220.5 34q655 0 432 -1049l-39 -188h-438l74 346h-447l-73 -346h-439zM569 528h447l4 13q37 174 32 287t-42 167t-103 54q-103 0 -192 -127.5t-142 -380.5zM668 1518q0 72 51 123 t134 74.5t189 23.5q310 0 310 -211q0 -106 -103.5 -168t-267.5 -62q-159 0 -236 59t-77 161zM903 1518q0 -34 26 -58t79 -24q51 0 80.5 23t29.5 63q0 36 -25.5 58t-76.5 22q-53 0 -83 -23t-30 -61z" />
<glyph unicode="&#xc6;" horiz-adv-x="2142" d="M25 0q23 124 44.5 218t63.5 227.5t90.5 231.5t126 203.5t170 173t223 111t283.5 43.5h1196l-39 -184h-631l-63 -297h450l-38 -182h-451l-12 -56q-21 -98 -5 -163.5t86 -98t205 -32.5q181 0 297 36l17 -141q-89 -48 -240 -84.5t-319 -36.5q-247 0 -365 89.5t-123 277.5 h-444q-47 -150 -84 -336h-438zM602 518h404l108 508h-53q-70 0 -134.5 -33t-112 -83t-90 -121t-70.5 -135t-52 -136z" />
<glyph unicode="&#xc7;" horiz-adv-x="1351" d="M121.5 398.5q0.5 78.5 19.5 176.5q68 321 282.5 477t606.5 156h385l-39 -184h-295q-108 0 -188 -29.5t-132 -87.5t-84 -129t-52 -168q-28 -135 -9.5 -226t106 -137t253.5 -46q150 0 266 37l16 -142q-220 -121 -542 -121q-33 0 -49 2q-40 -81 49 -81h67q63 0 99 -32.5 t24 -90.5q-7 -33 -24.5 -65t-33 -51t-46.5 -52l-84 4q24 49 17 70.5t-50 21.5h-53q-87 0 -129 45t-29 107q15 79 68 135q-74 10 -135 30t-115 53t-89.5 78.5t-58 108t-22 141z" />
<glyph unicode="&#xc8;" horiz-adv-x="1345" d="M176 1024l39 184h1221l-39 -184h-631l-64 -297h451l-39 -182h-450l-7 -29q-22 -105 -9.5 -175t83.5 -105t211 -35q177 0 293 37l16 -142q-87 -48 -238 -84.5t-319 -36.5q-307 0 -417 144t-46 448l99 457h-154zM442 1659h439l127 -313h-285z" />
<glyph unicode="&#xc9;" horiz-adv-x="1345" d="M176 1024h154l-99 -457q-64 -304 46 -448t417 -144q168 0 319 36.5t238 84.5l-16 142q-116 -37 -293 -37q-140 0 -211 35t-83.5 105t9.5 175l7 29h450l39 182h-451l64 297h631l39 184h-1221zM717 1346l258 313h438l-412 -313h-284z" />
<glyph unicode="&#xca;" horiz-adv-x="1345" d="M176 1024h154l-99 -457q-64 -304 46 -448t417 -144q168 0 319 36.5t238 84.5l-16 142q-116 -37 -293 -37q-140 0 -211 35t-83.5 105t9.5 175l7 29h450l39 182h-451l64 297h631l39 184h-1221zM383 1346l442 313h219l312 -313h-346l-115 124l-166 -124h-346z" />
<glyph unicode="&#xcb;" horiz-adv-x="1345" d="M176 1024h154l-99 -457q-64 -304 46 -448t417 -144q168 0 319 36.5t238 84.5l-16 142q-116 -37 -293 -37q-140 0 -211 35t-83.5 105t9.5 175l7 29h450l39 182h-451l64 297h631l39 184h-1221zM461 1346l59 278h348l-59 -278h-348zM958 1346l60 278h348l-59 -278h-349z" />
<glyph unicode="&#xcc;" horiz-adv-x="743" d="M113 0l217 1024h-154l39 184h590l-256 -1208h-436zM162 1659h438l127 -313h-285z" />
<glyph unicode="&#xcd;" horiz-adv-x="743" d="M113 0h436l256 1208h-590l-39 -184h154zM436 1346l258 313h439l-412 -313h-285z" />
<glyph unicode="&#xce;" horiz-adv-x="743" d="M102 1346l443 313h219l311 -313h-346l-115 124l-165 -124h-347zM113 0h436l256 1208h-590l-39 -184h154z" />
<glyph unicode="&#xcf;" horiz-adv-x="743" d="M113 0h436l256 1208h-590l-39 -184h154zM180 1346l60 278h348l-60 -278h-348zM678 1346l59 278h348l-59 -278h-348z" />
<glyph unicode="&#xd0;" horiz-adv-x="1628" d="M51 0l105 492h-103l47 225h103l65 307h-153l39 184h755q215 0 355.5 -35t215 -106.5t91.5 -181t-15 -258.5q-71 -333 -289.5 -480t-625.5 -147h-590zM528 195h177q74 0 129 28.5t93.5 88.5t64 133.5t48.5 181.5q26 128 28.5 216.5t-41.5 134.5t-142 46h-180l-66 -307h276 l-47 -225h-276z" />
<glyph unicode="&#xd1;" horiz-adv-x="1607" d="M113 0h436l147 700l346 -700h371l256 1208h-440l-131 -612l-293 612h-590l-39 -184h154zM578 1346q36 168 121 243.5t221 75.5q51 0 104.5 -18t89 -39.5t73 -39.5t62.5 -18q43 0 69.5 23t39.5 86h203q-35 -170 -120 -245t-216 -75q-49 0 -101.5 18t-89 39.5t-76.5 39.5 t-67 18q-44 0 -71 -22.5t-40 -85.5h-202z" />
<glyph unicode="&#xd2;" horiz-adv-x="1626" d="M147 602q24 114 65.5 206t111.5 173t165 135.5t230 85.5t303 31q161 0 279 -28.5t188 -81.5t107.5 -129.5t37.5 -173t-22 -210.5q-44 -208 -146 -346t-283 -213.5t-442 -75.5q-367 0 -514.5 152t-79.5 475zM610 275q37 -111 178 -111q144 0 222.5 109.5t124.5 332.5 q51 224 17 331t-173 107q-143 0 -225 -106t-131 -332q-50 -220 -13 -331zM618 1659h439l127 -313h-285z" />
<glyph unicode="&#xd3;" horiz-adv-x="1626" d="M147 602q24 114 65.5 206t111.5 173t165 135.5t230 85.5t303 31q161 0 279 -28.5t188 -81.5t107.5 -129.5t37.5 -173t-22 -210.5q-44 -208 -146 -346t-283 -213.5t-442 -75.5q-367 0 -514.5 152t-79.5 475zM610 275q37 -111 178 -111q144 0 222.5 109.5t124.5 332.5 q51 224 17 331t-173 107q-143 0 -225 -106t-131 -332q-50 -220 -13 -331zM893 1346l258 313h438l-411 -313h-285z" />
<glyph unicode="&#xd4;" horiz-adv-x="1626" d="M147 602q24 114 65.5 206t111.5 173t165 135.5t230 85.5t303 31q161 0 279 -28.5t188 -81.5t107.5 -129.5t37.5 -173t-22 -210.5q-44 -208 -146 -346t-283 -213.5t-442 -75.5q-367 0 -514.5 152t-79.5 475zM559 1346l442 313h220l311 -313h-346l-115 124l-166 -124h-346z M610 275q37 -111 178 -111q144 0 222.5 109.5t124.5 332.5q51 224 17 331t-173 107q-143 0 -225 -106t-131 -332q-50 -220 -13 -331z" />
<glyph unicode="&#xd5;" horiz-adv-x="1626" d="M147 602q24 114 65.5 206t111.5 173t165 135.5t230 85.5t303 31q161 0 279 -28.5t188 -81.5t107.5 -129.5t37.5 -173t-22 -210.5q-44 -208 -146 -346t-283 -213.5t-442 -75.5q-367 0 -514.5 152t-79.5 475zM582 1346q36 168 121 243.5t221 75.5q51 0 104.5 -18t89 -39.5 t73 -39.5t62.5 -18q43 0 69.5 23t39.5 86h203q-35 -170 -120 -245t-216 -75q-49 0 -101.5 18t-89 39.5t-76.5 39.5t-67 18q-44 0 -71 -22.5t-40 -85.5h-202zM610 275q37 -111 178 -111q144 0 222.5 109.5t124.5 332.5q51 224 17 331t-173 107q-143 0 -225 -106t-131 -332 q-50 -220 -13 -331z" />
<glyph unicode="&#xd6;" horiz-adv-x="1626" d="M147 602q24 114 65.5 206t111.5 173t165 135.5t230 85.5t303 31q161 0 279 -28.5t188 -81.5t107.5 -129.5t37.5 -173t-22 -210.5q-44 -208 -146 -346t-283 -213.5t-442 -75.5q-367 0 -514.5 152t-79.5 475zM610 275q37 -111 178 -111q144 0 222.5 109.5t124.5 332.5 q51 224 17 331t-173 107q-143 0 -225 -106t-131 -332q-50 -220 -13 -331zM637 1346l59 278h348l-59 -278h-348zM1135 1346l59 278h348l-59 -278h-348z" />
<glyph unicode="&#xd7;" horiz-adv-x="1388" d="M121 193l416 344l-283 346l256 211l283 -346l417 346l185 -232l-416 -342l287 -350l-252 -211l-289 350l-426 -350z" />
<glyph unicode="&#xd8;" horiz-adv-x="1626" d="M86 602q24 114 65.5 206t111.5 173t165 135.5t230 85.5t303 31q105 0 188 -12l170 237h227l-205 -287q159 -69 205.5 -210t3.5 -351q-67 -315 -275 -475t-595 -160q-93 0 -182 13l-168 -240h-228l203 287q-312 128 -219 567zM535 354l477 674q-40 16 -94 16 q-143 0 -225.5 -106t-131.5 -332q-33 -141 -26 -252zM635 178q38 -14 92 -14q144 0 222 109.5t124 332.5q31 158 31 230z" />
<glyph unicode="&#xd9;" horiz-adv-x="1566" d="M164 436l164 772h440l-172 -809q-27 -129 19.5 -182t148.5 -53q100 0 162 52t90 183l172 809h440l-164 -772q-50 -233 -231 -347t-512 -114q-345 0 -476 113.5t-81 347.5zM571 1659h439l127 -313h-285z" />
<glyph unicode="&#xda;" horiz-adv-x="1566" d="M164 436q-50 -234 81 -347.5t476 -113.5q331 0 512 114t231 347l164 772h-440l-172 -809q-28 -131 -90 -183t-162 -52q-102 0 -148.5 53t-19.5 182l172 809h-440zM846 1346l258 313h438l-412 -313h-284z" />
<glyph unicode="&#xdb;" horiz-adv-x="1566" d="M164 436q-50 -234 81 -347.5t476 -113.5q331 0 512 114t231 347l164 772h-440l-172 -809q-28 -131 -90 -183t-162 -52q-102 0 -148.5 53t-19.5 182l172 809h-440zM512 1346l442 313h220l311 -313h-346l-115 124l-166 -124h-346z" />
<glyph unicode="&#xdc;" horiz-adv-x="1566" d="M164 436q-50 -234 81 -347.5t476 -113.5q331 0 512 114t231 347l164 772h-440l-172 -809q-28 -131 -90 -183t-162 -52q-102 0 -148.5 53t-19.5 182l172 809h-440zM590 1346l59 278h348l-59 -278h-348zM1087 1346l60 278h348l-59 -278h-349z" />
<glyph unicode="&#xdd;" horiz-adv-x="1529" d="M158 72l80 157q147 -45 346 -45q180 0 272.5 67t134.5 202q-166 -56 -329 -56q-225 0 -322 110t-55 308l45 209h-154l39 184h590l-98 -465q-15 -72 22.5 -104.5t136.5 -32.5q68 0 164 15l125 587h436l-139 -651q-63 -298 -248.5 -440t-509.5 -142q-174 0 -322.5 30.5 t-213.5 66.5zM850 1346l258 313h438l-411 -313h-285z" />
<glyph unicode="&#xde;" horiz-adv-x="1531" d="M113 0l217 1024h-154l39 184h590l-39 -184h317q105 0 184.5 -23t135.5 -72.5t73 -127t-3 -185.5q-31 -148 -124.5 -250t-226 -149t-297.5 -47h-241l-35 -170h-436zM627 373h135q117 0 197 60.5t106 176.5q25 120 -35.5 175t-195.5 55h-107z" />
<glyph unicode="&#xdf;" horiz-adv-x="1357" d="M37 0l174 821q48 224 200 321t410 97q240 0 376 -69t114 -175q-7 -30 -22 -56t-46.5 -55t-55 -47t-75.5 -55q-79 -55 -96 -76q-12 -15 -15 -28q-4 -20 16.5 -40t88.5 -67q69 -49 111 -87t61 -70t24 -53.5t5 -53.5q0 -108 -62.5 -186.5t-159.5 -115t-215 -36.5 q-86 0 -160 13t-111.5 26.5t-82.5 34.5l94 147q97 -51 195 -51q41 0 67 12.5t31 34.5q6 29 -2.5 46t-43 44t-132.5 91q-72 46 -94 96t-8 121q12 55 38 97.5t74 88.5q27 26 79.5 71t75 71.5t28.5 56.5q8 41 -20 61.5t-75 20.5q-155 0 -198 -201l-181 -850h-407z" />
<glyph unicode="&#xe0;" horiz-adv-x="1351" d="M110.5 208.5q-16.5 80.5 4.5 192.5q20 94 64.5 172.5t103 131.5t130 90t146 54t150.5 17q159 0 290 -41l297 35l-129 -606q-17 -86 54 -86q24 0 65 16l27 -118q-72 -44 -137.5 -65t-147.5 -21q-181 0 -240 98q-145 -103 -321 -103q-91 0 -163.5 24.5t-124.5 76.5 t-68.5 132.5zM406 1337h438l127 -313h-285zM530 416q-27 -121 0.5 -172t102.5 -51q60 0 127 36q3 39 12 86l72 338q-57 11 -90 11q-171 0 -224 -248z" />
<glyph unicode="&#xe1;" horiz-adv-x="1351" d="M110.5 208.5q16.5 -80.5 68.5 -132.5t124.5 -76.5t163.5 -24.5q176 0 321 103q59 -98 240 -98q82 0 147.5 21t137.5 65l-27 118q-41 -16 -65 -16q-71 0 -54 86l129 606l-297 -35q-131 41 -290 41q-76 0 -150.5 -17t-146 -54t-130 -90t-103 -131.5t-64.5 -172.5 q-21 -112 -4.5 -192.5zM530 416q53 248 224 248q33 0 90 -11l-72 -338q-9 -47 -12 -86q-67 -36 -127 -36q-75 0 -102.5 51t-0.5 172zM680 1024l258 313h438l-411 -313h-285z" />
<glyph unicode="&#xe2;" horiz-adv-x="1351" d="M110.5 208.5q16.5 -80.5 68.5 -132.5t124.5 -76.5t163.5 -24.5q176 0 321 103q59 -98 240 -98q82 0 147.5 21t137.5 65l-27 118q-41 -16 -65 -16q-71 0 -54 86l129 606l-297 -35q-131 41 -290 41q-76 0 -150.5 -17t-146 -54t-130 -90t-103 -131.5t-64.5 -172.5 q-21 -112 -4.5 -192.5zM346 1024l442 313h220l311 -313h-346l-115 125l-166 -125h-346zM530 416q53 248 224 248q33 0 90 -11l-72 -338q-9 -47 -12 -86q-67 -36 -127 -36q-75 0 -102.5 51t-0.5 172z" />
<glyph unicode="&#xe3;" horiz-adv-x="1351" d="M110.5 208.5q16.5 -80.5 68.5 -132.5t124.5 -76.5t163.5 -24.5q176 0 321 103q59 -98 240 -98q82 0 147.5 21t137.5 65l-27 118q-41 -16 -65 -16q-71 0 -54 86l129 606l-297 -35q-131 41 -290 41q-76 0 -150.5 -17t-146 -54t-130 -90t-103 -131.5t-64.5 -172.5 q-21 -112 -4.5 -192.5zM369 1024q36 168 121 243.5t221 75.5q65 0 131 -28.5t117 -57t81 -28.5q43 0 69.5 22.5t39.5 85.5h203q-35 -170 -120 -244.5t-216 -74.5q-62 0 -128 29t-120 57.5t-86 28.5q-44 0 -71 -23t-40 -86h-202zM530 416q53 248 224 248q33 0 90 -11 l-72 -338q-9 -47 -12 -86q-67 -36 -127 -36q-75 0 -102.5 51t-0.5 172z" />
<glyph unicode="&#xe4;" horiz-adv-x="1351" d="M110.5 208.5q16.5 -80.5 68.5 -132.5t124.5 -76.5t163.5 -24.5q176 0 321 103q59 -98 240 -98q82 0 147.5 21t137.5 65l-27 118q-41 -16 -65 -16q-71 0 -54 86l129 606l-297 -35q-131 41 -290 41q-76 0 -150.5 -17t-146 -54t-130 -90t-103 -131.5t-64.5 -172.5 q-21 -112 -4.5 -192.5zM424 1024l59 279h348l-59 -279h-348zM530 416q53 248 224 248q33 0 90 -11l-72 -338q-9 -47 -12 -86q-67 -36 -127 -36q-75 0 -102.5 51t-0.5 172zM922 1024l59 279h348l-59 -279h-348z" />
<glyph unicode="&#xe5;" horiz-adv-x="1351" d="M110.5 208.5q-16.5 80.5 4.5 192.5q20 94 64.5 172.5t103 131.5t130 90t146 54t150.5 17q159 0 290 -41l297 35l-129 -606q-17 -86 54 -86q24 0 65 16l27 -118q-72 -44 -137.5 -65t-147.5 -21q-181 0 -240 98q-145 -103 -321 -103q-91 0 -163.5 24.5t-124.5 76.5 t-68.5 132.5zM530 416q-27 -121 0.5 -172t102.5 -51q60 0 127 36q3 39 12 86l72 338q-57 11 -90 11q-171 0 -224 -248zM541 1196q0 72 51 123t134 74.5t189 23.5q310 0 310 -211q0 -105 -103.5 -167t-267.5 -62q-159 0 -236 58.5t-77 160.5zM776 1196q0 -34 26 -58t79 -24 q51 0 80.5 23t29.5 63q0 36 -25.5 58t-76.5 22q-53 0 -83 -23t-30 -61z" />
<glyph unicode="&#xe6;" horiz-adv-x="1865" d="M68 258q21 97 89.5 159t207.5 96t354 34q6 0 20 -1t21 -1q-2 74 -43 104.5t-139 30.5q-128 0 -289 -37l-17 156q227 67 486 67q200 0 301 -63q144 63 366 63q244 0 344.5 -74.5t71.5 -205.5q-33 -154 -203.5 -225.5t-482.5 -77.5q4 -72 41.5 -96.5t130.5 -24.5 q143 0 297 41l27 -135q-91 -43 -224 -70t-270 -27q-167 0 -278 54q-139 -54 -357 -54q-252 0 -368.5 68t-85.5 219zM444 272q-12 -58 13.5 -91.5t87.5 -33.5q77 0 121 47.5t67 157.5l15 70q-155 -4 -222 -38.5t-82 -111.5zM1161 416q138 6 212.5 41.5t92.5 115.5 q11 54 -13.5 86.5t-78.5 32.5q-85 0 -139.5 -74t-73.5 -202z" />
<glyph unicode="&#xe7;" horiz-adv-x="1015" d="M117 412q47 216 197 335t395 119q183 0 325 -71l-71 -133q-114 30 -172 30q-104 0 -163 -64.5t-91 -213.5q-29 -140 0.5 -194t130.5 -54q97 0 213 41l28 -123q-187 -109 -413 -109h-15q-40 -79 49 -79h68q63 0 99 -32.5t24 -90.5q-7 -33 -25 -65t-33 -50.5t-47 -52.5 l-84 4q24 49 17.5 70.5t-49.5 21.5h-54q-87 0 -128.5 45t-28.5 107q15 84 69 135q-158 32 -218 140.5t-23 283.5z" />
<glyph unicode="&#xe8;" horiz-adv-x="1236" d="M117 408q49 231 198 344.5t441 113.5q248 0 366 -76t90 -204q-33 -154 -203.5 -225.5t-484.5 -77.5q6 -71 44 -96t122 -25q151 0 305 41l27 -135q-206 -97 -447 -97q-278 0 -390 113.5t-68 323.5zM344 1337h438l127 -313h-284zM535 416q136 6 210.5 41.5t92.5 115.5 q11 54 -13.5 86.5t-81.5 32.5q-83 0 -135 -72.5t-73 -203.5z" />
<glyph unicode="&#xe9;" horiz-adv-x="1236" d="M117 408q49 231 198 344.5t441 113.5q248 0 366 -76t90 -204q-33 -154 -203.5 -225.5t-484.5 -77.5q6 -71 44 -96t122 -25q151 0 305 41l27 -135q-206 -97 -447 -97q-278 0 -390 113.5t-68 323.5zM535 416q136 6 210.5 41.5t92.5 115.5q11 54 -13.5 86.5t-81.5 32.5 q-83 0 -135 -72.5t-73 -203.5zM618 1024l259 313h438l-412 -313h-285z" />
<glyph unicode="&#xea;" horiz-adv-x="1236" d="M117 408q49 231 198 344.5t441 113.5q248 0 366 -76t90 -204q-33 -154 -203.5 -225.5t-484.5 -77.5q6 -71 44 -96t122 -25q151 0 305 41l27 -135q-206 -97 -447 -97q-278 0 -390 113.5t-68 323.5zM285 1024l442 313h219l311 -313h-346l-114 125l-166 -125h-346zM535 416 q136 6 210.5 41.5t92.5 115.5q11 54 -13.5 86.5t-81.5 32.5q-83 0 -135 -72.5t-73 -203.5z" />
<glyph unicode="&#xeb;" horiz-adv-x="1236" d="M117 408q49 231 198 344.5t441 113.5q248 0 366 -76t90 -204q-33 -154 -203.5 -225.5t-484.5 -77.5q6 -71 44 -96t122 -25q151 0 305 41l27 -135q-206 -97 -447 -97q-278 0 -390 113.5t-68 323.5zM362 1024l60 279h348l-59 -279h-349zM535 416q136 6 210.5 41.5 t92.5 115.5q11 54 -13.5 86.5t-81.5 32.5q-83 0 -135 -72.5t-73 -203.5zM860 1024l60 279h348l-60 -279h-348z" />
<glyph unicode="&#xec;" horiz-adv-x="712" d="M63 1337h439l127 -313h-285zM115 315l114 496l418 49l-123 -532q-21 -89 -13 -124.5t50 -35.5q20 0 66 16l26 -118q-70 -43 -135.5 -64.5t-148.5 -21.5q-329 0 -254 335z" />
<glyph unicode="&#xed;" horiz-adv-x="712" d="M115 315q-75 -335 254 -335q83 0 148.5 21.5t135.5 64.5l-26 118q-46 -16 -66 -16q-42 0 -50 35.5t13 124.5l123 532l-418 -49zM338 1024l258 313h438l-411 -313h-285z" />
<glyph unicode="&#xee;" horiz-adv-x="712" d="M4 1024l442 313h220l311 -313h-346l-115 125l-166 -125h-346zM115 315q-75 -335 254 -335q83 0 148.5 21.5t135.5 64.5l-26 118q-46 -16 -66 -16q-42 0 -50 35.5t13 124.5l123 532l-418 -49z" />
<glyph unicode="&#xef;" horiz-adv-x="712" d="M82 1024l59 279h348l-59 -279h-348zM115 315q-75 -335 254 -335q83 0 148.5 21.5t135.5 64.5l-26 118q-46 -16 -66 -16q-42 0 -50 35.5t13 124.5l123 532l-418 -49zM580 1024l59 279h348l-59 -279h-348z" />
<glyph unicode="&#xf0;" d="M109 387q39 186 178 275.5t364 89.5q186 0 279 -84q13 124 -2.5 202t-67.5 119l-250 -158l-121 95l177 112q-149 -3 -299 -37l20 189q71 21 184.5 35t223.5 14q81 0 159 -16l197 125l123 -95l-156 -98q126 -85 170 -241.5t0 -368.5q-122 -576 -696 -576 q-263 0 -393.5 113t-89.5 305zM471 350q-17 -78 19 -132.5t133 -57.5q115 -3 178.5 65.5t97.5 227.5q-53 127 -201 127q-91 0 -146 -54t-81 -176z" />
<glyph unicode="&#xf1;" horiz-adv-x="1335" d="M61 0l172 811l418 49l-20 -92q176 92 338 92q145 0 216.5 -77.5t37.5 -221.5l-56 -233q-19 -66 -15.5 -101.5t16 -47t36.5 -11.5t66 16l26 -118q-141 -86 -286 -86q-56 0 -101 10t-83.5 33.5t-58 62t-25 95.5t15.5 134l53 222q10 32 -6 64t-64 32q-71 0 -153 -70 l-119 -563h-408zM291 1024q36 168 121 243.5t221 75.5q51 0 104.5 -18t89.5 -39t73.5 -39t62.5 -18q43 0 69 22.5t39 85.5h203q-35 -170 -120 -244.5t-216 -74.5q-62 0 -128 29t-120 57.5t-86 28.5q-44 0 -70.5 -23t-39.5 -86h-203z" />
<glyph unicode="&#xf2;" horiz-adv-x="1302" d="M115 403q49 228 202 345.5t439 117.5q268 0 399.5 -104.5t87.5 -315.5q-102 -475 -647 -475q-274 0 -398.5 114.5t-82.5 317.5zM350 1337h438l127 -313h-284zM516 255q9 -59 34 -85.5t64 -26.5q69 0 126 81.5t85 217.5q54 246 -82 246q-75 0 -131.5 -75t-83.5 -203 q-21 -96 -12 -155z" />
<glyph unicode="&#xf3;" horiz-adv-x="1302" d="M115 403q-42 -203 82.5 -317.5t398.5 -114.5q545 0 647 475q44 211 -87.5 315.5t-399.5 104.5q-286 0 -439 -117.5t-202 -345.5zM516 255q-9 59 12 155q27 128 83.5 203t131.5 75q136 0 82 -246q-28 -136 -85 -217.5t-126 -81.5q-39 0 -64 26.5t-34 85.5zM625 1024 l258 313h438l-412 -313h-284z" />
<glyph unicode="&#xf4;" horiz-adv-x="1302" d="M115 403q-42 -203 82.5 -317.5t398.5 -114.5q545 0 647 475q44 211 -87.5 315.5t-399.5 104.5q-286 0 -439 -117.5t-202 -345.5zM291 1024l442 313h219l312 -313h-346l-115 125l-166 -125h-346zM516 255q-9 59 12 155q27 128 83.5 203t131.5 75q136 0 82 -246 q-28 -136 -85 -217.5t-126 -81.5q-39 0 -64 26.5t-34 85.5z" />
<glyph unicode="&#xf5;" horiz-adv-x="1302" d="M115 403q-42 -203 82.5 -317.5t398.5 -114.5q545 0 647 475q44 211 -87.5 315.5t-399.5 104.5q-286 0 -439 -117.5t-202 -345.5zM313 1024q36 168 121 243.5t221 75.5q51 0 104.5 -18t89.5 -39t73.5 -39t62.5 -18q43 0 69.5 22.5t39.5 85.5h202q-35 -170 -119.5 -244.5 t-215.5 -74.5q-62 0 -128 29t-120 57.5t-86 28.5q-44 0 -71 -23t-40 -86h-203zM516 255q-9 59 12 155q27 128 83.5 203t131.5 75q136 0 82 -246q-28 -136 -85 -217.5t-126 -81.5q-39 0 -64 26.5t-34 85.5z" />
<glyph unicode="&#xf6;" horiz-adv-x="1302" d="M115 403q-42 -203 82.5 -317.5t398.5 -114.5q545 0 647 475q44 211 -87.5 315.5t-399.5 104.5q-286 0 -439 -117.5t-202 -345.5zM369 1024l59 279h348l-59 -279h-348zM516 255q-9 59 12 155q27 128 83.5 203t131.5 75q136 0 82 -246q-28 -136 -85 -217.5t-126 -81.5 q-39 0 -64 26.5t-34 85.5zM866 1024l60 279h348l-60 -279h-348z" />
<glyph unicode="&#xf7;" horiz-adv-x="1218" d="M150 424h972l49 225h-972zM416 0l49 240h264l-49 -240h-264zM592 831l51 240h264l-51 -240h-264z" />
<glyph unicode="&#xf8;" horiz-adv-x="1302" d="M37 -252l203 272q-120 51 -167.5 148.5t-19.5 234.5q49 228 202 345.5t439 117.5q86 0 160 -12l178 240h166l-203 -275q117 -47 166.5 -140.5t20.5 -232.5q-102 -475 -647 -475q-82 0 -158 13l-174 -236h-166zM453 309l272 371q-16 8 -43 8q-75 0 -131.5 -75t-83.5 -203 q-14 -68 -14 -101zM504 156q18 -13 49 -13q69 0 126 81.5t85 217.5q9 47 12 80z" />
<glyph unicode="&#xf9;" horiz-adv-x="1343" d="M127 315l106 496l418 49l-112 -532q-15 -73 2.5 -106.5t72.5 -33.5q75 0 138 45q3 37 12 82l106 496l418 49l-129 -606q-17 -86 53 -86q25 0 66 16l27 -118q-72 -44 -137.5 -65t-147.5 -21q-188 0 -244 106q-167 -106 -377 -106q-173 0 -240.5 79.5t-31.5 255.5z M379 1337h438l127 -313h-285z" />
<glyph unicode="&#xfa;" horiz-adv-x="1343" d="M127 315l106 496l418 49l-112 -532q-15 -73 2.5 -106.5t72.5 -33.5q75 0 138 45q3 37 12 82l106 496l418 49l-129 -606q-17 -86 53 -86q25 0 66 16l27 -118q-72 -44 -137.5 -65t-147.5 -21q-188 0 -244 106q-167 -106 -377 -106q-173 0 -240.5 79.5t-31.5 255.5z M653 1024l258 313h439l-412 -313h-285z" />
<glyph unicode="&#xfb;" horiz-adv-x="1343" d="M127 315l106 496l418 49l-112 -532q-15 -73 2.5 -106.5t72.5 -33.5q75 0 138 45q3 37 12 82l106 496l418 49l-129 -606q-17 -86 53 -86q25 0 66 16l27 -118q-72 -44 -137.5 -65t-147.5 -21q-188 0 -244 106q-167 -106 -377 -106q-173 0 -240.5 79.5t-31.5 255.5z M319 1024l443 313h219l311 -313h-346l-115 125l-165 -125h-347z" />
<glyph unicode="&#xfc;" horiz-adv-x="1343" d="M127 315l106 496l418 49l-112 -532q-15 -73 2.5 -106.5t72.5 -33.5q75 0 138 45q3 37 12 82l106 496l418 49l-129 -606q-17 -86 53 -86q25 0 66 16l27 -118q-72 -44 -137.5 -65t-147.5 -21q-188 0 -244 106q-167 -106 -377 -106q-173 0 -240.5 79.5t-31.5 255.5z M397 1024l60 279h348l-60 -279h-348zM895 1024l59 279h349l-60 -279h-348z" />
<glyph unicode="&#xfd;" horiz-adv-x="1161" d="M88 807l291 -864q-28 -49 -60.5 -81t-70 -46t-69 -18.5t-75.5 -4.5l33 -199q124 0 243.5 59.5t199.5 170.5l727 1012h-273l-352 -502l-152 526zM606 1024l258 313h439l-412 -313h-285z" />
<glyph unicode="&#xfe;" horiz-adv-x="1318" d="M-29 -422l312 1466h-133l34 164l549 39l-104 -495q60 43 146.5 71.5t176.5 28.5q47 0 90 -8.5t84.5 -28t71 -51t50.5 -77.5t22.5 -107t-13.5 -140q-45 -219 -207.5 -343t-428.5 -124q-89 0 -156 13l-76 -359zM508 188q58 -20 108 -20q83 0 141 62t83 176q45 212 -109 212 q-71 0 -141 -47z" />
<glyph unicode="&#xff;" horiz-adv-x="1161" d="M88 807l291 -864q-28 -49 -60.5 -81t-70 -46t-69 -18.5t-75.5 -4.5l33 -199q124 0 243.5 59.5t199.5 170.5l727 1012h-273l-352 -502l-152 526zM350 1024l60 279h348l-60 -279h-348zM848 1024l59 279h348l-59 -279h-348z" />
<glyph unicode="&#x152;" horiz-adv-x="2119" d="M121.5 347q-9.5 102 21.5 237q25 117 66.5 209.5t111 171.5t164.5 131.5t229.5 82t303.5 29.5h1182l-39 -184h-631l-64 -297h451l-39 -182h-451l-8 -39q-21 -104 -8 -173t83 -103.5t208 -34.5q181 0 297 36l16 -141q-89 -48 -240 -84.5t-319 -36.5q-250 0 -366 94 q-63 -38 -162.5 -66t-208.5 -28q-142 0 -247.5 20.5t-183.5 66t-117.5 117.5t-49 174zM607.5 263q37.5 -105 178.5 -105q116 0 199 67q-36 121 8 332l101 467h-119q-144 0 -225.5 -105.5t-128.5 -330.5q-51 -220 -13.5 -325z" />
<glyph unicode="&#x153;" horiz-adv-x="1937" d="M115 403q48 223 219.5 343t462.5 120q212 0 325 -67q149 67 375 67q244 0 344.5 -74.5t71.5 -205.5q-33 -154 -203.5 -225.5t-482.5 -77.5q4 -72 41.5 -96.5t130.5 -24.5q143 0 297 41l26 -135q-91 -43 -223.5 -70t-269.5 -27q-198 0 -307 70q-159 -70 -367 -70 q-269 0 -376 112.5t-64 319.5zM516 255q9 -59 34 -85.5t64 -26.5q63 0 117.5 70t83.5 188q0 1 1 3.5t1 3.5q5 31 8 41q51 239 -82 239q-75 0 -131.5 -75t-83.5 -203q-21 -96 -12 -155zM1235 416q135 6 210 42t93 115q11 54 -13.5 86.5t-78.5 32.5q-69 0 -119.5 -52 t-75.5 -142q-5 -37 -8 -52z" />
<glyph unicode="&#x178;" horiz-adv-x="1529" d="M158 72l80 157q147 -45 346 -45q180 0 272.5 67t134.5 202q-166 -56 -329 -56q-225 0 -322 110t-55 308l45 209h-154l39 184h590l-98 -465q-15 -72 22.5 -104.5t136.5 -32.5q68 0 164 15l125 587h436l-139 -651q-63 -298 -248.5 -440t-509.5 -142q-174 0 -322.5 30.5 t-213.5 66.5zM594 1346l59 278h348l-59 -278h-348zM1092 1346l59 278h348l-59 -278h-348z" />
<glyph unicode="&#x2c6;" horiz-adv-x="589" d="M94 879l443 313h219l311 -313h-346l-115 125l-166 -125h-346z" />
<glyph unicode="&#x2dc;" horiz-adv-x="1038" d="M211 879q36 168 121 243.5t221 75.5q65 0 131.5 -29t117.5 -57.5t81 -28.5q43 0 69 23t39 86h203q-35 -170 -120 -245t-216 -75q-62 0 -128 29t-120 57.5t-86 28.5q-44 0 -70.5 -22.5t-39.5 -85.5h-203z" />
<glyph unicode="&#x2000;" horiz-adv-x="869" />
<glyph unicode="&#x2001;" horiz-adv-x="1739" />
<glyph unicode="&#x2002;" horiz-adv-x="869" />
<glyph unicode="&#x2003;" horiz-adv-x="1739" />
<glyph unicode="&#x2004;" horiz-adv-x="579" />
<glyph unicode="&#x2005;" horiz-adv-x="434" />
<glyph unicode="&#x2006;" horiz-adv-x="289" />
<glyph unicode="&#x2007;" horiz-adv-x="289" />
<glyph unicode="&#x2008;" horiz-adv-x="217" />
<glyph unicode="&#x2009;" horiz-adv-x="347" />
<glyph unicode="&#x200a;" horiz-adv-x="96" />
<glyph unicode="&#x2010;" horiz-adv-x="849" d="M127 360l51 244h645l-92 -244h-604z" />
<glyph unicode="&#x2011;" horiz-adv-x="849" d="M127 360l51 244h645l-92 -244h-604z" />
<glyph unicode="&#x2012;" horiz-adv-x="849" d="M127 360l51 244h645l-92 -244h-604z" />
<glyph unicode="&#x2013;" horiz-adv-x="993" d="M127 360l51 244h789l-93 -244h-747z" />
<glyph unicode="&#x2014;" horiz-adv-x="1177" d="M127 360l51 244h973l-92 -244h-932z" />
<glyph unicode="&#x2018;" horiz-adv-x="591" d="M221 844q0 27 4 39q15 75 46.5 135.5t70.5 100.5t87.5 69t94 44t94.5 21l41 -92q-71 -26 -108.5 -59t-50.5 -86q48 -24 78 -70t30 -102q0 -80 -56.5 -137.5t-135.5 -57.5q-80 0 -137.5 57.5t-57.5 137.5z" />
<glyph unicode="&#x2019;" horiz-adv-x="591" d="M211 741q68 24 106.5 58t51.5 86q-48 25 -77.5 71.5t-29.5 102.5q0 80 57 137t136 57t136.5 -57.5t57.5 -136.5q0 -15 -4 -39q-19 -92 -61.5 -163t-99 -112.5t-113.5 -64.5t-119 -31z" />
<glyph unicode="&#x201a;" horiz-adv-x="591" d="M20 -156q69 26 107 59.5t51 86.5q-48 24 -77 70t-29 102q0 80 56.5 137t135.5 57q80 0 137.5 -57.5t57.5 -136.5q0 -15 -4 -39q-15 -75 -47 -135.5t-71 -101t-87.5 -69.5t-94 -44t-94.5 -21z" />
<glyph unicode="&#x201c;" horiz-adv-x="1093" d="M221 844q0 27 4 39q15 75 46.5 135.5t70.5 100.5t87.5 69t94 44t94.5 21l41 -92q-71 -26 -108.5 -59t-50.5 -86q48 -24 78 -70t30 -102q0 -80 -56.5 -137.5t-135.5 -57.5q-80 0 -137.5 57.5t-57.5 137.5zM723 844q0 27 4 39q15 75 46.5 135.5t70.5 100.5t87.5 69t94 44 t94.5 21l41 -92q-71 -26 -109 -59t-51 -86q49 -24 79 -70t30 -102q0 -80 -56.5 -137.5t-135.5 -57.5q-80 0 -137.5 57.5t-57.5 137.5z" />
<glyph unicode="&#x201d;" horiz-adv-x="1093" d="M211 741q68 24 106.5 58t51.5 86q-48 25 -77.5 71.5t-29.5 102.5q0 80 57 137t136 57t136.5 -57.5t57.5 -136.5q0 -15 -4 -39q-19 -92 -61.5 -163t-99 -112.5t-113.5 -64.5t-119 -31zM713 741q68 24 106 57.5t51 86.5q-48 25 -77 71.5t-29 102.5q0 80 56.5 137t135.5 57 q80 0 137.5 -57.5t57.5 -136.5q0 -15 -4 -39q-19 -92 -61.5 -163t-99 -112.5t-113.5 -64.5t-119 -31z" />
<glyph unicode="&#x201e;" horiz-adv-x="1093" d="M23 -156q69 26 106.5 59.5t50.5 86.5q-48 24 -77 70t-29 102q0 80 56.5 137t135.5 57q80 0 137.5 -57.5t57.5 -136.5q0 -15 -4 -39q-15 -75 -47 -135.5t-71 -101t-87.5 -69.5t-94 -44t-94.5 -21zM524 -156q69 26 107 59.5t51 86.5q-48 24 -77.5 70t-29.5 102q0 80 57 137 t136 57q80 0 137.5 -57.5t57.5 -136.5q0 -9 -5 -39q-19 -92 -61.5 -163t-99 -112.5t-113.5 -64.5t-119 -31z" />
<glyph unicode="&#x2022;" horiz-adv-x="729" d="M150 559q0 113 80 192.5t192 79.5t192 -79.5t80 -192.5t-80 -192.5t-192 -79.5t-192 79.5t-80 192.5z" />
<glyph unicode="&#x2026;" horiz-adv-x="1820" d="M74 162q0 80 56.5 137t135.5 57q80 0 137.5 -57.5t57.5 -136.5t-57.5 -136t-137.5 -57q-79 0 -135.5 56.5t-56.5 136.5zM688 162q0 80 57 137t136 57t136.5 -57t57.5 -137q0 -79 -57 -136t-137 -57q-79 0 -136 56.5t-57 136.5zM1303 162q0 80 56.5 137t135.5 57 q80 0 137.5 -57.5t57.5 -136.5t-57.5 -136t-137.5 -57q-79 0 -135.5 56.5t-56.5 136.5z" />
<glyph unicode="&#x202f;" horiz-adv-x="347" />
<glyph unicode="&#x2039;" horiz-adv-x="958" d="M86 414l483 426h445l-488 -424l310 -416h-453z" />
<glyph unicode="&#x203a;" horiz-adv-x="958" d="M0 0l485 424l-307 416h453l295 -414l-482 -426h-444z" />
<glyph unicode="&#x205f;" horiz-adv-x="434" />
<glyph unicode="&#x20ac;" horiz-adv-x="1382" d="M-70 375l41 164h1071l-41 -164h-385q10 -43 29.5 -73t58 -55.5t105 -38.5t162.5 -13q154 0 270 36l16 -141q-89 -48 -246 -84.5t-337 -36.5q-89 0 -163.5 10.5t-127 26.5t-93.5 42.5t-66.5 50.5t-43 58.5t-25.5 59t-11 60t-2.5 52.5t1.5 45v1h-213zM0 672l41 164h192 q205 372 783 372q233 0 438 -61l-63 -154q-151 31 -299 31q-82 0 -147 -14.5t-109.5 -42t-74.5 -58.5t-54 -73h405l-41 -164h-1071z" />
<glyph unicode="&#x2122;" horiz-adv-x="1583" d="M240 1036l36 172h547l-37 -172h-157l-99 -467h-231l98 467h-157zM774 569l152 639h256l61 -309l203 309h237l-122 -639h-228l53 254h-8l-153 -245h-117l-41 253h-8l-55 -262h-230z" />
<glyph unicode="&#xe000;" horiz-adv-x="860" d="M0 0v860h860v-860h-860z" />
</font>
</defs>
</svg>
