<?xml version="1.0" encoding="utf-8"?>
<!-- Generator: Adobe Illustrator 18.0.0, SVG Export Plug-In . SVG Version: 6.00 Build 0)  -->
<!DOCTYPE svg PUBLIC "-//W3C//DTD SVG 1.1//EN" "http://www.w3.org/Graphics/SVG/1.1/DTD/svg11.dtd">
<svg version="1.1" id="Layer_1" xmlns="http://www.w3.org/2000/svg" xmlns:xlink="http://www.w3.org/1999/xlink" x="0px" y="0px"
	 viewBox="0 0 258 315.5" enable-background="new 0 0 258 315.5" xml:space="preserve">
<g id="Layer_1_1_">
	<g>
		<path fill="none" d="M217.1,191.9c-9.6-1-18-6.5-23.1-14.4l-43.8,14.4H217.1z"/>
		<path fill="none" d="M134.8,184.1v0.3l31-41.8c-6.3,2.5-12.8,4.4-19.6,5.6L134.8,184.1z"/>
		<path fill="none" d="M134.8,173.5l7.9-24.8c-2.6,0.3-5.2,0.6-7.9,0.7V173.5z"/>
		<path fill="none" d="M40.7,217.9c0.2,0.8,0.5,1.7,0.7,2.5l78.2-25.2l-0.2-0.1H45c-2.4,0.6-4.8,0.9-7.4,1
			C37.7,203.6,38.9,211,40.7,217.9z"/>
		<path fill="none" d="M195.8,242.3l-50-35.8l28.4,38.3c4.3-2.2,9.1-3.5,14.3-3.5C190.8,241.5,193.4,241.8,195.8,242.3z"/>
		<path fill="none" d="M166.4,250.3l-28.8-38.8l19.3,60.1C157.3,263.3,160.8,255.7,166.4,250.3z"/>
		<path fill="none" d="M55.6,138.4l67.3,48l0.3,0.1L92.4,142c-9.4-4-18-9.4-25.7-15.9C62.6,129.8,58.9,134,55.6,138.4z"/>
		<path fill="none" d="M52.7,191.9h56.1l-43.6-13.3C62.5,184.1,58.1,188.7,52.7,191.9z"/>
		<path fill="none" d="M122,213.5l-26.6,38.6c4.8,5.5,7.8,12.6,7.9,20.3L122,213.5z"/>
		<path fill="none" d="M88.3,246l28-40.6l-51.4,36.7c2.3-0.5,4.6-0.8,7-0.8C77.9,241.5,83.4,243.2,88.3,246z"/>
		<path fill="none" d="M190.2,168.9c-0.7-2.6-1-5.3-1-8.2c0-2.8,0.4-5.6,1-8.1L148,182.7L190.2,168.9z"/>
		<path fill="none" d="M125.3,183.7l-11.4-35.5c-5.6-0.9-11-2.3-16.2-4.2L125.3,183.7z"/>
		<path fill="none" d="M218.8,220.3c0.4-1.4,0.8-2.8,1.2-4.2c1.7-6.7,2.6-13.7,2.7-21h-82.3L218.8,220.3z"/>
		<path fill="none" d="M125.5,173.6v-24.1c-2.7-0.1-5.3-0.3-8-0.7L125.5,173.6z"/>
		<path fill="none" d="M68,169.6l45.2,13.8l-49.7-35.6c3,4.8,4.8,10.6,4.8,16.8C68.3,166.4,68.2,168,68,169.6z"/>
		<path fill="none" d="M206.6,246c4.4-6.4,8.1-13.4,10.8-20.9c0.2-0.5,0.4-1.2,0.6-1.7l-78.3-25.2L206.6,246z"/>
		<path fill="none" d="M193.5,125.8c-6.5,5.7-13.7,10.4-21.5,14.2l-34.3,46h0.1l54.4-38.9c2.3-4.8,5.8-8.9,10-12
			C199.4,131.9,196.6,128.7,193.5,125.8z"/>
		<path fill="none" d="M103.6,282.3c7,2.1,14.4,3.4,21.9,3.8c1,0,2,0.1,3,0.1v-82l-0.1,0.2L103.6,282.3z"/>
		<path fill="none" d="M43.6,226.8c2.6,6.8,6.1,13.3,10.2,19.3l66.9-47.8l-78.3,25.3C42.8,224.6,43.2,225.7,43.6,226.8z"/>
		<path fill="none" d="M131.8,286.2c1,0,2.1,0,3-0.1c7.7-0.4,15.1-1.7,22.1-3.8l-25.2-78.3C131.8,203.9,131.8,286.2,131.8,286.2z"/>
		<path fill="#FFFFFF" d="M193.5,125.8c3.1,2.9,6.1,6.1,8.7,9.3c2.7-2,5.8-3.6,9-4.5c-3.3-4.2-6.8-8.1-10.6-11.7
			C198.3,121.4,196,123.7,193.5,125.8z"/>
		<path fill="#FFFFFF" d="M217.1,191.9h-66.9l43.8-14.4c-1.7-2.6-2.9-5.6-3.8-8.6L148,182.7l42.2-30.1c0.5-1.9,1.2-3.7,2-5.5
			l-54.4,38.9h-0.1l34.3-46c-2,0.9-4,1.8-6,2.6l-31.2,41.8v-0.3l11.4-36c-1.2,0.2-2.4,0.4-3.6,0.5l-7.9,24.8v-24
			c-1.7,0.1-3.3,0.1-4.9,0.1c-1.5,0-2.9,0-4.4-0.1v24.1l-8-24.9c-1.2-0.1-2.4-0.3-3.6-0.5l11.4,35.5L97.8,144
			c-1.8-0.6-3.7-1.4-5.3-2.1l30.9,44.5l-0.3-0.1l-67.3-48c3.3-4.4,6.9-8.6,10.9-12.3c-2.5-2.2-4.9-4.4-7.1-6.8
			c-4.3,4.1-8.3,8.6-11.9,13.4l0,0l-1,1.6c0,0.1-0.1,0.1-0.1,0.2l-0.3,0.4c7.2,2.2,13.4,7,17.4,13.3l49.7,35.5L68,169.6
			c-0.5,3.1-1.5,6.2-2.8,8.9l43.6,13.3H52.7c-2.4,1.4-5,2.5-7.9,3.3h74.5l0.2,0.1l-78.2,25.2c-0.2-0.8-0.5-1.7-0.7-2.5
			c-1.9-6.9-2.9-14.3-3.1-21.7c-0.2,0-0.4,0-0.5,0c-3.3,0-6.4-0.5-9.4-1.5v0.4l0,0c0.1,8.9,1.5,17.6,3.7,25.8H31l0.8,2.4
			c0.4,1.4,0.8,2.6,1.3,4l0.8,2.5H34c2.9,7.9,6.9,15.2,11.5,22l0,0l1.3,1.8c4.4-5.7,10.6-9.8,17.7-11.4l51.4-36.7l-28,40.6
			c2.7,1.7,5.1,3.7,7.2,6.1l26.6-38.6l-18.6,58.8c0,0.1,0,0.2,0,0.4c0,6.7-2.1,12.9-5.7,17.9h0.1c0.8,0.3,1.7,0.5,2.5,0.8l0.2,0.1
			l0,0c8,2.4,16.3,3.9,25,4.3v0.1h3h1.6h1.6h3V296c9.6-0.4,19-2.2,27.8-5.1c-3.6-5.1-5.7-11.3-5.7-18c0-0.4,0-0.8,0-1.3l-19.3-60.1
			l28.8,38.8c2.2-2.2,4.8-4,7.7-5.5l-28.4-38.3l50,35.8c7,1.7,13.2,5.8,17.5,11.4l0.6-0.8c0-0.1,0.1-0.1,0.1-0.2l0.6-0.9l0,0
			c5-7.3,9.2-15.3,12.2-23.8h0.1l0.7-2.5c0.4-1.4,0.8-2.7,1.3-4.1l0.7-2.4h-0.1c2-7.7,3-15.6,3.1-23.9l0,0v-3.3l0,0
			c0-0.7,0-1.5-0.1-2.2c-3.8,1.6-7.9,2.4-12.1,2.4C219.4,192.1,218.2,192.1,217.1,191.9z M53.9,246.1c-4.1-6-7.6-12.5-10.2-19.3
			c-0.4-1-0.8-2.2-1.2-3.3l78.3-25.3L53.9,246.1z M128.5,286.2c-1,0-2.1,0-3-0.1c-7.6-0.4-14.9-1.7-21.9-3.8l24.9-78l0.1-0.2
			C128.5,204,128.5,286.2,128.5,286.2z M157,282.3c-7,2.1-14.5,3.5-22.1,3.8c-1,0-2,0.1-3,0.1v-82.3L157,282.3z M217.3,225.1
			c-2.7,7.4-6.4,14.5-10.8,20.9l-66.9-47.8l78.3,25.2C217.7,224,217.5,224.6,217.3,225.1z M220.1,216.1c-0.3,1.5-0.7,2.8-1.2,4.2
			l-78.3-25.2h82.3C222.7,202.4,221.8,209.4,220.1,216.1z"/>
	</g>
</g>
<g id="bollen">
	<path id="institutional" fill="#FFFFFF" d="M24.9,195.8c17.5,7,37.4-1.6,44.5-19.2c7-17.5-1.6-37.4-19.2-44.5
		c-17.5-7-37.4,1.6-44.5,19.2S7.3,188.7,24.9,195.8z M51.3,173c-0.6-1.8-1.2-3.6-1.8-5.3c-0.1-0.3-0.1-0.5,0.1-0.8
		c0.5-0.6,1.3-0.8,2-0.6c0.3,0.1,0.5,0.2,0.6,0.5c0.3,1,0.7,2.1,1,3.3c0.8,2.6,1.8,5.3,2.6,8c1.4,4.2-1.7,8.5-6.2,8.6
		c-0.4,0-0.8-0.1-1.4-0.2c-2.4-0.9-4.9-2-7.4-2.9c-0.3-0.1-0.4-0.3-0.5-0.6c-0.1-0.8,0.2-1.5,0.8-2c0.2-0.2,0.4-0.2,0.7-0.1
		c1,0.4,2.2,0.8,3.3,1.3c0.1,0,0.2,0.1,0.3,0.1c0,0,0,0,0.1-0.1c-0.1-0.1-0.2-0.2-0.2-0.3c-2.5-3.1-5-6.3-7.4-9.4
		c-0.3-0.4-0.3-0.6-0.1-1.2c0.3-0.6,0.8-0.9,1.6-1c0.3,0,0.5,0,0.7,0.3c1.4,1.7,2.7,3.5,4.1,5.1c0.1,0.1,0.2,0.2,0.3,0.4
		c0.1-0.1,0.2-0.2,0.3-0.4c-0.1-0.1-0.2-0.3-0.2-0.4c-1.5-2.3-2.9-4.5-4.5-6.8c-0.2-0.3-0.2-0.5-0.1-0.7c0.4-0.7,1-1.2,1.9-1.2
		c0.3,0,0.4,0.1,0.6,0.3c0.9,1.6,2,3,2.9,4.5c0.6,0.8,1.2,1.8,1.8,2.7c0.2,0,0.3-0.1,0.5-0.2c-0.1-0.1-0.1-0.3-0.2-0.4
		c-0.9-1.8-1.8-3.6-2.7-5.3c-0.1-0.3-0.1-0.5,0-0.7c0.4-0.7,1.2-1,2-0.9c0.3,0,0.4,0.1,0.6,0.4c1.2,2.2,2.3,4.4,3.4,6.6
		c0.1,0.2,0.2,0.4,0.5,0.3C51.4,173.3,51.4,173.2,51.3,173z M33.2,150.6c1.8-2,3.6-4,5.3-6.1c0.8-0.9,1.7-1.9,2.4-2.7
		c1.9-2.2,4.9-2.8,7.6-1.6c1.4,0.6,2.4,1.7,3.1,3c0.1,0.2,0.2,0.4,0.2,0.6c0.4,2.7,0.8,5.5,1.3,8.2c0,0.3,0,0.5-0.2,0.6
		c-0.6,0.5-1.6,0.6-2.3,0.3c-0.2-0.1-0.3-0.2-0.3-0.5c-0.1-1.2-0.3-2.3-0.5-3.5c0-0.1,0-0.2-0.1-0.4c-0.1,0.1-0.1,0.3-0.2,0.4
		c-1.5,3.8-2.9,7.4-4.4,11.2c-0.1,0.3-0.3,0.5-0.7,0.5c-0.8,0.1-1.5-0.2-2-0.8c-0.2-0.2-0.2-0.4-0.1-0.7c0.8-2,1.6-4.1,2.4-6.1
		c0.1-0.1,0.1-0.3,0.2-0.5c-0.2,0-0.3-0.1-0.5-0.1c-0.3,0.7-0.7,1.4-1,2c-0.8,1.7-1.7,3.4-2.5,4.9c-0.1,0.3-0.3,0.6-0.4,0.9
		c-0.1,0.2-0.2,0.2-0.3,0.2c-0.8,0.2-1.9-0.3-2.2-1.2c-0.1-0.2,0-0.3,0-0.5c0.3-0.6,0.6-1.3,0.9-2c0.6-1.3,1.4-2.6,2-3.9
		c0.2-0.5,0.5-0.9,0.7-1.5c0.1-0.1,0.1-0.3,0.2-0.4c-0.1-0.1-0.2-0.2-0.4-0.3c-0.2,0.3-0.4,0.6-0.6,0.9c-0.9,1.5-2,3-2.9,4.5
		c-0.1,0.2-0.3,0.3-0.6,0.3c-0.8,0-1.6-0.5-1.9-1.3c-0.1-0.2-0.1-0.4,0-0.6c0.9-1.4,1.8-2.7,2.7-4.1c0.5-0.7,0.9-1.5,1.5-2.2
		c0.1-0.2,0.2-0.3,0-0.5c-0.1,0.1-0.2,0.2-0.3,0.3c-1.3,1.5-2.5,2.8-3.8,4.3c-0.2,0.3-0.4,0.3-0.7,0.2c-0.8-0.2-1.4-0.7-1.6-1.5
		C33,151.1,33.1,150.9,33.2,150.6z M13.3,162.7c0.1-0.1,0.2-0.3,0.4-0.4c2.2-1.7,4.3-3.5,6.5-5.1c0.2-0.2,0.4-0.2,0.7-0.1
		c0.8,0.3,1.3,0.9,1.4,1.8c0,0.2,0,0.4-0.2,0.6c-0.9,0.7-1.8,1.5-2.7,2.2c-0.1,0.1-0.2,0.2-0.4,0.3c0.3,0,0.4,0,0.6-0.1
		c4-0.6,8-1.2,11.9-1.8c0.4-0.1,0.6,0.1,0.8,0.3c0.4,0.6,0.5,1.4,0.2,2c-0.1,0.3-0.3,0.4-0.6,0.5c-2.2,0.3-4.3,0.6-6.5,0.9
		c-0.1,0-0.3,0-0.5,0.1c0.1,0.2,0.1,0.3,0.1,0.4c0.2,0,0.3,0,0.4,0c2.7-0.1,5.5-0.3,8.2-0.5c0.3,0,0.6,0.1,0.7,0.4
		c0.4,0.7,0.4,1.5,0,2.2c-0.1,0.2-0.3,0.3-0.5,0.3c-2.2,0.1-4.4,0.2-6.6,0.4c-0.7,0-1.4,0.1-2.1,0.1c0,0.2-0.1,0.3-0.1,0.5
		c0.7,0,1.5,0.1,2.2,0.1c1.4,0.1,2.8,0.1,4.2,0.2c0.3,0,0.5,0.1,0.6,0.4c0.4,0.7,0.3,1.5-0.1,2.2c-0.2,0.2-0.3,0.3-0.6,0.3
		c-2.5-0.1-4.9-0.2-7.4-0.4c-0.2,0-0.5-0.1-0.6,0.2c0.5,0.1,1,0.2,1.6,0.3c1.6,0.3,3,0.6,4.6,0.9c0.3,0.1,0.4,0.2,0.5,0.4
		c0.3,0.7,0.1,1.7-0.5,2.2c-0.2,0.2-0.3,0.2-0.6,0.2c-1.3-0.3-2.5-0.5-3.8-0.8c-2.6-0.5-5.2-1-7.9-1.7c-2.5-0.5-4.2-2.1-4.9-4.6
		C11.8,166.3,12.2,164.4,13.3,162.7z"/>
	<path id="social" fill="#FFFFFF" d="M154.4,262.9c-4.8,18.3,6.1,37,24.3,41.8s37-6.1,41.8-24.3c4.8-18.3-6.1-37-24.3-41.8
		C178,233.7,159.3,244.6,154.4,262.9z M196.3,289.4c-0.6,2.4-3.3,4-5.7,3.4c-2.5-0.6-4-3.3-3.3-5.7c0.6-2.5,3.3-4,5.7-3.4
		C195.5,284.4,196.9,287,196.3,289.4z M200.5,265.9c-0.4,1.8-2.3,2.9-4.2,2.5c-1.9-0.4-3-2.4-2.6-4.2c0.4-1.8,2.3-2.9,4.2-2.5
		C199.8,262.1,200.9,264,200.5,265.9z M187.3,249.1c0.2,0.2,0.4,0.5,0.6,0.7c1.4,1.8,2.7,3.7,4.1,5.5c0.2,0.3,0.4,0.5,0.8,1
		c0.1-0.8,0.2-1.5,0.3-2.1c0.1-0.7,0.4-0.9,0.9-0.9c0.5,0.1,0.7,0.4,0.6,1.2c-0.2,1.7-0.4,3.4-0.6,5c-0.1,0.7-0.3,1.4-0.9,1.7
		c-0.8,0.5-1.2,1.3-1.3,2.2c-0.1,0.8-0.3,1.8-0.4,2.6c0,0.3,0.1,0.6,0.2,0.9c0.1,0.5,0.4,1,0.3,1.6c-0.4,3.5-0.9,7-1.4,10.5
		c-0.2,1.5-0.7,2.5-2,3.4c-0.6,0.4-1.2,0.8-1.7,1.3c-1.2,1-2.4,1.3-3.9,1c-3.5-0.5-6.9-1-10.4-1.7c-0.4-0.1-0.9-0.3-1.3-0.6
		c-0.5-0.4-0.4-1.3-0.1-1.9c0.4-0.6,0.9-0.8,1.7-0.7c1.5,0.2,2.9,0.4,4.4,0.6c0-0.1,0.1-0.1,0.1-0.2c-0.3-0.3-0.7-0.7-1-1
		c-3.9-3.6-7.9-7.1-11.7-10.7c-1.4-1.3-1.3-2.5,0.1-3.6l0.1-0.1c3.9-2.9,7.8-5.9,11.7-8.8c0.3-0.2,0.7-0.5,1-0.6
		c1-0.3,2,0.1,2.5,1.4c2.2,4.5,4.4,9.1,6.6,13.6c0.3,0.7,0.7,1.4,1.3,2.1c0.2-1.4,0.4-2.7,0.6-4.2c0.1-0.6,0.4-1,0.7-1.6
		c0.6-1,0.8-2.2,0.3-3.4c-0.2-0.5-0.6-1-0.9-1.5c-2-2.6-4-5.3-6-8c-0.2-0.2-0.4-0.4-0.5-0.7c-0.4-0.6-0.4-1.2,0.1-1.6
		c0.5-0.4,1-0.3,1.6,0.3c0.5,0.6,1,1.4,1.6,2.1c0.2,0.3,0.4,0.5,0.6,0.7c0.4,0.4,0.9,0.4,1.4,0.1c0.5-0.3,0.5-0.8,0.2-1.4
		c-0.5-0.8-1.2-1.6-1.7-2.3c-0.2-0.3-0.4-0.5-0.5-0.8c-0.2-0.5-0.1-1,0.3-1.4C186.4,248.8,186.9,248.8,187.3,249.1z"/>
	<path id="environmental" fill="#FFFFFF" d="M136.8,86.7c1.8,0,3.4-0.1,5-0.1c0.8,1.2,1.7,2.3,2.7,3.7c-2.5,3.3-5.1,6.4-8.1,10.2
		C136.2,95.5,136.7,91.2,136.8,86.7z M113.3,87.5c1.6,2.1,2.9,4,4.3,5.8c1.5,1.8,2.5,3.9,4.7,5.6c-0.2-4.8-0.4-9.1-1.2-13.3
		C118.5,86.2,116.2,86.9,113.3,87.5z M158.2,10.2c40.4,15.7,60.4,61.4,44.7,101.8s-61.4,60.5-101.7,44.8S40.7,95.5,56.5,55
		S117.8-5.5,158.2,10.2z M147.3,49.6c-8.1-15.8-28.6-15.9-37-0.4c-6.1-2.2-11.6-1.8-16.4,2.7s-5.6,10.2-3.6,16.2
		c-7.9,3.7-11.3,8.7-10.8,15.3C80,89.5,84.2,94.5,90,96.3c6.4,1.9,11.9-0.4,17.3-7.6c0.3,0.3,0.6,0.5,0.8,0.8
		c4.5,5.9,9,11.9,13.5,17.7c0.8,1.2,0.9,2.3,0.9,3.6c-0.5,6.7-0.9,13.5-1.6,20.2c-0.3,3.5,1.6,5.6,4.8,4.8c2.8-0.6,5.5-0.6,8.3-0.1
		c3.1,0.5,4.9-1.6,4.6-4.8c-0.7-6.4-1.4-12.9-2.1-19.3c-0.2-1.8,0.2-3.1,1.4-4.5c2.4-2.8,4.6-5.8,6.9-8.6c1.3-1.7,2.6-3.3,3.9-4.8
		c1,0.4,1.9,0.7,2.6,1c9.6,4,21.7-0.6,25.3-11.7c4.2-13.2-5.5-23.2-13.9-24.6c-1.7-0.3-2.6-1.2-3.5-2.6c-2.3-4-5.9-6.1-10.5-6.2
		C148.5,49.6,147.8,49.6,147.3,49.6z"/>
	<path id="financial" fill="#FFFFFF" d="M73.5,265.9c2.2,0.1,3.9,1.2,4.9,3c0.6,1,0.8,2.3,0.5,3.6c-0.1,0.4-0.2,0.8-0.3,1.3
		c0.5,0.4,1.2,0.9,0.7,1.8c-0.5,0.9-1.3,0.4-2,0.3c-0.2,0.3-0.3,0.5-0.5,0.8c0.5,0.5,1.3,0.9,0.7,1.8c-0.4,0.6-0.7,0.6-1.9,0.1
		c-0.1,0.1-0.2,0.2-0.3,0.3c-2.5,2.9-6.8,1.8-8.7-0.8c-0.7-1-0.9-2.3-0.6-3.6c0.2-0.9,0.9-1.5,1.7-1.4c0.8,0.1,1.3,0.7,1.3,1.8
		c0,0.2-0.1,0.5-0.1,0.7c0,1,0.5,1.9,1.5,2.2c0.8,0.3,1.8,0.1,2.6-0.8c-0.5-0.3-1-0.6-1.6-0.9c-0.6-0.4-0.8-1-0.4-1.6
		c0.3-0.5,0.8-0.5,1.6-0.2c0.5,0.3,1,0.6,1.8,1c0.2-0.3,0.4-0.5,0.6-0.8c-0.1-0.1-0.2-0.3-0.2-0.3c-0.5-0.3-1-0.6-1.6-1
		c-0.5-0.4-0.6-0.9-0.4-1.5c0.3-0.5,0.7-0.7,1.4-0.4c0.6,0.3,1.2,0.6,1.8,0.9c0.5-0.8,0.5-1.7-0.1-2.4c-0.6-0.7-1.6-1.2-2.5-0.7
		c-0.4,0.2-0.8,0.4-1.3,0.6c-0.8,0.4-1.6,0.3-2-0.3c-0.4-0.5-0.3-1.3,0.2-2C71.1,266.3,72.2,265.8,73.5,265.9z M77.7,242
		c18.6,3.3,31,21.1,27.8,39.6c-3.3,18.6-21.1,31-39.6,27.8s-31-21.1-27.8-39.6C41.4,251.1,59.1,238.8,77.7,242z M67.9,293.3
		c-3.1-1.9-6.3-3.8-9.4-5.7c-0.3-0.2-0.7-0.3-1-0.3c-2.4,0-4.8,0.1-7.2,0.1c-0.3,0-0.5,0.1-0.8,0.2c0,0.1-0.1,0.2-0.1,0.4
		c0.3,0.2,0.5,0.4,0.8,0.5c1.6,0.6,3.3,1.2,4.8,1.9c3.4,1.4,6.5,2.9,9.2,5.3c2.1,1.8,4.3,3.5,6.5,5.2c0.4,0.3,0.7,0.7,1.5,0.4
		c-0.1-0.3-0.2-0.7-0.3-0.9c-1-2-2-4.1-3.1-6.1C68.6,293.9,68.3,293.6,67.9,293.3z M66.9,256.7c-4.2,1-7.7,3.3-10,7
		c-0.8,1.4-1.3,2.9-1.2,4.6c0.1,1.6,0.6,3.1,1.2,4.6c0.5,1.4,1.3,2.7,1.7,4.1c0.9,2.6,1.3,5.2,0.3,7.9c-0.1,0.2-0.1,0.5-0.1,0.7
		c3.7,2.2,7.2,4.3,10.8,6.5c0.2-0.2,0.4-0.3,0.5-0.4c2-2.3,4.5-3.6,7.6-3.9c0.9-0.1,1.9-0.1,2.9-0.2c1.7-0.2,3.4-0.4,4.9-0.8
		c2.2-0.6,3.8-2,4.8-4.1c1.6-3,2-6.2,1.5-9.4C90.1,261.9,78.1,254,66.9,256.7z"/>
	<path id="technical" fill="#FFFFFF" d="M217.2,155.2c0.9-0.5,1.9-1,2.8-1.6c2.4,4.8,4.9,9.5,7.3,14.5c-1,0.5-1.9,0.9-2.9,1.5
		C222,164.8,219.6,160,217.2,155.2z M212.6,127.1c18.3-5,37,5.6,42.2,23.7c5,18.3-5.6,37-23.7,42.2c-18.3,5-37-5.6-42.2-23.7
		C183.8,151.1,194.4,132.2,212.6,127.1z M211.4,139.3c1.6,1,3.1,2,4.6,3c-0.1,1.5-0.1,2.9-0.2,4.3c0,0.3-0.2,0.7-0.4,0.8
		c-1.4,0.7-2.7,1.4-4,2.1c-1.8-1.2-3.5-2.2-5.2-3.4c-0.4,4.6,2.8,8.8,7.6,9.2c0.7,0.1,1,0.3,1.5,0.9c2.3,4.6,4.6,9.2,7,13.8
		c0.4,0.8,0.4,1.5,0,2.4c-1.6,3.1-1.3,6.3,0.9,9.1c2.2,2.7,5.1,3.7,8.6,2.9c0.4-0.1,0.7-0.2,1.3-0.4c-1.6-1-2.8-1.9-4.1-2.7
		c-0.5-0.3-0.7-0.6-0.6-1.3c0.1-1.2,0.1-2.3,0.2-3.6c0-0.5,0.2-0.7,0.6-0.9c1-0.5,2.1-1,3.1-1.6c0.5-0.3,0.9-0.2,1.4,0.1
		c1.3,0.8,2.4,1.6,3.7,2.4c0.3,0.2,0.5,0.3,0.8,0.5c0-0.3,0.1-0.5,0.1-0.7c0-4.2-3-7.8-7.2-8.4c-0.7-0.1-1-0.3-1.5-0.9
		c-1.3-2.6-2.6-5.1-3.9-7.7c-1.4-2.6-2.6-5.1-3.9-7.7c2.7-4.9,0.8-9-1.6-11.1C217.6,138.5,213.7,137.9,211.4,139.3z"/>
</g>
</svg>
