<?xml version="1.0" encoding="utf-8"?>
<!-- Generator: Adobe Illustrator 18.0.0, SVG Export Plug-In . SVG Version: 6.00 Build 0)  -->
<!DOCTYPE svg PUBLIC "-//W3C//DTD SVG 1.1//EN" "http://www.w3.org/Graphics/SVG/1.1/DTD/svg11.dtd">
<svg version="1.1" id="Layer_1" xmlns="http://www.w3.org/2000/svg" xmlns:xlink="http://www.w3.org/1999/xlink" x="0px" y="0px"
	 viewBox="0 0 245.7 290.7" enable-background="new 0 0 245.7 290.7" xml:space="preserve">
<g id="Layer_1_1_">
	<g>
		<path fill="none" d="M205.7,177.4c-9-1-17-6.1-21.8-13.6l-41.3,13.6H205.7z"/>
		<path fill="none" d="M128.2,170.1v0.3l29.3-39.5c-6,2.4-12.1,4.1-18.5,5.3L128.2,170.1z"/>
		<path fill="none" d="M128.2,160.3l7.5-23.3c-2.6,0.3-4.9,0.5-7.5,0.7V160.3z"/>
		<path fill="none" d="M39.6,201.9c0.2,0.9,0.5,1.5,0.7,2.4l73.8-23.6l-0.2-0.2H43.6c-2.2,0.5-4.6,0.9-7,1
			C36.7,188.5,37.7,195.5,39.6,201.9z"/>
		<path fill="none" d="M185.7,225.1l-47.1-33.7l26.7,36.1c4.1-2,8.7-3.2,13.4-3.2C180.9,224.2,183.3,224.5,185.7,225.1z"/>
		<path fill="none" d="M157.9,232.5L130.7,196l18.2,56.6C149.3,244.8,152.7,237.6,157.9,232.5z"/>
		<path fill="none" d="M53.5,127.1l63.4,45.2l0.3,0.2l-29.1-41.8c-8.8-3.7-17-8.8-24.2-15C60.1,118.9,56.6,122.8,53.5,127.1z"/>
		<path fill="none" d="M50.8,177.4h52.9l-41.2-12.6C60,170.1,55.9,174.5,50.8,177.4z"/>
		<path fill="none" d="M116.1,197.8l-25.2,36.4c4.6,5.1,7.3,11.9,7.5,19.2L116.1,197.8z"/>
		<path fill="none" d="M84.3,228.5l26.4-38.3l-48.5,34.5c2.2-0.5,4.4-0.9,6.6-0.9C74.4,224.2,79.7,225.7,84.3,228.5z"/>
		<path fill="none" d="M180.4,155.8c-0.7-2.6-1-5.1-1-7.7s0.3-5.3,1-7.7l-39.8,28.4L180.4,155.8z"/>
		<path fill="none" d="M119.2,169.8l-10.7-33.3c-5.3-0.9-10.4-2.2-15.3-3.9L119.2,169.8z"/>
		<path fill="none" d="M207.3,204.3c0.3-1.4,0.9-2.7,1-3.9c1.5-6.3,2.6-12.9,2.6-19.7h-77.6L207.3,204.3z"/>
		<path fill="none" d="M119.3,160.3v-22.8c-2.6-0.2-5.1-0.3-7.5-0.7L119.3,160.3z"/>
		<path fill="none" d="M65.2,156.5l42.5,13.1L61,136.1c2.9,4.6,4.6,10,4.6,15.8C65.4,153.4,65.4,155,65.2,156.5z"/>
		<path fill="none" d="M195.7,228.5c4.1-6,7.7-12.6,10.2-19.7c0.2-0.5,0.3-1,0.5-1.5l-73.8-23.6L195.7,228.5z"/>
		<path fill="none" d="M183.5,115.2c-6.1,5.3-12.9,9.9-20.2,13.3l-32.3,43.4h0.2l51.4-36.7c2.2-4.6,5.4-8.3,9.4-11.2
			C189.1,121,186.3,117.9,183.5,115.2z"/>
		<path fill="none" d="M98.7,262.7c6.6,2,13.6,3.2,20.6,3.6c1,0,1.9,0.2,2.9,0.2v-77.2l-0.2,0.2L98.7,262.7z"/>
		<path fill="none" d="M42.1,210.4c2.6,6.5,5.8,12.6,9.5,18.2l63.1-45.1l-73.8,23.8C41.4,208.4,41.8,209.4,42.1,210.4z"/>
		<path fill="none" d="M125.3,266.4c1,0,2,0,2.9-0.2c7.1-0.3,14.3-1.5,20.9-3.6l-23.8-73.8V266.4z"/>
		<path fill="#FFFFFF" d="M183.5,115.2c2.9,2.7,5.8,5.8,8.2,8.8c2.6-1.9,5.4-3.4,8.5-4.3c-3.1-3.9-6.5-7.7-10-11.1
			C188,111.1,185.8,113.3,183.5,115.2z"/>
		<path fill="#FFFFFF" d="M205.7,177.4h-63.1l41.3-13.6c-1.5-2.6-2.7-5.3-3.6-8.2l-39.8,13.1l39.8-28.4c0.5-1.7,1-3.4,1.9-5.1
			L130.9,172h-0.2l32.3-43.4c-1.9,0.9-3.7,1.7-5.6,2.6L128,170.6v-0.3l10.7-33.8c-1,0.2-2.2,0.3-3.4,0.5l-7.5,23.3v-22.6
			c-1.5,0.2-3.1,0.2-4.6,0.2c-1.4,0-2.7,0-4.1-0.2v22.8l-7.5-23.5c-1-0.2-2.2-0.3-3.4-0.5l10.7,33.3l-26-37.4
			c-1.7-0.5-3.4-1.4-5.1-2l29.1,41.8l-0.3-0.2l-63.4-45.2c3.1-4.1,6.5-8.2,10.2-11.6c-2.4-2-4.6-4.1-6.8-6.5
			c-4.1,3.9-7.8,8.2-11.2,12.6l0,0l-1,1.5c0,0.2-0.2,0.2-0.2,0.2l-0.3,0.3c6.8,2,12.6,6.6,16.3,12.6l46.8,33.3l-42.7-13.1
			c-0.5,2.9-1.4,5.8-2.7,8.3l41.2,12.6H49.8c-2.2,1.4-4.8,2.4-7.5,3.1h70.3l0.2,0.2L38.9,204c-0.2-0.9-0.5-1.5-0.7-2.4
			c-1.7-6.5-2.7-13.4-2.9-20.4c-0.2,0-0.3,0-0.5,0c-3.1,0-6-0.5-8.8-1.4v0.3l0,0c0.2,8.3,1.4,16.7,3.4,24.3h-0.2l0.9,2.2
			c0.3,1.4,0.9,2.6,1.2,3.7l0.9,2.4h0.2c2.7,7.5,6.5,14.3,10.9,20.8l0,0l1.2,1.7c4.1-5.3,10-9.2,16.7-10.7l48.5-34.5l-26.4,38.3
			c2.6,1.5,4.8,3.4,6.8,5.8l25.2-36.4l-17.5,55.5c0,0.2,0,0.2,0,0.3c0,6.3-2,12.1-5.3,16.8h0.2c0.9,0.3,1.5,0.5,2.4,0.9l0.2,0.2l0,0
			c7.5,2.2,15.3,3.7,23.5,4.1v0.2h2.9h1.5h1.5h2.9v-0.2c9-0.3,17.9-2,26.2-4.8c-3.4-4.8-5.3-10.7-5.3-17c0-0.3,0-0.9,0-1.2
			L130,195.8l27.2,36.6c2-2,4.6-3.7,7.1-5.1l-26.7-36.1l47.1,33.7c6.6,1.5,12.4,5.4,16.5,10.7l0.5-0.9c0-0.2,0.2-0.2,0.2-0.2
			l0.5-0.9l0,0c4.8-7,8.7-14.5,11.4-22.5h0.2l0.7-2.4c0.3-1.4,0.9-2.6,1.2-3.9l0.7-2.2h-0.2c1.9-7.1,2.9-14.8,2.9-22.6l0,0v-3.1l0,0
			c0-0.7,0-1.4-0.2-2c-3.6,1.5-7.5,2.2-11.4,2.2C207.8,177.6,206.8,177.6,205.7,177.4z M51.8,228.6c-3.9-5.6-7.1-11.7-9.5-18.2
			c-0.3-1-0.9-2-1-3.1l73.8-23.8L51.8,228.6z M122.2,266.4c-1,0-2,0-2.9-0.2c-7.1-0.3-14.1-1.5-20.6-3.6l23.5-73.5l0.2-0.2
			C122.2,189,122.2,266.4,122.2,266.4z M149.1,262.7c-6.6,2-13.6,3.2-20.9,3.6c-1,0-1.9,0.2-2.9,0.2v-77.6L149.1,262.7z
			 M205.9,208.9c-2.6,7-6,13.6-10.2,19.7l-63.1-45.2l73.8,23.6C206.2,207.7,206.1,208.4,205.9,208.9z M208.5,200.4
			c-0.3,1.4-0.7,2.7-1,3.9l-73.8-23.6h77.6C211,187.3,210.2,193.9,208.5,200.4z"/>
	</g>
</g>
<g id="bollen">
	<path id="institutional" fill="#FFFFFF" d="M119.5,2.9C78.3,4.9,47,39.3,49,80.4s36.4,72.5,77.5,70.4c41.1-2,72.5-36.4,70.4-77.5
		C195.2,32.5,160,0.9,119.5,2.9z M87.4,71c2.6,3,5.4,6.2,8.3,8.9c0.6,0.5,0.6,1.1,0.3,1.4c-0.5,1.7-1.6,2.8-3.5,3.1
		c-0.8,0.3-1.1,0-1.7-0.5c-1.4-1.9-3.1-3.5-5.1-5.4c-4.3-4.6-8.3-8.9-12.3-13.2c-6.3-7-4.1-18.4,4.3-22.2c0.8-0.3,1.9-0.9,2.7-0.6
		c5.5-0.2,11.3-0.6,17.4-0.8c0.6,0,1.4,0.2,1.4,0.8c1.2,1.6,0.9,3,0.1,5c-0.3,0.8-0.5,0.6-1.1,0.6c-2.8,0.1-5,0.1-7.4,0.5
		c-0.6,0-0.6,0-0.8,0.3l0.3-0.3c0.3,0.3,0.8,0.3,0.8,0.3c7.9,4.2,15.4,8.1,23.3,11.8c1.1,0.5,1.4,0.8,1.2,2.2
		c-0.2,1.4-0.8,2.5-2.1,3.4c-0.8,0.3-1.1,0.6-1.7,0c-4.2-2.4-8.1-4.5-12.6-6.5c-0.3-0.3-0.8-0.3-1.1-0.5c0,0.6-0.3,0.8-0.3,0.8
		c0.3,0.3,0.8,0.3,1.1,0.5c5.1,3.2,10.1,6.3,15.2,9.5c0.8,0.3,0.9,0.8,0.9,1.4c0,1.7-1.3,3.1-2.6,3.9c-0.6,0-0.8,0.3-1.4-0.2
		c-3.4-2.1-6.5-4.5-10.1-6.3c-2-1.3-3.9-2.6-5.6-3.7c-0.3,0.3-0.5,0.6-1.1,0.6c0.3,0.3,0.6,0.5,0.6,0.5c3.4,2.7,6.8,5.3,10.2,8
		c0.6,0.5,0.6,1.1,0.6,1.6c-0.2,1.9-1.3,3.1-2.9,3.7c-0.6,0-1.1,0-1.4-0.2C97,75.7,93,72.5,88.8,69c-0.3-0.3-0.6-0.5-1.4-0.2
		C86.9,70.5,87.2,70.7,87.4,71z M143.3,98.9c-1.8,5.3-3.5,11.2-5,16.7c-0.8,2.5-1.5,5-2.5,7.8c-2,6.1-7.2,9.9-13.5,9.8
		c-3.3,0.1-6.4-1.2-8.9-3.1c-0.3-0.3-0.6-0.5-0.9-0.8c-3.5-4.9-6.4-10.3-9.6-14.9c-0.3-0.8-0.3-0.8,0-1.7c0.8-2,2.4-2.6,4.1-2.6
		c0.6,0,0.8,0.3,1.1,0.5c1.2,2.2,2.9,4.3,4.1,6.5c0.3,0.3,0.3,0.3,0.6,0.5c0-0.6,0-0.6,0-1.1c-0.3-8.8-0.8-17.4-1.3-25.9
		c0-1.1,0.2-1.4,1.1-1.7c1.4-0.9,3-0.9,4.4-0.1c0.8,0.3,0.9,0.8,0.9,1.4c0.1,5,0.3,9.4,0.7,14.1c0,0.6,0,0.6,0,1.1
		c0.6,0,0.8-0.3,1.1,0c0-1.7,0.2-3,0.1-4.7c0.2-4.2,0.6-8,0.5-11.9c0-0.6,0.2-1.4,0.2-1.9c0-0.6,0-0.6,0.3-0.8
		c1.6-1.2,4.1-0.9,5.3,0.1c0.3,0.3,0.3,0.8,0.3,0.8c0,1.7-0.2,3-0.1,4.7c-0.2,3-0.4,6.1-0.5,9.7c0,1.1-0.2,2.5-0.2,3.6
		c0,0.6,0,0.6,0,1.1c0.6,0,0.8,0.3,1.1,0.5c0.3-0.8,0.2-1.4,0.5-2.2c0.4-3.9,1.2-7.5,1.6-11.4c0-0.6,0.3-0.8,0.8-1.4
		c1.6-0.6,3.6-0.4,4.7,0.7c0.6,0.5,0.3,0.8,0.3,1.4c-0.7,3.6-1.2,6.9-1.6,10.8c-0.2,1.9-0.4,3.9-0.9,5.6c0,0.6-0.3,0.8,0.6,1.1
		c0-0.6,0.3-0.8,0.3-0.8c1-3.9,2.5-7.8,3.5-11.7c0.3-0.8,0.5-1.1,1.6-1.2c1.9-0.3,3,0.2,4.5,1.5C143.2,97.8,143.3,98.4,143.3,98.9z
		 M171.6,57.5c0,0.6-0.3,0.8-0.5,1.1c-2.9,5.3-5.5,10.4-8.1,16c-0.3,0.8-0.8,0.9-1.4,0.9c-1.7,0-3.6-0.7-4.2-2.4
		c0-0.6-0.3-0.8,0-1.1c1-2.2,2.4-4.2,3.7-6.7c0.3-0.3,0-0.6,0.5-1.1c-0.8,0.3-0.8,0.3-1.1,0.6c-7.3,4.9-14.7,9.3-22,14.2
		c-0.8,0.3-1.4,0.3-1.7,0c-1.4-0.8-2.3-2.1-2.3-3.8c0-0.6,0-1.1,0.8-1.4c4.1-2.6,8.1-5.2,11.9-7.5c0.3-0.3,0.8-0.3,1.1-0.6
		c-0.3-0.3-0.6-0.5-0.9-0.8c-0.6,0-0.8,0.3-0.8,0.3c-5.4,2.9-10.4,5.3-15.8,8.2c-0.8,0.3-1.4,0.3-1.7,0c-1.7-1.1-2-2.4-1.8-4.4
		c0-0.6,0.3-0.8,0.5-1.1c4.4-2.3,8.4-4.4,12.5-6.4c1.1-0.6,2.4-1.5,4.1-2.1c0-0.6-0.3-0.8,0-1.1c-1.6,0.6-3,1.5-4.4,1.8
		c-2.7,1.2-5.7,2.1-8.7,3.6c-0.8,0.3-1.1,0-1.4-0.2c-1.7-1.1-2-2.4-1.8-4.4c0-0.6,0.3-0.8,1.1-1.1c4.9-1.8,10.1-3.9,14.8-6
		c0.6,0,1.1,0,0.8-0.9c-1.1,0-2.2,0.6-3.6,0.9c-3.3,0.6-6.9,1.6-10.2,2.2c-0.6,0-1.1,0-1.4-0.2c-1.4-1.3-1.8-3.3-1-4.7
		c0-0.6,0.3-0.8,1.1-0.6c2.7-0.6,5.5-1.3,8.2-1.9c5.5-1.3,11-2.5,17-3.8c5.5-1.3,10.2,0.5,13.7,4.9
		C171.4,49.2,172.3,53.3,171.6,57.5z"/>
	<path id="social" fill="#FFFFFF" d="M71.9,221.6c-17.7-1.3-32.7,12-34,29.7c-1.3,17.7,12,32.7,29.7,34c17.7,1.3,32.7-12,34-29.7
		C102.9,237.9,89.7,222.7,71.9,221.6z M55,264.6c-2.3-0.2-4.1-2.3-4-4.7c0.2-2.3,2.3-4.1,4.7-4c2.3,0.2,4.1,2.3,4,4.6
		C59.5,263,57.4,264.6,55,264.6z M77.3,264.1c-1.8-0.1-3.1-1.6-3-3.3c0.1-1.8,1.6-3.2,3.4-3.2c1.8,0.1,3.1,1.6,3,3.3
		C80.7,262.9,79,264.2,77.3,264.1z M90.1,249.2c-0.3,0.3-0.3,0.4-0.6,0.7c-1.5,1.7-2.9,3.2-4.3,4.7c-0.3,0.3-0.3,0.4-0.7,1
		c0.9-0.1,1.5-0.1,2-0.1s1,0.2,1,0.7c0,0.5-0.3,0.8-1,0.8c-1.6,0-3.1,0.2-4.7,0.2c-0.6,0.2-1.2-0.1-1.6-0.5
		c-0.6-0.8-1.3-0.8-2.2-0.9c-0.9,0.1-1.6,0-2.4,0.1c-0.4,0.1-0.4,0.2-0.8,0.3c-0.4,0.2-0.9,0.6-1.3,0.6c-3.3,0.3-6.6,0.5-9.9,0.6
		c-1.3,0.1-2.4-0.3-3.5-1.3c-0.4-0.5-1-0.9-1.5-1.4c-1.2-0.8-1.7-2-1.6-3.4c-0.2-3.3-0.2-6.5-0.3-9.8c-0.1-0.4,0.1-0.9,0.3-1.3
		c0.3-0.4,1.1-0.7,1.8-0.5c0.6,0.2,1,0.7,1,1.4c0.1,1.5,0.2,2.7,0.2,4.2c0.2,0.1,0.2,0.1,0.2,0.1c0.3-0.4,0.4-0.8,0.8-1.2
		c2.5-4.2,5.2-8.5,7.7-12.7c0.9-1.5,2-1.7,3.2-0.5L72,231c3.3,2.9,6.7,6.2,10,9.3c0.3,0.3,0.5,0.5,0.8,0.8c0.6,0.9,0.3,1.9-0.7,2.6
		c-3.8,2.8-7.4,5.6-11.3,8.6c-0.5,0.4-1.2,0.9-1.6,1.6c1.3-0.1,2.7,0,4-0.1c0.5,0,1,0.2,1.5,0.3c0.9,0.5,2.2,0.4,3.2-0.4
		c0.4-0.2,0.8-0.8,1.3-1.2c2.2-2.3,4.2-4.5,6.2-6.9c0.3-0.3,0.3-0.4,0.6-0.7c0.5-0.5,1.1-0.5,1.5-0.1c0.4,0.3,0.4,0.9,0.1,1.5
		c-0.6,0.7-1.1,1.2-1.7,1.8c-0.3,0.3-0.5,0.4-0.6,0.7c-0.3,0.4-0.1,0.9,0.1,1.3c0.4,0.3,0.9,0.5,1.2,0.1c0.6-0.7,1.3-1.3,1.8-2.1
		c0.3-0.3,0.3-0.4,0.6-0.7c0.4-0.2,1-0.2,1.4,0.1C90.4,248.4,90.5,248.8,90.1,249.2z"/>
	<path id="environmental" fill="#FFFFFF" d="M210.6,151.8c0.2,0.6,0.6,1.2,0.8,1.9c-0.3,0.5-0.6,0.9-0.9,1.5c-1.6-0.6-3.2-1.1-5-1.6
		C207.2,152.7,208.9,152.4,210.6,151.8z M207,142.9c-0.6,0.9-1.1,1.7-1.6,2.4c-0.5,0.7-1.2,1.5-1.5,2.6c1.8-0.8,3.3-1.5,4.9-2.3
		C208.1,144.7,207.6,143.9,207,142.9z M243.1,149c-0.3,17.8-14.9,31.9-32.7,31.8c-17.8-0.3-32.1-15-31.8-32.6
		c0.3-17.8,14.9-31.9,32.7-31.8S243.4,131.2,243.1,149z M226.5,150.6c4.8-5.5,2-13.2-5.1-14.2c0.1-2.6-0.9-4.8-3.3-5.9
		c-2.5-1.1-4.7-0.6-6.7,1c-2.5-2.5-5-3.1-7.4-2c-2.3,1-3.6,3.3-3.5,5.8c0.2,2.8,1.9,4.5,5.3,5.5c0,0.2-0.1,0.3-0.3,0.5
		c-1.7,2.6-3.3,5.1-4.9,7.7c-0.3,0.5-0.7,0.7-1.2,0.8c-2.6,0.8-5.3,1.5-7.9,2.3c-1.5,0.3-1.9,1.3-1.1,2.5c0.6,1,1.1,2,1.3,3.1
		c0.2,1.3,1.3,1.7,2.6,1c2.4-1.2,4.8-2.3,7-3.6c0.6-0.4,1.2-0.4,1.9-0.1c1.4,0.5,2.8,0.8,4.4,1.4c0.8,0.4,1.6,0.6,2.4,0.8
		c0,0.5,0,0.9,0,1.2c-0.1,4.2,3.4,8.2,8.2,8.1c5.7-0.2,8.1-5.4,7.4-8.9c-0.2-0.6,0.1-1.2,0.6-1.6c1.2-1.5,1.5-3.1,0.8-4.9
		C226.5,150.9,226.4,150.7,226.5,150.6z"/>
	<path id="financial" fill="#FFFFFF" d="M44.3,151c0.1,2-0.5,3.7-2.2,5c-0.9,0.8-2,1-3.2,1c-0.4,0-0.8-0.1-1.2-0.2
		c-0.3,0.6-0.6,1.3-1.5,1c-0.9-0.3-0.6-1.1-0.5-1.8c-0.3-0.1-0.5-0.2-0.9-0.4c-0.4,0.5-0.7,1.3-1.6,0.9c-0.6-0.3-0.7-0.6-0.4-1.8
		c-0.1-0.1-0.2-0.2-0.3-0.3c-3.1-2-2.6-6.1-0.4-8.2c0.9-0.9,2-1.2,3.2-1.1c0.9,0.1,1.5,0.6,1.5,1.3c0.1,0.8-0.5,1.3-1.5,1.5
		c-0.3,0-0.5,0-0.8,0.1c-1.1,0.2-1.7,0.8-1.9,1.7s0.2,1.6,1.2,2.3c0.2-0.5,0.4-1.1,0.7-1.6c0.4-0.6,0.8-0.9,1.4-0.7
		c0.5,0.2,0.7,0.7,0.4,1.5c-0.2,0.6-0.4,1.1-0.7,1.8c0.3,0.2,0.6,0.3,0.9,0.5c0.1-0.1,0.2-0.1,0.3-0.3c0.2-0.5,0.4-1.1,0.7-1.6
		c0.3-0.6,0.7-0.7,1.3-0.5c0.6,0.2,0.8,0.6,0.5,1.3c-0.2,0.6-0.5,1.2-0.7,1.8c0.9,0.4,1.7,0.3,2.3-0.4c0.6-0.7,0.8-1.6,0.4-2.4
		c-0.2-0.4-0.5-0.7-0.7-1.1c-0.5-0.7-0.5-1.4,0.1-1.9c0.4-0.4,1.2-0.4,1.9,0C43.6,148.8,44.1,149.8,44.3,151z M67.1,151.6
		c-0.6,17.8-15.4,31.8-33.2,31.4c-17.8-0.5-31.8-15.4-31.4-33.2C3.1,132,17.9,118,35.7,118.5C53.5,118.9,67.6,133.8,67.1,151.6z
		 M17.9,149.6c1.3-3.1,2.7-6.3,4-9.5c0.2-0.3,0.2-0.7,0.2-1c-0.4-2.3-0.7-4.5-1.1-6.7c0-0.3-0.2-0.5-0.3-0.8c-0.2,0-0.2,0-0.4,0
		c-0.1,0.3-0.3,0.6-0.3,0.9c-0.4,1.6-0.7,3.2-1.1,4.8c-0.8,3.3-1.9,6.5-3.7,9.3c-1.4,2.2-2.7,4.5-3.9,6.8c-0.3,0.4-0.6,0.8-0.2,1.4
		c0.3-0.1,0.6-0.2,0.9-0.4c1.8-1.2,3.5-2.4,5.3-3.7C17.5,150.4,17.7,150,17.9,149.6z M51.9,143.5c-1.5-3.8-4.1-6.6-7.9-8.4
		c-1.4-0.6-2.9-0.8-4.4-0.5c-1.5,0.3-2.9,1-4.1,1.8c-1.2,0.8-2.3,1.5-3.5,2.2c-2.3,1.3-4.7,1.9-7.3,1.4c-0.2,0-0.5,0-0.7,0
		c-1.5,3.7-3.1,7.4-4.5,11c0.2,0.2,0.3,0.3,0.5,0.4c2.5,1.5,3.9,3.8,4.7,6.6c0.3,0.9,0.4,1.8,0.7,2.7c0.5,1.5,0.8,3.1,1.4,4.6
		c0.9,2,2.4,3.3,4.5,4c3,1,6,0.9,9,0.1C50.2,166,56,153.7,51.9,143.5z"/>
	<path id="technical" fill="#FFFFFF" d="M186,252c0.4,0.9,0.8,1.8,1.1,2.7c-4.7,1.8-9.4,3.6-14.1,5.4c-0.4-0.9-0.8-1.8-1-2.9
		C176.5,255.7,181.3,253.8,186,252z M212.5,250.7c2.8,17.3-8.8,33.9-26.1,36.8s-33.9-8.8-36.8-26.1s8.8-33.9,26.1-36.8
		S209.6,233.3,212.5,250.7z M201.4,248.4c-1.1,1.3-2.2,2.6-3.4,4c-1.3-0.3-2.7-0.3-4-0.6c-0.2,0-0.6-0.3-0.7-0.5
		c-0.6-1.3-1-2.6-1.6-3.9c1.4-1.5,2.5-3,3.7-4.4c-4.2-1-8.5,1.8-9.4,6.2c0,0.6-0.3,1-1,1.1c-4.6,1.7-9.1,3.4-13.5,5.1
		c-0.9,0.4-1.4,0.2-2.2-0.4c-2.8-1.9-5.9-1.8-8.6,0c-2.8,1.8-3.8,4.3-3.6,7.7c-0.1,0.4,0.1,0.7,0.3,1.3c1.1-1.3,2.1-2.5,2.9-3.6
		c0.3-0.4,0.6-0.6,1.2-0.4c1.1,0.2,2.2,0.4,3.2,0.5c0.4,0.1,0.6,0.3,0.7,0.7c0.4,0.9,0.8,2.1,1.2,3c0.2,0.6,0.1,0.7-0.3,1.3
		c-0.9,1-1.8,2.1-2.6,3.2c-0.2,0.3-0.3,0.4-0.5,0.7c0.4,0.1,0.5,0.2,0.6,0c3.9,0.4,7.4-2,8.6-5.9c0.2-0.5,0.3-1,1-1.1
		c2.5-0.9,5-1.8,7.6-2.8s5.1-2,7.6-2.8c4.3,3,8.3,1.7,10.4-0.3C201.4,254.1,202.4,250.7,201.4,248.4z"/>
</g>
</svg>
