<?xml version="1.0" encoding="utf-8"?>
<!-- Generator: Adobe Illustrator 18.0.0, SVG Export Plug-In . SVG Version: 6.00 Build 0)  -->
<!DOCTYPE svg PUBLIC "-//W3C//DTD SVG 1.1//EN" "http://www.w3.org/Graphics/SVG/1.1/DTD/svg11.dtd">
<svg version="1.1" id="Layer_1" xmlns="http://www.w3.org/2000/svg" xmlns:xlink="http://www.w3.org/1999/xlink" x="0px" y="0px"
	 viewBox="0 0 264 315" enable-background="new 0 0 264 315" xml:space="preserve">
<g id="Layer_1_1_">
	<g>
		<path fill="none" d="M221.1,194.1c-9.7-1.1-18.3-6.6-23.4-14.6l-44.5,14.6H221.1z"/>
		<path fill="none" d="M137.6,186.2v0.4l31.5-42.5c-6.4,2.6-13,4.4-20,5.7L137.6,186.2z"/>
		<path fill="none" d="M137.6,175.6l8.1-25.1c-2.7,0.4-5.3,0.5-8.1,0.7V175.6z"/>
		<path fill="none" d="M42.2,220.4c0.2,0.9,0.5,1.6,0.7,2.6l79.5-25.5l-0.2-0.2H46.6c-2.4,0.5-4.9,0.9-7.5,1.1
			C39.1,206,40.2,213.5,42.2,220.4z"/>
		<path fill="none" d="M199.5,245.3l-50.7-36.3l28.7,38.8c4.4-2.2,9.3-3.5,14.5-3.5C194.4,244.4,196.9,244.8,199.5,245.3z"/>
		<path fill="none" d="M169.7,253.4L140.4,214l19.6,61C160.3,266.6,164,258.9,169.7,253.4z"/>
		<path fill="none" d="M57.2,139.9l68.3,48.7l0.4,0.2l-31.3-45c-9.5-4-18.3-9.5-26-16.1C64.4,131.1,60.5,135.3,57.2,139.9z"/>
		<path fill="none" d="M54.3,194.1h56.9l-44.3-13.5C64.2,186.2,59.8,191,54.3,194.1z"/>
		<path fill="none" d="M124.6,216l-27.1,39.2c4.9,5.5,7.9,12.8,8.1,20.7L124.6,216z"/>
		<path fill="none" d="M90.4,249l28.4-41.2L66.6,245c2.4-0.5,4.8-0.9,7.1-0.9C79.8,244.4,85.4,246.1,90.4,249z"/>
		<path fill="none" d="M193.8,170.8c-0.7-2.7-1.1-5.5-1.1-8.2c0-2.7,0.4-5.7,1.1-8.2L151,184.9L193.8,170.8z"/>
		<path fill="none" d="M127.9,185.8l-11.5-35.9c-5.7-0.9-11.2-2.4-16.5-4.2L127.9,185.8z"/>
		<path fill="none" d="M222.8,223c0.4-1.5,0.9-2.9,1.1-4.2c1.6-6.8,2.7-13.9,2.7-21.2h-83.5L222.8,223z"/>
		<path fill="none" d="M128.1,175.6V151c-2.7-0.2-5.5-0.4-8.1-0.7L128.1,175.6z"/>
		<path fill="none" d="M69.9,171.5l45.8,14.1l-50.4-36.1c3.1,4.9,4.9,10.8,4.9,17C70,168.2,70,169.9,69.9,171.5z"/>
		<path fill="none" d="M210.3,249c4.4-6.4,8.2-13.5,11-21.2c0.2-0.5,0.4-1.1,0.5-1.6l-79.5-25.5L210.3,249z"/>
		<path fill="none" d="M197.1,127.1c-6.6,5.7-13.9,10.6-21.8,14.3L140.5,188h0.2l55.3-39.5c2.4-4.9,5.9-9,10.1-12.1
			C203.2,133.3,200.2,130,197.1,127.1z"/>
		<path fill="none" d="M105.9,285.8c7.1,2.2,14.6,3.5,22.2,3.8c1.1,0,2,0.2,3.1,0.2v-83.1l-0.2,0.2L105.9,285.8z"/>
		<path fill="none" d="M45,229.6c2.7,7,6.2,13.5,10.3,19.6l67.9-48.5l-79.5,25.6C44.2,227.4,44.6,228.5,45,229.6z"/>
		<path fill="none" d="M134.5,289.8c1.1,0,2.2,0,3.1-0.2c7.7-0.4,15.4-1.6,22.5-3.8l-25.6-79.5V289.8z"/>
		<path fill="#FFFFFF" d="M197.1,127.1c3.1,2.9,6.2,6.2,8.8,9.5c2.7-2,5.9-3.7,9.2-4.6c-3.3-4.2-7-8.2-10.8-11.9
			C202.1,122.7,199.7,125,197.1,127.1z"/>
		<path fill="#FFFFFF" d="M221.1,194.1h-67.9l44.5-14.6c-1.6-2.7-2.9-5.7-3.8-8.8L151,184.7l42.8-30.6c0.5-1.8,1.1-3.7,2-5.5
			l-55.3,39.5h-0.2l34.8-46.7c-2,0.9-4,1.8-6,2.7l-31.7,42.5v-0.4l11.5-36.4c-1.1,0.2-2.4,0.4-3.7,0.5l-8.1,25.1v-24.4
			c-1.6,0.2-3.3,0.2-4.9,0.2c-1.5,0-2.9,0-4.4-0.2v24.5l-8.1-25.3c-1.1-0.2-2.4-0.4-3.7-0.5l11.5,35.9l-28-40.3
			c-1.8-0.5-3.7-1.5-5.5-2.2l31.3,45l-0.4-0.2l-68.3-48.7c3.3-4.4,7-8.8,11-12.5c-2.6-2.2-4.9-4.4-7.3-7c-4.4,4.2-8.4,8.8-12.1,13.5
			l0,0l-1.1,1.6c0,0.2-0.2,0.2-0.2,0.2l-0.4,0.4c7.3,2.2,13.5,7.1,17.6,13.5l50.4,35.9l-46-14.1c-0.5,3.1-1.5,6.2-2.9,9l44.3,13.5
			H53.2c-2.4,1.5-5.1,2.6-8.1,3.3h75.6l0.2,0.2l-79.5,25.5c-0.2-0.9-0.5-1.6-0.7-2.6c-1.8-7-2.9-14.5-3.1-22c-0.2,0-0.4,0-0.5,0
			c-3.3,0-6.4-0.5-9.5-1.5v0.4l0,0c0.2,9,1.5,17.9,3.7,26.2H31l0.9,2.4c0.4,1.5,0.9,2.7,1.3,4l0.9,2.6h0.2c2.9,8.1,7,15.4,11.7,22.3
			l0,0l1.3,1.8c4.4-5.7,10.8-9.9,17.9-11.5l52.2-37.2l-28.4,41.2c2.7,1.6,5.1,3.7,7.3,6.2l27.1-39.2l-18.9,59.7c0,0.2,0,0.2,0,0.4
			c0,6.8-2.2,13-5.7,18.1h0.2c0.9,0.4,1.6,0.5,2.6,0.9l0.2,0.2l0,0c8.1,2.4,16.5,4,25.3,4.4v0.2h3.1h1.6h1.6h3.1v-0.2
			c9.7-0.4,19.2-2.2,28.2-5.1c-3.7-5.1-5.7-11.5-5.7-18.3c0-0.4,0-0.9,0-1.3l-19.6-61l29.3,39.4c2.2-2.2,4.9-4,7.7-5.5l-28.7-38.8
			l50.7,36.3c7.1,1.6,13.4,5.9,17.8,11.5l0.5-0.9c0-0.2,0.2-0.2,0.2-0.2l0.5-0.9l0,0c5.1-7.5,9.3-15.6,12.3-24.2h0.2l0.7-2.6
			c0.4-1.5,0.9-2.7,1.3-4.2l0.7-2.4h-0.2c2-7.7,3.1-15.9,3.1-24.4l0,0v-3.3l0,0c0-0.7,0-1.5-0.2-2.2c-3.8,1.6-8.1,2.4-12.3,2.4
			C223.3,194.2,222.2,194.2,221.1,194.1z M55.4,249.2c-4.2-6-7.7-12.6-10.3-19.6c-0.4-1.1-0.9-2.2-1.1-3.3l79.5-25.6L55.4,249.2z
			 M131.2,289.8c-1.1,0-2.2,0-3.1-0.2c-7.7-0.4-15.2-1.6-22.2-3.8l25.3-79.1l0.2-0.2C131.2,206.5,131.2,289.8,131.2,289.8z
			 M160.1,285.8c-7.1,2.2-14.6,3.5-22.5,3.8c-1.1,0-2,0.2-3.1,0.2v-83.5L160.1,285.8z M221.3,227.9c-2.7,7.5-6.4,14.6-11,21.2
			l-67.9-48.7l79.5,25.5C221.7,226.7,221.5,227.4,221.3,227.9z M224,218.8c-0.4,1.5-0.7,2.9-1.1,4.2l-79.5-25.5H227
			C226.8,204.7,225.9,211.8,224,218.8z"/>
	</g>
</g>
<g id="bollen">
	<path id="institutional" fill="#FFFFFF" d="M223.1,277.4c2.6-19-10.8-36.4-29.8-39c-19-2.6-36.4,10.8-39,29.8s10.8,36.4,29.8,39
		S220.6,296.4,223.1,277.4z M194.4,257.1c-1.6,1.1-3.3,2-4.9,3.1c-0.4,0.2-0.5,0.2-0.9,0c-0.7-0.4-1.1-0.9-1.1-1.8
		c0-0.4,0.2-0.5,0.4-0.7c0.9-0.5,1.8-1.1,2.9-1.8c2.4-1.5,4.8-3.1,7.3-4.6c3.8-2.4,8.8-0.4,10.1,4c0.2,0.4,0.2,0.9,0.2,1.5
		c-0.4,2.7-0.7,5.3-1.1,8.1c0,0.4-0.2,0.5-0.5,0.5c-0.7,0.4-1.5,0.2-2.2-0.4c-0.2-0.2-0.4-0.4-0.2-0.5c0.2-1.1,0.4-2.4,0.5-3.5
		c0-0.2,0-0.2,0-0.4c0,0,0,0-0.2,0c-0.2,0.2-0.2,0.2-0.4,0.4c-2.4,3.1-4.9,6.4-7.5,9.7c-0.4,0.4-0.5,0.5-1.1,0.4
		c-0.5-0.2-1.1-0.5-1.5-1.3c-0.2-0.4-0.2-0.5,0.2-0.9c1.5-1.6,2.7-3.5,4-5.1c0.2-0.2,0.2-0.2,0.4-0.4c-0.2-0.2-0.4-0.2-0.4-0.2
		c-0.2,0.2-0.2,0.2-0.4,0.4c-1.8,2-3.7,4-5.7,6c-0.2,0.2-0.4,0.4-0.7,0.2c-0.9-0.2-1.5-0.7-1.6-1.5c-0.2-0.2,0-0.4,0.2-0.5
		c1.3-1.5,2.4-2.7,3.7-4c0.7-0.7,1.5-1.6,2.2-2.4c-0.2-0.2-0.2-0.4-0.4-0.5c-0.2,0.2-0.2,0.2-0.4,0.4c-1.5,1.3-3.1,2.7-4.6,4
		c-0.2,0.2-0.4,0.4-0.7,0.2c-0.9-0.4-1.3-0.9-1.5-1.6c0-0.4,0-0.4,0.2-0.5c1.8-1.6,3.8-3.3,5.7-4.9c0.2-0.2,0.4-0.4,0.2-0.5
		C194.6,256.9,194.4,256.9,194.4,257.1z M176.8,280.3c-2.4-1.3-4.9-2.6-7.3-3.8c-1.1-0.5-2.2-1.1-3.3-1.6c-2.6-1.5-4-4.2-3.5-7
		c0.4-1.6,1.1-2.9,2.2-3.8c0.2-0.2,0.4-0.2,0.5-0.4c2.6-1.1,5.1-2.2,7.7-3.1c0.4-0.2,0.5-0.2,0.7,0.2c0.7,0.5,1.1,1.5,0.9,2.2
		c0,0.2-0.2,0.4-0.4,0.4c-1.1,0.4-2.2,0.9-3.3,1.5c-0.2,0-0.2,0.2-0.4,0.2c0.2,0,0.4,0,0.4,0.2c4,0.5,8.1,1.1,12.1,1.6
		c0.4,0,0.5,0.2,0.7,0.5c0.4,0.7,0.2,1.5-0.4,2.2c-0.2,0.2-0.4,0.4-0.7,0.4c-2.2-0.4-4.4-0.5-6.6-0.9c-0.2,0-0.4,0-0.5-0.2
		c0,0.2,0,0.4,0,0.5c0.7,0.2,1.5,0.4,2.2,0.5c1.8,0.4,3.7,0.9,5.5,1.3c0.4,0.2,0.5,0.2,0.9,0.2c0.2,0,0.4,0.2,0.4,0.4
		c0.4,0.9,0.2,1.8-0.5,2.4c-0.2,0.2-0.4,0.2-0.5,0.2c-0.7-0.2-1.5-0.4-2.2-0.5c-1.5-0.4-2.9-0.5-4.4-0.9c-0.5-0.2-1.1-0.2-1.6-0.4
		c-0.2,0-0.4-0.2-0.5-0.2c-0.2,0.2-0.2,0.4-0.2,0.5c0.4,0.2,0.5,0.2,1.1,0.4c1.6,0.5,3.5,1.1,5.1,1.8c0.4,0.2,0.4,0.2,0.5,0.5
		c0.2,0.9-0.2,1.6-0.7,2.2c-0.2,0.2-0.4,0.2-0.5,0.2c-1.6-0.5-3.1-1.1-4.8-1.6c-0.9-0.4-1.6-0.5-2.6-0.9c-0.2-0.2-0.4-0.2-0.5,0.2
		c0.2,0.2,0.4,0.2,0.4,0.2c1.6,0.9,3.5,1.8,5.1,2.7c0.4,0.2,0.4,0.4,0.4,0.7c0,0.9-0.4,1.5-1.1,1.8
		C177.2,280.5,177,280.5,176.8,280.3z M193.5,297c-0.2-0.2-0.4-0.2-0.5-0.2c-2.2-1.6-4.4-3.5-6.6-5.1c-0.2-0.2-0.4-0.4-0.4-0.5
		c0.2-0.9,0.5-1.5,1.5-1.8c0.2-0.2,0.4-0.2,0.5,0.2c0.9,0.7,1.8,1.5,2.7,2.2c0.2,0.2,0.2,0.2,0.4,0.4c-0.2-0.2-0.2-0.4-0.2-0.5
		c-1.5-3.7-3.1-7.5-4.8-11.4c-0.2-0.4-0.2-0.5,0.2-0.9c0.5-0.5,1.1-0.9,1.8-0.7c0.4,0,0.5,0.2,0.5,0.5c0.9,2,1.6,4.2,2.6,6.2
		c0.2,0.2,0.2,0.4,0.2,0.4c0.2-0.2,0.4-0.2,0.4-0.2c0-0.2-0.2-0.4-0.2-0.4c-0.9-2.7-1.6-5.3-2.4-8.1c-0.2-0.4,0-0.5,0.2-0.9
		c0.5-0.5,1.3-0.9,2.2-0.5c0.2,0.2,0.4,0.2,0.4,0.4c0.5,2.2,1.3,4.2,2,6.4c0.2,0.5,0.4,1.5,0.5,2c0.2,0,0.4,0,0.5,0
		c-0.2-0.7-0.4-1.5-0.4-2.2c-0.4-1.5-0.5-2.9-0.9-4.2c-0.2-0.4,0-0.5,0.2-0.7c0.5-0.5,1.5-0.7,2.2-0.4c0.4,0.2,0.4,0.2,0.5,0.5
		c0.4,2.4,0.9,4.9,1.5,7.3c0,0.2,0,0.5,0.4,0.5c0-0.5,0-1.1-0.2-1.6c-0.2-1.6-0.2-3.1-0.2-4.8c0-0.4,0.2-0.4,0.4-0.5
		c0.5-0.5,1.6-0.5,2.4-0.2c0.2,0.2,0.4,0.4,0.4,0.5c0,1.3,0.2,2.7,0.2,4c0.2,2.7,0.2,5.5,0.4,8.1s-1.1,4.6-3.3,6
		C197.3,297.5,195.5,297.7,193.5,297z"/>
	<path id="social" fill="#FFFFFF" d="M181.4,147.9c34.6-27.1,40.8-77.3,13.5-111.9S117.8-4.8,83,22.3
		C48.4,49.4,42.2,99.6,69.5,134.2C96.6,169,146.8,175,181.4,147.9z M141.3,39.9c4.8-3.7,11.5-2.7,15.2,1.8
		c3.7,4.8,2.7,11.5-1.8,15.2c-4.8,3.7-11.5,2.9-15.2-1.8S136.5,43.4,141.3,39.9z M100.4,77.6c3.5-2.7,8.4-2.2,11.4,1.1
		c2.9,3.5,2.4,8.8-1.1,11.5c-3.5,2.7-8.4,2.2-11.4-1.1C96.2,85.7,96.8,80.5,100.4,77.6z M101.4,127.2c-0.2-0.7-0.2-1.6-0.2-2.4
		c0-5.3,0-10.6,0.2-15.9c0-0.9-0.2-1.6-0.2-3.1c-1.5,1.5-2.4,2.4-3.5,3.3c-1.3,1.1-2.2,1.1-3.1,0.4c-0.9-0.9-0.7-1.8,0.4-3.1
		c2.7-2.9,5.5-5.7,8.2-8.4c1.1-1.1,2.6-1.8,4.2-1.6c2.2,0.4,4-0.5,5.5-2.2c1.5-1.5,2.9-2.9,4.4-4.4c0.4-0.5,0.5-1.5,0.9-2
		c0.5-1.1,0.7-2.6,1.6-3.3c5.7-6,11.5-11.7,17.2-17.6c2.4-2.4,4.9-3.7,8.4-3.5c1.6,0.2,3.3,0.2,4.9,0c3.5-0.4,6.2,1.1,8.6,3.5
		c5.7,5.9,11.4,11.7,16.8,17.6c0.7,0.9,1.5,1.8,1.5,2.9c0.4,1.5-0.9,2.9-2.4,3.7c-1.6,0.7-3.1,0.2-4.2-0.9c-2.4-2.4-4.8-4.9-7.3-7.3
		c-0.2,0.2-0.4,0.2-0.5,0.4c0.2,1.1,0.4,2.2,0.5,3.5c2.2,12.1,4.6,24.4,6.8,36.4c0.7,4.2-1.1,6.4-5.3,6.4c-0.2,0-0.2,0-0.4,0
		c-11.4,0-22.7-0.2-34.2-0.2c-0.9,0-2-0.2-2.9-0.4c-2.4-0.9-3.5-3.1-2.7-6c2.2-11.5,4.6-23.1,6.8-34.6c0.4-1.8,0.7-3.7,0.5-5.7
		c-2.4,2.2-4.8,4.6-7,6.8c-0.9,0.9-2.2,1.5-3.5,1.8c-2.7,0.9-4.8,2.9-5.3,5.7c-0.4,1.3-0.2,2.7-0.4,4c-0.2,7.7-0.2,15.6-0.2,23.3
		c0,0.5,0,1.5,0,2c-0.2,1.8-0.9,2.7-2.4,2.7c-1.5,0-2.4-0.9-2.4-2.7c-0.2-2,0-4.2,0-6.2c0-0.7,0-1.6-0.2-2.4c-0.2-1.5-1.1-2-2.4-2
		c-1.5,0-2.2,0.9-2.4,2.2c-0.2,2.2-0.2,4.4-0.2,6.8c0,0.7,0.2,1.6-0.2,2.4c-0.4,1.3-1.1,2-2.6,1.8
		C102.3,129.1,101.5,128.3,101.4,127.2z"/>
	<path id="environmental" fill="#FFFFFF" d="M72.4,275.2c-0.5-0.4-1.1-0.9-1.8-1.5c0-0.5,0.2-1.3,0.2-2c1.8-0.4,3.5-0.9,5.7-1.3
		C75.2,272.2,73.7,273.7,72.4,275.2z M80.9,281.4c0-1.1,0.2-2.2,0.2-3.1s0.2-2-0.2-3.1c-1.3,1.6-2.4,3.3-3.3,4.9
		C78.7,280.5,79.6,280.9,80.9,281.4z M43.9,295.5c-9.5-16.7-3.7-37.7,12.8-47.4c16.7-9.5,37.9-3.8,47.4,12.8
		c9.5,16.7,3.8,37.9-12.8,47.4C74.6,317.8,53.4,312.2,43.9,295.5z M58.5,285.1c-1.6,7.7,5.5,13.4,12.6,10.4c1.5,2.4,3.5,3.8,6.4,3.7
		s4.8-1.8,5.7-4.6c3.7,0.9,6.2,0.2,8.1-2.2c1.5-2.2,1.5-5.1,0-7.3c-1.6-2.4-4.2-3.1-8.1-2.2c0-0.2-0.2-0.4-0.2-0.5
		c0.2-3.3,0.2-6.6,0.4-9.9c0-0.5,0.4-1.1,0.5-1.5c2-2.2,4-4.4,6.2-6.4c1.1-1.1,1.1-2.4-0.4-2.9c-1.1-0.5-2-1.3-2.9-2.2
		c-0.9-1.1-2.2-0.9-2.9,0.4c-1.5,2.4-3.1,4.8-4.6,7.3c-0.4,0.5-0.9,1.1-1.6,1.1c-1.6,0.4-3.1,0.7-4.8,1.1c-0.9,0.2-1.8,0.4-2.7,0.5
		c-0.2-0.4-0.4-0.7-0.5-1.1c-2.2-4-7.7-5.9-11.9-2.9c-5.1,3.5-4.6,9.5-2,12.3c0.5,0.5,0.5,1.1,0.4,1.8c-0.4,2,0.4,3.7,1.8,4.9
		C58.1,284.7,58.5,284.9,58.5,285.1z"/>
	<path id="financial" fill="#FFFFFF" d="M216.2,169.9c-1.6-1.5-2.4-3.3-2.2-5.5c0.2-1.3,0.7-2.4,1.6-3.1c0.4-0.4,0.5-0.5,1.1-0.9
		c-0.2-0.7-0.4-1.5,0.4-1.8c0.9-0.4,1.3,0.4,1.8,0.9c0.4-0.2,0.5-0.2,0.9-0.4c-0.2-0.7-0.4-1.5,0.5-1.8c0.5-0.2,0.9-0.2,1.6,1.1
		c0.2,0,0.4,0,0.4,0c3.8-0.9,6.8,2.6,6.6,6c0,1.5-0.5,2.4-1.6,3.3c-0.7,0.5-1.6,0.7-2.2,0.2c-0.5-0.5-0.5-1.5,0-2.2
		c0.2-0.2,0.4-0.4,0.5-0.5c0.5-0.9,0.5-1.8,0.2-2.7c-0.5-0.9-1.5-1.1-2.7-0.9c0.2,0.5,0.5,1.1,0.7,1.8c0.4,0.7,0.2,1.5-0.5,1.6
		c-0.5,0.2-1.1,0-1.5-0.7c-0.4-0.5-0.5-1.1-0.9-1.8c-0.4,0.2-0.7,0.2-1.1,0.4c0,0.2,0,0.4,0,0.4c0.2,0.5,0.5,1.1,0.7,1.8
		c0.2,0.5,0,1.1-0.5,1.5c-0.5,0.4-1.1,0.2-1.5-0.5c-0.4-0.5-0.5-1.3-0.9-1.8c-0.9,0.4-1.5,1.1-1.5,2c0,0.9,0.5,1.8,1.6,2.2
		c0.4,0.2,0.9,0.2,1.5,0.2c0.9,0.2,1.5,0.7,1.5,1.5s-0.5,1.3-1.5,1.5C218.2,171,217.1,170.6,216.2,169.9z M198.4,186.9
		c-13.4-13.9-12.8-35.7,0.9-49.1c13.9-13.4,35.7-12.8,49.1,0.9c13.4,13.9,12.8,35.7-0.9,49.1C233.6,201.2,211.6,200.8,198.4,186.9z
		 M237,150.7c1.5,3.5,2.9,6.8,4.2,10.3c0.2,0.4,0.4,0.7,0.5,0.9c2,1.5,4,2.7,6,4.2c0.2,0.2,0.5,0.2,0.7,0.4c0.2-0.2,0.2-0.2,0.4-0.2
		c-0.2-0.4-0.2-0.5-0.4-0.9c-0.9-1.5-1.8-2.9-2.9-4.4c-1.8-3.1-3.5-6.2-4.4-9.9c-0.5-2.7-1.5-5.5-2.2-8.2c-0.2-0.4-0.2-1.1-0.9-1.1
		c-0.2,0.4-0.4,0.5-0.4,0.9c-0.4,2.2-0.7,4.6-1.1,6.8C236.9,149.9,236.9,150.3,237,150.7z M216,181.4c4,1.6,8.2,1.8,12.3,0.2
		c1.5-0.5,2.7-1.6,3.7-3.1c0.9-1.5,1.5-2.9,1.8-4.4c0.4-1.5,0.5-2.9,0.9-4.4c0.7-2.7,2-4.9,4.4-6.8c0.2-0.2,0.4-0.4,0.5-0.5
		c-1.6-4-3.3-7.9-4.9-11.9c-0.4,0-0.4,0-0.5,0c-2.9,0.7-5.9,0.2-8.4-1.5c-0.9-0.5-1.6-1.1-2.6-1.5c-1.5-0.9-2.9-1.6-4.6-2.4
		c-2.2-0.9-4.4-0.5-6.4,0.4c-3.1,1.5-5.3,3.8-6.8,7C200,163.3,205.2,177,216,181.4z"/>
	<path id="technical" fill="#FFFFFF" d="M38.6,174.3c-1.1-0.4-2-0.5-3.1-0.9c1.8-5.1,3.5-10.3,5.3-15.4c1.1,0.4,2,0.7,3.1,1.1
		C42.2,164,40.4,169.2,38.6,174.3z M21.5,197.2C5,187.7-0.3,166.6,9.3,150.1s30.6-21.8,47.1-12.3s21.8,30.6,12.3,47.1
		C58.9,201.4,37.8,206.7,21.5,197.2z M31.2,189.5c-0.4-1.8-0.7-3.7-1.1-5.5c1.1-0.9,2.2-1.8,3.3-2.9c0.2-0.2,0.5-0.4,0.9-0.2
		c1.5,0.4,2.9,0.9,4.2,1.5c0.4,2,0.7,4,1.1,6.2c3.7-2.9,4.4-8.1,1.5-11.9c-0.4-0.5-0.5-1.1-0.4-1.6c1.6-4.9,3.5-9.7,5.1-14.6
		c0.4-0.9,0.7-1.5,1.6-1.6c3.5-1.1,5.5-3.5,6-7c0.4-3.5-0.9-6.2-3.8-8.2c-0.4-0.2-0.5-0.4-1.1-0.5c0.4,1.8,0.5,3.3,0.9,4.9
		c0.2,0.5,0,0.9-0.4,1.3c-0.9,0.7-1.8,1.5-2.7,2.4c-0.4,0.4-0.5,0.4-1.1,0.2c-1.1-0.4-2.2-0.7-3.5-1.1c-0.5-0.2-0.7-0.5-0.9-1.1
		c-0.2-1.5-0.5-2.9-0.9-4.4c-0.2-0.4-0.2-0.5-0.4-0.9c-0.2,0.2-0.4,0.4-0.5,0.4c-3.1,2.9-3.5,7.5-0.9,11c0.4,0.5,0.5,1.1,0.4,1.6
		c-0.9,2.7-1.8,5.5-2.7,8.1c-0.9,2.7-1.8,5.5-2.9,8.2c-5.5,1.5-7.1,5.7-7,8.8C26.1,185.6,28.5,188.9,31.2,189.5z"/>
</g>
</svg>
