<?xml version="1.0" encoding="utf-8"?>
<!-- Generator: Adobe Illustrator 18.0.0, SVG Export Plug-In . SVG Version: 6.00 Build 0)  -->
<!DOCTYPE svg PUBLIC "-//W3C//DTD SVG 1.1//EN" "http://www.w3.org/Graphics/SVG/1.1/DTD/svg11.dtd">
<svg version="1.1" xmlns="http://www.w3.org/2000/svg" xmlns:xlink="http://www.w3.org/1999/xlink" x="0px" y="0px"
	 viewBox="0 0 329 316" enable-background="new 0 0 329 316" xml:space="preserve">
<g id="Layer_2">
</g>
<g id="Layer_1">
	<g id="Layer_1_1_">
		<g>
			<path fill="none" d="M171.1,84.4v57.9l22.2-69.7C187.5,79,179.6,83,171.1,84.4z"/>
			<path fill="none" d="M99.6,69.7c-0.1,0.1-0.3,0.1-0.4,0.3l59.6,85.6l-28.7-89.8c-1.7-2.9-3.2-6.1-4.2-9.4
				C116.5,59.8,107.8,64.2,99.6,69.7z"/>
			<path fill="none" d="M249.5,230.8l-64.7-46.1l36.6,49.3c5.6-2.8,11.7-4.5,18.4-4.5C243.2,229.6,246.4,230,249.5,230.8z"/>
			<path fill="none" d="M211.8,241.1L174.7,191l25,77.9C199.9,257.8,204.5,248.1,211.8,241.1z"/>
			<path fill="none" d="M171.1,156.1v0.4l62.8-84.6c-2.3-1.6-4.5-3.1-6.8-4.5c-7.6-4.6-15.6-8.5-24.2-11.3c-0.3,1.1-0.7,2.1-1.1,3.2
				L171.1,156.1z"/>
			<path fill="none" d="M159,142.7V84.7c-8.4-1.1-16-4.8-21.9-10.2L159,142.7z"/>
			<path fill="none" d="M154.9,193.5L121,242.7c6.1,6.9,9.8,15.8,10.1,25.7L154.9,193.5z"/>
			<path fill="none" d="M111.8,234.8l35.5-51.6l-65.2,46.5c2.8-0.7,5.7-0.9,8.8-0.9C98.5,229,105.7,231.1,111.8,234.8z"/>
			<path fill="none" d="M85.7,137.5l57.9,17.7L80.3,110c3.7,6.1,6,13.3,6,21C86.3,133.2,86.1,135.4,85.7,137.5z"/>
			<path fill="none" d="M66.1,165.9h71.9l-55.9-17C78.4,156,72.9,161.9,66.1,165.9z"/>
			<path fill="none" d="M51,199.1c0.3,1.1,0.7,2.1,0.9,3.2l99.6-32.1l-0.3-0.1H55.6c-2.8,0.7-5.7,1.1-8.6,1.2
				C47.3,180.8,48.8,190.2,51,199.1z"/>
			<path fill="none" d="M278.3,202.2c0.5-1.7,1.1-3.6,1.5-5.4c2.1-8.6,3.3-17.6,3.6-26.7h-105L278.3,202.2z"/>
			<path fill="none" d="M262.5,234.8c5.7-8.2,10.4-17.2,13.7-26.7c0.3-0.7,0.5-1.5,0.8-2.1l-99.7-32.1L262.5,234.8z"/>
			<path fill="none" d="M237.3,74.4l-62.5,84.2h0.1l69.3-49.6c2.9-6.2,7.4-11.5,12.8-15.4C251,86.4,244.4,80,237.3,74.4z"/>
			<path fill="none" d="M274.7,165.9c-11.9-1.7-22.1-8.6-28.3-18.2l-55.9,18.2H274.7z"/>
			<path fill="none" d="M241.7,136.7c-0.9-3.3-1.5-6.9-1.5-10.5c0-3.6,0.4-7,1.3-10.2l-53.6,38.3L241.7,136.7z"/>
			<path fill="none" d="M131.2,281.1c9,2.7,18.2,4.4,28,4.8c1.3,0,2.7,0.1,4,0.1V181.5l-0.1,0.3L131.2,281.1z"/>
			<path fill="none" d="M54.8,210.5c3.3,8.8,7.8,17,12.9,24.6l85.2-60.9l-99.7,32.1C53.7,207.7,54.2,209,54.8,210.5z"/>
			<path fill="none" d="M156.4,159L95.9,72.2c-2,1.5-4,2.9-5.8,4.5C82.8,82.7,76,89.9,70.4,97.6l85.8,61.2L156.4,159z"/>
			<path fill="none" d="M167.1,286.2c1.3,0,2.7,0,4-0.1c9.8-0.5,19.2-2.1,28.2-4.9l-32.1-99.9V286.2z"/>
			<path fill="#FFFFFF" d="M274.7,165.9h-84.2l55.9-18.2c-2.1-3.3-3.9-7-4.9-10.9l-53.6,17.6l53.6-38.3c0.7-2.4,1.5-4.6,2.5-6.9
				l-69.3,49.5h-0.1l62.5-84.2c7.3,5.6,13.8,12,19.6,19.2c3.5-2.5,7.4-4.5,11.5-5.8c-6.9-8.9-14.8-16.6-23.5-23.5l0,0l-0.5-0.4
				l0.1-0.1l-4-2.8l-2.3-1.6l-3.6-2.5l-0.1,0.1c-8.6-5.4-17.8-9.8-27.5-12.9l0,0l-0.4-0.1c-0.7-0.3-1.2-0.4-1.9-0.5
				c0,0.5,0,1.1,0,1.6c0,3.9-0.5,7.7-1.6,11.2c8.6,2.9,16.6,6.8,24.2,11.3c2.3,1.5,4.5,2.9,6.8,4.5l-62.8,84.6v-0.4l30.9-97.1
				c-2,5.2-4.9,9.8-8.8,13.6l-22.2,69.7V84.4c-2.1,0.4-4.4,0.5-6.6,0.5c-1.9,0-3.6-0.1-5.3-0.4v58l-21.9-68.2
				c-2.8-2.5-5.2-5.4-7.2-8.6l28.8,89.6L99.3,69.9c0.1-0.1,0.3-0.1,0.4-0.3c8.1-5.4,16.9-9.8,26.3-13c-1.1-3.7-1.7-7.7-1.7-11.6
				c0-0.4,0-0.8,0-1.2c-11.5,3.9-22.3,9.2-32.1,15.7l-0.1-0.1l-3.3,2.4l-0.1,0.1l0,0l-1.1,0.8l-1.1,0.8l-4.1,3.1l0.1,0.1
				C74,73.5,66.4,81.6,59.9,90.4l0,0l-1.5,2c0,0.1-0.1,0.1-0.1,0.3l-0.1,0.1c9.3,2.9,17.2,9.3,22.2,17.3l63.2,45.1l-57.9-17.7
				c-0.7,4-1.9,7.8-3.7,11.3l55.9,17H66.1c-3.2,1.9-6.6,3.2-10.4,4.1h95.9l0.3,0.1l-99.7,32.1c-0.3-1.1-0.7-2.1-0.9-3.2
				c-2.4-8.9-3.9-18.2-4.1-27.9c-0.4,0-0.7,0-1.1,0c-4.1,0-8.1-0.7-11.7-1.7v0.5l0,0c0.1,11.3,1.9,22.5,4.8,32.9H39l1.1,3.2
				c0.5,1.7,1.1,3.3,1.6,5l1.1,3.2h0.1c3.9,10.1,8.8,19.4,14.8,28l0,0l1.5,2.1c5.7-7.3,13.7-12.5,23.1-14.6l65.3-46.7l-35.5,51.6
				c3.5,2.1,6.5,4.8,9.3,7.8l33.8-49.2L131.4,268c0,0.3,0,0.7,0,0.9c0,8.6-2.7,16.4-7.3,23l0,0c1.1,0.4,2.1,0.7,3.2,1.1l0.3,0.1l0,0
				c10.2,3.1,20.7,4.9,31.9,5.4v0.1h4h2.1h2.1h4v-0.1c12.2-0.5,24.2-2.8,35.3-6.5c-4.2-6.4-6.8-14-6.8-22.3c0-0.3,0-0.7,0-0.9
				l-25-77.9l37.1,50.1c2.9-2.8,6.1-5.2,9.7-7l-36.8-49.3l64.6,46.1c8.8,2.1,16.2,7,21.7,13.7l0.7-0.8c0-0.1,0.1-0.1,0.1-0.3
				l0.9-1.2l0,0c6.5-9.3,11.7-19.4,15.6-30.3h0.1l0.9-3.2c0.5-1.7,1.1-3.5,1.6-5.2l0.9-3.1h-0.1c2.5-9.8,3.9-19.9,4.1-30.4l0,0v-4.1
				l0,0c0-0.9,0-1.7-0.1-2.7c-4.8,2-10,3.1-15.3,3.1C278.6,166.5,276.6,166.2,274.7,165.9z M67.8,235c-5.3-7.7-9.7-15.8-12.9-24.6
				c-0.5-1.3-1.1-2.8-1.5-4.2l99.7-32.1L67.8,235z M70.2,97.7c5.8-7.8,12.4-14.8,19.8-20.9c1.9-1.6,3.9-3.1,5.8-4.5l60.5,86.8
				l-0.4-0.1L70.2,97.7z M163,286.2c-1.3,0-2.7,0-4-0.1c-9.7-0.5-19-2.1-28-4.8l31.8-99.4l0.1-0.3L163,286.2L163,286.2L163,286.2z
				 M199.2,281.1c-9,2.8-18.5,4.4-28.2,4.9c-1.3,0-2.7,0.1-4,0.1V181.2L199.2,281.1z M276.2,208.4c-3.5,9.6-8.1,18.5-13.7,26.7
				l-85.4-60.9l99.7,32.1C276.7,206.9,276.4,207.6,276.2,208.4z M279.8,196.8c-0.4,1.9-0.9,3.6-1.5,5.4L178.3,170h104.9
				C283.1,179.2,281.9,188.3,279.8,196.8z"/>
		</g>
	</g>
	<g id="bollen">
		<path id="institutional_1_" fill="#FFFFFF" d="M164.3,1.9c-23.8,0-43.1,19.3-43.1,43.1s19.3,43.1,43.1,43.1
			c23.8,0,43.1-19.3,43.1-43.1S188.1,1.9,164.3,1.9z M144,40.7c1.6,1.9,3.1,3.7,4.6,5.4c0.3,0.3,0.4,0.7,0.1,1.1
			c-0.4,0.9-1.1,1.6-2.1,1.7c-0.4,0.1-0.7,0-0.9-0.3c-0.9-1.1-1.9-2.1-2.8-3.3c-2.3-2.7-4.5-5.4-6.8-8.1c-3.6-4.2-2-10.8,3.2-12.9
			c0.5-0.3,1.1-0.4,1.6-0.4c3.3,0,6.8,0,10.1,0c0.4,0,0.7,0.1,0.9,0.5c0.5,0.9,0.5,1.9,0,2.8c-0.1,0.3-0.4,0.4-0.8,0.4
			c-1.5,0-2.9,0-4.4,0c-0.1,0-0.3,0-0.5,0c0,0,0,0,0,0.1c0.1,0.1,0.3,0.1,0.4,0.3c4.4,2.5,8.8,5,13,7.6c0.7,0.4,0.7,0.5,0.7,1.3
			c-0.1,0.8-0.5,1.5-1.3,2c-0.4,0.3-0.7,0.3-1.1,0c-2.4-1.5-4.8-2.8-7.2-4.1c-0.1-0.1-0.4-0.1-0.5-0.3c-0.1,0.3-0.1,0.4-0.3,0.5
			c0.1,0.1,0.4,0.3,0.5,0.4c2.8,2,5.6,4,8.5,6c0.4,0.3,0.5,0.5,0.4,0.9c-0.1,1.1-0.7,1.9-1.6,2.3c-0.3,0.1-0.5,0.1-0.9-0.1
			c-1.9-1.3-3.7-2.7-5.6-4c-1.1-0.8-2.3-1.6-3.3-2.4c-0.1,0.1-0.3,0.3-0.5,0.4c0.1,0.1,0.3,0.3,0.4,0.4c1.9,1.7,3.9,3.3,5.7,5
			c0.3,0.3,0.4,0.5,0.3,0.9c-0.3,1.1-0.8,1.7-1.9,2.1c-0.3,0.1-0.5,0-0.9-0.1c-2.4-2.1-4.8-4.1-7-6.2c-0.3-0.1-0.4-0.4-0.8-0.1
			C143.7,40.4,143.9,40.6,144,40.7z M175.6,58.5c-1.2,3.2-2.4,6.4-3.5,9.6c-0.5,1.5-1.1,2.9-1.6,4.4c-1.2,3.5-4.5,5.6-8.1,5.4
			c-2-0.1-3.7-0.8-5.2-2.1c-0.1-0.1-0.4-0.4-0.5-0.7c-1.7-3.1-3.5-6-5.2-9c-0.1-0.3-0.1-0.5,0-0.9c0.5-0.9,1.5-1.5,2.5-1.5
			c0.3,0,0.5,0.1,0.7,0.4c0.7,1.3,1.5,2.5,2.3,3.9c0.1,0.1,0.1,0.3,0.4,0.4c0-0.1,0-0.4,0-0.5c0-5,0-10.2,0-15.2
			c0-0.5,0.1-0.8,0.5-0.9c0.9-0.5,1.9-0.4,2.7,0.1c0.3,0.1,0.4,0.4,0.4,0.8c0,2.8,0,5.4,0,8.2c0,0.3,0,0.4,0,0.7
			c0.3,0,0.4-0.1,0.7-0.1c0.1-0.9,0.1-1.9,0.3-2.8c0.3-2.4,0.4-4.6,0.7-7c0-0.4,0.1-0.8,0.1-1.3c0-0.3,0.1-0.4,0.3-0.5
			c0.9-0.7,2.4-0.5,3.2,0.3c0.1,0.1,0.3,0.4,0.1,0.7c-0.1,0.9-0.1,1.9-0.3,2.8c-0.1,1.9-0.3,3.7-0.5,5.6c0,0.7-0.1,1.3-0.1,2.1
			c0,0.1,0,0.4,0,0.7c0.3,0.1,0.4,0.1,0.7,0.3c0.1-0.5,0.1-0.9,0.3-1.3c0.4-2.3,0.9-4.5,1.3-6.6c0.1-0.4,0.3-0.5,0.5-0.7
			c0.9-0.4,2.1-0.1,2.8,0.5c0.3,0.3,0.3,0.4,0.3,0.8c-0.4,2-0.8,4.1-1.2,6.1c-0.3,1.1-0.4,2.3-0.7,3.3c0,0.3-0.1,0.4,0.3,0.7
			c0.1-0.1,0.1-0.4,0.3-0.5c0.8-2.3,1.7-4.5,2.5-6.8c0.1-0.4,0.4-0.5,0.8-0.7c1.1-0.1,1.9,0.1,2.5,1.1
			C175.8,57.9,175.8,58.2,175.6,58.5z M193.3,35.1c0,0.3-0.1,0.4-0.3,0.7c-1.7,3.1-3.5,6-5.2,9c-0.1,0.4-0.4,0.5-0.8,0.5
			c-1.1,0-1.9-0.5-2.4-1.5c-0.1-0.3-0.1-0.5,0-0.8c0.8-1.3,1.5-2.5,2.3-3.9c0.1-0.1,0.1-0.3,0.3-0.5c-0.3,0.1-0.5,0.3-0.7,0.4
			c-4.4,2.5-8.8,5-13,7.6c-0.4,0.3-0.8,0.3-1.2,0c-0.8-0.5-1.2-1.3-1.2-2.3c0-0.4,0.1-0.7,0.5-0.8c2.4-1.3,4.8-2.8,7.2-4.1
			c0.1-0.1,0.3-0.1,0.5-0.3c-0.1-0.1-0.3-0.3-0.4-0.5c-0.1,0.1-0.4,0.1-0.5,0.3c-3.2,1.5-6.2,2.9-9.4,4.4c-0.4,0.1-0.8,0.1-1.1-0.1
			c-0.8-0.7-1.2-1.5-1.1-2.5c0-0.3,0.1-0.5,0.5-0.7c2.5-1.2,5-2.4,7.6-3.5c0.8-0.4,1.6-0.8,2.4-1.1c0-0.3,0-0.4-0.1-0.7
			c-0.9,0.3-1.9,0.7-2.7,0.9c-1.7,0.5-3.5,1.2-5,1.7c-0.4,0.1-0.7,0-0.9-0.1c-0.8-0.7-1.1-1.6-0.9-2.7c0.1-0.4,0.3-0.5,0.7-0.7
			c2.9-0.9,6-2,8.9-3.1c0.3-0.1,0.7-0.1,0.5-0.5c-0.7,0.1-1.3,0.3-2,0.4c-2,0.4-3.9,0.7-5.8,1.1c-0.4,0-0.5,0-0.8-0.3
			c-0.7-0.8-0.9-1.9-0.5-2.9c0.1-0.3,0.3-0.4,0.7-0.5c1.6-0.3,3.2-0.5,4.8-0.8c3.3-0.5,6.6-1.2,10-1.7c3.2-0.5,5.8,0.5,7.8,3.2
			C193.3,30.3,193.9,32.7,193.3,35.1z"/>
		<path id="social_1_" fill="#FFFFFF" d="M90.8,225.8c-23.8,0-43.2,19.3-43.2,43.2s19.3,43.2,43.2,43.2c23.8,0,43.2-19.3,43.2-43.2
			S114.6,225.8,90.8,225.8z M71.8,285.4c-3.2,0-5.8-2.7-5.8-6c0-3.2,2.7-5.8,6-5.8c3.2,0,5.8,2.7,5.8,5.8
			C77.6,282.7,75,285.4,71.8,285.4z M101.8,282.8c-2.4,0-4.4-1.9-4.4-4.2c0-2.5,1.9-4.5,4.4-4.5c2.4,0,4.4,1.9,4.4,4.2
			C106.4,280.7,104.4,282.8,101.8,282.8z M117.9,261.4c-0.3,0.4-0.5,0.7-0.8,1.1c-1.7,2.3-3.6,4.5-5.3,6.8c-0.3,0.4-0.5,0.8-0.9,1.3
			c1.1-0.1,1.9-0.1,2.7-0.3c0.9,0,1.3,0.3,1.5,0.9c0,0.7-0.3,1.1-1.2,1.2c-2.1,0.3-4.2,0.5-6.4,0.9c-0.9,0.1-1.7,0-2.4-0.7
			c-0.9-0.9-1.9-1.1-3.1-0.9c-1.1,0.1-2.3,0.3-3.3,0.4c-0.4,0-0.7,0.4-1.1,0.5c-0.5,0.3-1.2,0.8-1.7,0.9c-4.4,0.7-8.9,1.2-13.2,1.7
			c-1.9,0.3-3.3-0.1-4.8-1.3c-0.7-0.7-1.3-1.2-2.1-1.7c-1.6-1.1-2.4-2.5-2.5-4.4c-0.4-4.4-0.9-8.8-1.3-13c0-0.5,0.1-1.3,0.4-1.9
			c0.4-0.8,1.5-0.9,2.3-0.8c0.9,0.3,1.3,0.9,1.5,1.9c0.3,1.9,0.4,3.7,0.7,5.6c0.1,0,0.3,0,0.3,0c0.3-0.5,0.7-1.1,0.9-1.6
			c3.1-6,6.1-11.9,9.3-17.8c1.1-2,2.7-2.4,4.5-1.1c0,0,0.1,0,0.1,0.1c4.9,3.9,9.7,7.7,14.5,11.5c0.4,0.3,0.8,0.7,1.1,1.2
			c0.8,1.2,0.4,2.4-0.8,3.6c-4.8,4.2-9.7,8.4-14.5,12.4c-0.8,0.7-1.5,1.3-2.1,2.3c1.7-0.1,3.6-0.4,5.3-0.5c0.8-0.1,1.5,0.1,2.1,0.4
			c1.5,0.5,2.9,0.3,4.1-0.7c0.5-0.4,1.1-1.1,1.5-1.7c2.7-3.3,5.2-6.6,7.8-10c0.3-0.3,0.4-0.7,0.7-0.9c0.7-0.8,1.3-0.8,2-0.4
			c0.7,0.5,0.8,1.2,0.1,2c-0.7,0.9-1.3,1.7-2.1,2.7c-0.3,0.4-0.5,0.7-0.8,1.1c-0.4,0.7-0.3,1.2,0.4,1.7c0.5,0.5,1.2,0.4,1.7-0.1
			c0.8-0.9,1.6-1.9,2.3-2.9c0.3-0.3,0.5-0.7,0.8-0.9c0.5-0.5,1.2-0.5,1.7,0C118.2,260.2,118.3,260.8,117.9,261.4z"/>
		<path id="environmental_1_" fill="#FFFFFF" d="M280,130.4c0.4,0.9,0.7,1.7,1.1,2.5c-0.4,0.7-0.8,1.3-1.3,2.1
			c-2.1-0.7-4.4-1.3-6.8-2.1C275.4,131.9,277.6,131.2,280,130.4z M274.8,118.6c-0.8,1.2-1.5,2.3-2.1,3.3c-0.7,1.1-1.5,2.1-1.9,3.6
			c2.4-1.1,4.6-2,6.6-3.2C276.6,121,275.8,119.9,274.8,118.6z M323.4,126.1c0,23.8-19.3,43.2-43.2,43.2S237,150,237,126.1
			s19.3-43.2,43.2-43.2S323.4,102.4,323.4,126.1z M301,128.5c6.5-7.3,2.4-17.8-7.2-19c-0.1-3.6-1.5-6.4-4.6-7.8
			c-3.3-1.6-6.2-0.8-9,1.3c-3.5-3.3-6.8-4.1-10.1-2.5c-3.1,1.5-4.8,4.6-4.5,8c0.3,3.7,2.7,6,7.3,7.4c-0.1,0.1-0.1,0.4-0.3,0.5
			c-2.1,3.5-4.2,7-6.4,10.5c-0.4,0.7-0.9,0.9-1.6,1.2c-3.6,1.1-7.2,2.3-10.7,3.3c-1.9,0.5-2.5,1.9-1.5,3.5c0.9,1.3,1.5,2.7,1.7,4.2
			c0.4,1.7,1.9,2.3,3.5,1.3c3.2-1.7,6.4-3.3,9.4-4.9c0.8-0.4,1.6-0.5,2.5-0.1c1.9,0.7,3.9,1.2,5.8,1.9c1.1,0.4,2.3,0.7,3.3,1.1
			c0,0.7,0,1.1,0,1.6c-0.1,5.7,4.6,10.9,11.1,10.6c7.6-0.5,10.8-7.4,9.8-12c-0.1-0.9,0-1.6,0.7-2.3c1.6-2,2-4.2,1.1-6.6
			C301.3,129,301.2,128.7,301,128.5z"/>
		<path id="financial_1_" fill="#FFFFFF" d="M58.9,131.4c0.3,2.7-0.7,5-2.7,6.9c-1.2,1.1-2.7,1.5-4.2,1.5c-0.5,0-1.1-0.1-1.6-0.1
			c-0.4,0.8-0.8,1.7-2,1.3s-0.8-1.5-0.8-2.4c-0.4-0.1-0.8-0.3-1.2-0.5c-0.5,0.8-0.9,1.7-2.1,1.3c-0.8-0.4-0.9-0.8-0.7-2.4
			c-0.1-0.1-0.3-0.3-0.4-0.4c-4.2-2.5-3.7-8.1-0.8-10.9c1.2-1.2,2.7-1.7,4.4-1.6c1.3,0.1,2.1,0.8,2.1,1.7c0,1.1-0.7,1.7-1.9,2
			c-0.3,0-0.7,0-0.9,0.1c-1.3,0.3-2.3,1.1-2.5,2.4c-0.3,1.2,0.3,2.1,1.7,3.1c0.3-0.8,0.5-1.5,0.9-2.3c0.4-0.9,1.1-1.2,1.9-0.9
			c0.7,0.3,0.9,0.9,0.5,1.9c-0.3,0.8-0.5,1.5-0.9,2.4c0.4,0.3,0.8,0.4,1.2,0.7c0.1-0.1,0.3-0.3,0.4-0.4c0.3-0.8,0.5-1.5,0.9-2.3
			c0.4-0.8,0.9-1.1,1.7-0.8c0.7,0.3,1.1,0.8,0.8,1.7c-0.3,0.8-0.5,1.6-0.8,2.4c1.2,0.5,2.3,0.3,3.1-0.7c0.8-0.9,1.1-2.3,0.4-3.3
			c-0.3-0.5-0.7-0.9-1.1-1.3c-0.7-0.9-0.7-1.9,0-2.7c0.7-0.7,1.5-0.7,2.5-0.1C58,128.5,58.8,129.8,58.9,131.4z M89.5,131.2
			c0,23.8-19.3,43.2-43.2,43.2S3.2,155.2,3.2,131.2C3.2,107.4,22.5,88,46.4,88S89.5,107.4,89.5,131.2z M23.6,130.4
			c1.7-4.2,3.3-8.6,5-12.9c0.1-0.4,0.3-0.9,0.1-1.3c-0.5-3.1-1.2-6-1.7-8.9c-0.1-0.4-0.3-0.7-0.4-0.9c-0.1,0-0.3,0-0.5,0
			c-0.1,0.4-0.4,0.8-0.4,1.2c-0.4,2.1-0.8,4.2-1.2,6.4c-0.9,4.5-2.3,8.8-4.6,12.6c-1.9,3.1-3.5,6.1-5,9.3c-0.3,0.5-0.8,1.1-0.3,1.9
			c0.4-0.1,0.8-0.4,1.2-0.7c2.3-1.7,4.6-3.5,6.9-5.2C23.1,131.5,23.5,131,23.6,130.4z M69,121.1c-2.3-5-5.7-8.8-10.8-10.8
			c-2-0.8-3.9-0.9-6-0.4c-2,0.5-3.7,1.5-5.4,2.5c-1.6,1.1-3.1,2.1-4.6,3.1c-3.1,1.7-6.2,2.8-9.8,2.1c-0.3,0-0.7,0-1.1,0
			c-2,5-3.9,10-5.7,14.8c0.3,0.3,0.4,0.4,0.5,0.5c3.3,2,5.4,4.9,6.5,8.6c0.4,1.2,0.5,2.4,0.9,3.6c0.7,2,1.2,4.1,2.1,6
			c1.2,2.7,3.3,4.4,6.2,5.2c4.1,1.2,8.1,1.1,12-0.3C67.5,151.1,74.7,134.4,69,121.1z"/>
		<path id="technical_1_" fill="#FFFFFF" d="M246.7,265.1c0.3,1.3,0.5,2.7,0.9,4c-6.6,1.3-13.3,2.7-20.1,4.1c-0.3-1.5-0.5-2.7-0.8-4
			C233.4,267.8,240.1,266.5,246.7,265.1z M282.4,269.1c0,23.8-19.3,43.2-43.2,43.2S196,293,196,269.1s19.3-43.2,43.2-43.2
			S282.4,245.3,282.4,269.1z M267.9,263.6c-1.9,1.6-3.6,3.1-5.3,4.6c-1.7-0.7-3.5-1.2-5.2-1.7c-0.4-0.1-0.8-0.5-0.8-0.8
			c-0.4-1.9-0.8-3.7-1.2-5.6c2-1.7,3.9-3.5,6-5.3c-5.4-2.1-11.6,0.4-13.8,6c-0.4,0.8-0.8,1.2-1.7,1.5c-6.4,1.2-12.8,2.5-19.2,3.9
			c-1.2,0.3-2,0-2.9-0.8c-3.3-3.1-7.3-3.7-11.3-2c-4.1,1.7-6.2,5-6.5,9.4c0,0.5,0.1,0.9,0.1,1.7c1.7-1.6,3.2-2.8,4.6-4.1
			c0.5-0.5,1.1-0.7,1.7-0.4c1.5,0.5,2.8,0.9,4.2,1.5c0.5,0.1,0.8,0.5,0.9,1.1c0.3,1.5,0.5,2.9,0.9,4.4c0.1,0.7,0,1.2-0.7,1.7
			c-1.5,1.2-2.8,2.4-4.2,3.7c-0.3,0.3-0.5,0.5-0.9,0.9c0.4,0.1,0.7,0.3,0.9,0.4c5.2,1.5,10.5-1.1,12.6-6c0.4-0.8,0.8-1.2,1.7-1.3
			c3.6-0.7,7.2-1.5,10.6-2.1c3.6-0.7,7.2-1.5,10.7-2.1c5.2,5,10.7,4.1,14,1.9C266.9,271.4,269,266.9,267.9,263.6z"/>
	</g>
</g>
<g id="Layer_3">
	
		<image overflow="visible" opacity="0.5" width="351" height="341" xlink:href="7A1862893F7B3387.png"  transform="matrix(1 0 0 1 -10 -11)">
	</image>
	<g>
		<g>
			<g id="Layer_1_11_">
				<g>
					<path fill="#FFFFFF" d="M274.5,165.4h-84.2l55.9-18.2c-2.1-3.3-3.9-7-4.9-10.9l-53.6,17.6l53.6-38.3c0.7-2.4,1.5-4.6,2.5-6.9
						l-69.3,49.5h-0.1L237,73.9c7.3,5.6,13.8,12,19.6,19.2c3.5-2.5,7.4-4.5,11.5-5.8c-6.9-8.9-14.8-16.6-23.5-23.5l0,0l-0.5-0.4
						l0.1-0.1l-4-2.8L238,59l-3.6-2.5l-0.1,0.1c-8.6-5.4-17.8-9.8-27.5-12.9l0,0l-0.4-0.1c-0.7-0.3-1.2-0.4-1.9-0.5
						c0,0.5,0,1.1,0,1.6c0,3.9-0.5,7.7-1.6,11.2c8.6,2.9,16.6,6.8,24.2,11.3c2.3,1.5,4.5,2.9,6.8,4.5l-62.8,84.6v-0.4L202,58.8
						c-2,5.2-4.9,9.8-8.8,13.6L171,142.1V83.9c-2.1,0.4-4.4,0.5-6.6,0.5c-1.9,0-3.6-0.1-5.3-0.4v58l-21.9-68.2
						c-2.8-2.5-5.2-5.4-7.2-8.6l28.8,89.6L99.2,69.4c0.1-0.1,0.3-0.1,0.4-0.3c8.1-5.4,16.9-9.8,26.3-13c-1.1-3.7-1.7-7.7-1.7-11.6
						c0-0.4,0-0.8,0-1.2C112.6,47.1,101.9,52.4,92,59l-0.1-0.1l-3.3,2.4l-0.1,0.1l0,0l-1.1,0.8l-1.1,0.8L82.2,66l0.1,0.1
						C73.9,73,66.2,81.1,59.8,89.9l0,0l-1.5,2c0,0.1-0.1,0.1-0.1,0.3l-0.1,0.1c9.3,2.9,17.2,9.3,22.2,17.3l63.2,45.1L85.5,137
						c-0.7,4-1.9,7.8-3.7,11.3l55.9,17H65.9c-3.2,1.9-6.6,3.2-10.4,4.1h95.9l0.3,0.1L52,201.7c-0.3-1.1-0.7-2.1-0.9-3.2
						c-2.4-8.9-3.9-18.2-4.1-27.9c-0.4,0-0.7,0-1.1,0c-4.1,0-8.1-0.7-11.7-1.7v0.5l0,0c0.1,11.3,1.9,22.5,4.8,32.9h-0.1l1.1,3.2
						c0.5,1.7,1.1,3.3,1.6,5l1.1,3.2h0.1c3.9,10.1,8.8,19.4,14.8,28l0,0l1.5,2.1c5.7-7.3,13.7-12.5,23.1-14.6l65.3-46.7L111.9,234
						c3.5,2.1,6.5,4.8,9.3,7.8l33.8-49.2l-23.8,74.9c0,0.3,0,0.7,0,0.9c0,8.6-2.7,16.4-7.3,23l0,0c1.1,0.4,2.1,0.7,3.2,1.1l0.3,0.1
						l0,0c10.2,3.1,20.7,4.9,31.9,5.4v0.1h4h2.1h2.1h4v-0.1c12.2-0.5,24.2-2.8,35.3-6.5c-4.2-6.4-6.8-14-6.8-22.3c0-0.3,0-0.7,0-0.9
						l-25-77.9l37.1,50.1c2.9-2.8,6.1-5.2,9.7-7L185,184.2l64.6,46.1c8.8,2.1,16.2,7,21.7,13.7l0.7-0.8c0-0.1,0.1-0.1,0.1-0.3
						l0.9-1.2l0,0c6.5-9.3,11.7-19.4,15.6-30.3h0.1l0.9-3.2c0.5-1.7,1.1-3.5,1.6-5.2l0.9-3.1H292c2.5-9.8,3.9-19.9,4.1-30.4l0,0
						v-4.1l0,0c0-0.9,0-1.7-0.1-2.7c-4.8,2-10,3.1-15.3,3.1C278.4,166,276.4,165.7,274.5,165.4z M67.6,234.5
						c-5.3-7.7-9.7-15.8-12.9-24.6c-0.5-1.3-1.1-2.8-1.5-4.2l99.7-32.1L67.6,234.5z M70,97.2c5.8-7.8,12.4-14.8,19.8-20.9
						c1.9-1.6,3.9-3.1,5.8-4.5l60.5,86.8l-0.4-0.1L70,97.2z M162.9,285.7c-1.3,0-2.7,0-4-0.1c-9.7-0.5-19-2.1-28-4.8l31.8-99.4
						l0.1-0.3L162.9,285.7L162.9,285.7L162.9,285.7z M199.1,280.6c-9,2.8-18.5,4.4-28.2,4.9c-1.3,0-2.7,0.1-4,0.1V180.7L199.1,280.6
						z M276,207.9c-3.5,9.6-8.1,18.5-13.7,26.7l-85.4-60.9l99.7,32.1C276.5,206.4,276.2,207.1,276,207.9z M279.6,196.3
						c-0.4,1.9-0.9,3.6-1.5,5.4l-99.9-32.1h104.9C282.9,178.7,281.7,187.8,279.6,196.3z"/>
				</g>
			</g>
			<g>
				<path id="institutional_14_" fill="#FFFFFF" d="M164.2,1.4c-23.8,0-43.1,19.3-43.1,43.1s19.3,43.1,43.1,43.1
					c23.8,0,43.1-19.3,43.1-43.1S188,1.4,164.2,1.4z M143.9,40.2c1.6,1.9,3.1,3.7,4.6,5.4c0.3,0.3,0.4,0.7,0.1,1.1
					c-0.4,0.9-1.1,1.6-2.1,1.7c-0.4,0.1-0.7,0-0.9-0.3c-0.9-1.1-1.9-2.1-2.8-3.3c-2.3-2.7-4.5-5.4-6.8-8.1c-3.6-4.2-2-10.8,3.2-12.9
					c0.5-0.3,1.1-0.4,1.6-0.4c3.3,0,6.8,0,10.1,0c0.4,0,0.7,0.1,0.9,0.5c0.5,0.9,0.5,1.9,0,2.8c-0.1,0.3-0.4,0.4-0.8,0.4
					c-1.5,0-2.9,0-4.4,0c-0.1,0-0.3,0-0.5,0c0,0,0,0,0,0.1c0.1,0.1,0.3,0.1,0.4,0.3c4.4,2.5,8.8,5,13,7.6c0.7,0.4,0.7,0.5,0.7,1.3
					c-0.1,0.8-0.5,1.5-1.3,2c-0.4,0.3-0.7,0.3-1.1,0c-2.4-1.5-4.8-2.8-7.2-4.1c-0.1-0.1-0.4-0.1-0.5-0.3c-0.1,0.3-0.1,0.4-0.3,0.5
					c0.1,0.1,0.4,0.3,0.5,0.4c2.8,2,5.6,4,8.5,6c0.4,0.3,0.5,0.5,0.4,0.9c-0.1,1.1-0.7,1.9-1.6,2.3c-0.3,0.1-0.5,0.1-0.9-0.1
					c-1.9-1.3-3.7-2.7-5.6-4c-1.1-0.8-2.3-1.6-3.3-2.4c-0.1,0.1-0.3,0.3-0.5,0.4c0.1,0.1,0.3,0.3,0.4,0.4c1.9,1.7,3.9,3.3,5.7,5
					c0.3,0.3,0.4,0.5,0.3,0.9c-0.3,1.1-0.8,1.7-1.9,2.1c-0.3,0.1-0.5,0-0.9-0.1c-2.4-2.1-4.8-4.1-7-6.2c-0.3-0.1-0.4-0.4-0.8-0.1
					C143.6,40,143.8,40.1,143.9,40.2z M175.4,58c-1.2,3.2-2.4,6.4-3.5,9.6c-0.5,1.5-1.1,2.9-1.6,4.4c-1.2,3.5-4.5,5.6-8.1,5.4
					c-2-0.1-3.7-0.8-5.2-2.1c-0.1-0.1-0.4-0.4-0.5-0.7c-1.7-3.1-3.5-6-5.2-9c-0.1-0.3-0.1-0.5,0-0.9c0.5-0.9,1.5-1.5,2.5-1.5
					c0.3,0,0.5,0.1,0.7,0.4c0.7,1.3,1.5,2.5,2.3,3.9c0.1,0.1,0.1,0.3,0.4,0.4c0-0.1,0-0.4,0-0.5c0-5,0-10.2,0-15.2
					c0-0.5,0.1-0.8,0.5-0.9c0.9-0.5,1.9-0.4,2.7,0.1c0.3,0.1,0.4,0.4,0.4,0.8c0,2.8,0,5.4,0,8.2c0,0.3,0,0.4,0,0.7
					c0.3,0,0.4-0.1,0.7-0.1c0.1-0.9,0.1-1.9,0.3-2.8c0.3-2.4,0.4-4.6,0.7-7c0-0.4,0.1-0.8,0.1-1.3c0-0.3,0.1-0.4,0.3-0.5
					c0.9-0.7,2.4-0.5,3.2,0.3c0.1,0.1,0.3,0.4,0.1,0.7c-0.1,0.9-0.1,1.9-0.3,2.8c-0.1,1.9-0.3,3.7-0.5,5.6c0,0.7-0.1,1.3-0.1,2.1
					c0,0.1,0,0.4,0,0.7c0.3,0.1,0.4,0.1,0.7,0.3c0.1-0.5,0.1-0.9,0.3-1.3c0.4-2.3,0.9-4.5,1.3-6.6c0.1-0.4,0.3-0.5,0.5-0.7
					c0.9-0.4,2.1-0.1,2.8,0.5c0.3,0.3,0.3,0.4,0.3,0.8c-0.4,2-0.8,4.1-1.2,6.1c-0.3,1.1-0.4,2.3-0.7,3.3c0,0.3-0.1,0.4,0.3,0.7
					c0.1-0.1,0.1-0.4,0.3-0.5c0.8-2.3,1.7-4.5,2.5-6.8c0.1-0.4,0.4-0.5,0.8-0.7c1.1-0.1,1.9,0.1,2.5,1.1
					C175.6,57.4,175.6,57.7,175.4,58z M193.1,34.6c0,0.3-0.1,0.4-0.3,0.7c-1.7,3.1-3.5,6-5.2,9c-0.1,0.4-0.4,0.5-0.8,0.5
					c-1.1,0-1.9-0.5-2.4-1.5c-0.1-0.3-0.1-0.5,0-0.8c0.8-1.3,1.5-2.5,2.3-3.9c0.1-0.1,0.1-0.3,0.3-0.5c-0.3,0.1-0.5,0.3-0.7,0.4
					c-4.4,2.5-8.8,5-13,7.6c-0.4,0.3-0.8,0.3-1.2,0c-0.8-0.5-1.2-1.3-1.2-2.3c0-0.4,0.1-0.7,0.5-0.8c2.4-1.3,4.8-2.8,7.2-4.1
					c0.1-0.1,0.3-0.1,0.5-0.3c-0.1-0.1-0.3-0.3-0.4-0.5c-0.1,0.1-0.4,0.1-0.5,0.3c-3.2,1.5-6.2,2.9-9.4,4.4
					c-0.4,0.1-0.8,0.1-1.1-0.1c-0.8-0.7-1.2-1.5-1.1-2.5c0-0.3,0.1-0.5,0.5-0.7c2.5-1.2,5-2.4,7.6-3.5c0.8-0.4,1.6-0.8,2.4-1.1
					c0-0.3,0-0.4-0.1-0.7c-0.9,0.3-1.9,0.7-2.7,0.9c-1.7,0.5-3.5,1.2-5,1.7c-0.4,0.1-0.7,0-0.9-0.1c-0.8-0.7-1.1-1.6-0.9-2.7
					c0.1-0.4,0.3-0.5,0.7-0.7c2.9-0.9,6-2,8.9-3.1c0.3-0.1,0.7-0.1,0.5-0.5c-0.7,0.1-1.3,0.3-2,0.4c-2,0.4-3.9,0.7-5.8,1.1
					c-0.4,0-0.5,0-0.8-0.3c-0.7-0.8-0.9-1.9-0.5-2.9c0.1-0.3,0.3-0.4,0.7-0.5c1.6-0.3,3.2-0.5,4.8-0.8c3.3-0.5,6.6-1.2,10-1.7
					c3.2-0.5,5.8,0.5,7.8,3.2C193.1,29.8,193.7,32.2,193.1,34.6z"/>
				<path id="social_14_" fill="#FFFFFF" d="M90.6,225.3c-23.8,0-43.2,19.3-43.2,43.2c0,23.9,19.3,43.2,43.2,43.2
					c23.8,0,43.2-19.3,43.2-43.2S114.5,225.3,90.6,225.3z M71.7,284.9c-3.2,0-5.8-2.7-5.8-6c0-3.2,2.7-5.8,6-5.8
					c3.2,0,5.8,2.7,5.8,5.8C77.5,282.2,74.9,284.9,71.7,284.9z M101.7,282.3c-2.4,0-4.4-1.9-4.4-4.2c0-2.5,1.9-4.5,4.4-4.5
					c2.4,0,4.4,1.9,4.4,4.2C106.2,280.2,104.2,282.3,101.7,282.3z M117.8,260.9c-0.3,0.4-0.5,0.7-0.8,1.1c-1.7,2.3-3.6,4.5-5.3,6.8
					c-0.3,0.4-0.5,0.8-0.9,1.3c1.1-0.1,1.9-0.1,2.7-0.3c0.9,0,1.3,0.3,1.5,0.9c0,0.7-0.3,1.1-1.2,1.2c-2.1,0.3-4.2,0.5-6.4,0.9
					c-0.9,0.1-1.7,0-2.4-0.7c-0.9-0.9-1.9-1.1-3.1-0.9c-1.1,0.1-2.3,0.3-3.3,0.4c-0.4,0-0.7,0.4-1.1,0.5c-0.5,0.3-1.2,0.8-1.7,0.9
					c-4.4,0.7-8.9,1.2-13.2,1.7c-1.9,0.3-3.3-0.1-4.8-1.3c-0.7-0.7-1.3-1.2-2.1-1.7c-1.6-1.1-2.4-2.5-2.5-4.4
					c-0.4-4.4-0.9-8.8-1.3-13c0-0.5,0.1-1.3,0.4-1.9c0.4-0.8,1.5-0.9,2.3-0.8c0.9,0.3,1.3,0.9,1.5,1.9c0.3,1.9,0.4,3.7,0.7,5.6
					c0.1,0,0.3,0,0.3,0c0.3-0.5,0.7-1.1,0.9-1.6c3.1-6,6.1-11.9,9.3-17.8c1.1-2,2.7-2.4,4.5-1.1c0,0,0.1,0,0.1,0.1
					c4.9,3.9,9.7,7.7,14.5,11.5c0.4,0.3,0.8,0.7,1.1,1.2c0.8,1.2,0.4,2.4-0.8,3.6c-4.8,4.2-9.7,8.4-14.5,12.4
					c-0.8,0.7-1.5,1.3-2.1,2.3c1.7-0.1,3.6-0.4,5.3-0.5c0.8-0.1,1.5,0.1,2.1,0.4c1.5,0.5,2.9,0.3,4.1-0.7c0.5-0.4,1.1-1.1,1.5-1.7
					c2.7-3.3,5.2-6.6,7.8-10c0.3-0.3,0.4-0.7,0.7-0.9c0.7-0.8,1.3-0.8,2-0.4c0.7,0.5,0.8,1.2,0.1,2c-0.7,0.9-1.3,1.7-2.1,2.7
					c-0.3,0.4-0.5,0.7-0.8,1.1c-0.4,0.7-0.3,1.2,0.4,1.7c0.5,0.5,1.2,0.4,1.7-0.1c0.8-0.9,1.6-1.9,2.3-2.9c0.3-0.3,0.5-0.7,0.8-0.9
					c0.5-0.5,1.2-0.5,1.7,0C118.1,259.7,118.2,260.3,117.8,260.9z"/>
				<path id="environmental_14_" fill="#FFFFFF" d="M279.8,129.9c0.4,0.9,0.7,1.7,1.1,2.5c-0.4,0.7-0.8,1.3-1.3,2.1
					c-2.1-0.7-4.4-1.3-6.8-2.1C275.2,131.4,277.4,130.7,279.8,129.9z M274.6,118.1c-0.8,1.2-1.5,2.3-2.1,3.3
					c-0.7,1.1-1.5,2.1-1.9,3.6c2.4-1.1,4.6-2,6.6-3.2C276.4,120.5,275.6,119.4,274.6,118.1z M323.2,125.7
					c0,23.8-19.3,43.2-43.2,43.2s-43.2-19.3-43.2-43.2s19.3-43.2,43.2-43.2S323.2,101.9,323.2,125.7z M300.8,128
					c6.5-7.3,2.4-17.8-7.2-19c-0.1-3.6-1.5-6.4-4.6-7.8c-3.3-1.6-6.2-0.8-9,1.3c-3.5-3.3-6.8-4.1-10.1-2.5c-3.1,1.5-4.8,4.6-4.5,8
					c0.3,3.7,2.7,6,7.3,7.4c-0.1,0.1-0.1,0.4-0.3,0.5c-2.1,3.5-4.2,7-6.4,10.5c-0.4,0.7-0.9,0.9-1.6,1.2c-3.6,1.1-7.2,2.3-10.7,3.3
					c-1.9,0.5-2.5,1.9-1.5,3.5c0.9,1.3,1.5,2.7,1.7,4.2c0.4,1.7,1.9,2.3,3.5,1.3c3.2-1.7,6.4-3.3,9.4-4.9c0.8-0.4,1.6-0.5,2.5-0.1
					c1.9,0.7,3.9,1.2,5.8,1.9c1.1,0.4,2.3,0.7,3.3,1.1c0,0.7,0,1.1,0,1.6c-0.1,5.7,4.6,10.9,11.1,10.6c7.6-0.5,10.8-7.4,9.8-12
					c-0.1-0.9,0-1.6,0.7-2.3c1.6-2,2-4.2,1.1-6.6C301.1,128.5,301,128.2,300.8,128z"/>
				<path id="financial_14_" fill="#FFFFFF" d="M58.8,130.9c0.3,2.7-0.7,5-2.7,6.9c-1.2,1.1-2.7,1.5-4.2,1.5c-0.5,0-1.1-0.1-1.6-0.1
					c-0.4,0.8-0.8,1.7-2,1.3c-1.2-0.4-0.8-1.5-0.8-2.4c-0.4-0.1-0.8-0.3-1.2-0.5c-0.5,0.8-0.9,1.7-2.1,1.3c-0.8-0.4-0.9-0.8-0.7-2.4
					c-0.1-0.1-0.3-0.3-0.4-0.4c-4.2-2.5-3.7-8.1-0.8-10.9c1.2-1.2,2.7-1.7,4.4-1.6c1.3,0.1,2.1,0.8,2.1,1.7c0,1.1-0.7,1.7-1.9,2
					c-0.3,0-0.7,0-0.9,0.1c-1.3,0.3-2.3,1.1-2.5,2.4c-0.3,1.2,0.3,2.1,1.7,3.1c0.3-0.8,0.5-1.5,0.9-2.3c0.4-0.9,1.1-1.2,1.9-0.9
					c0.7,0.3,0.9,0.9,0.5,1.9c-0.3,0.8-0.5,1.5-0.9,2.4c0.4,0.3,0.8,0.4,1.2,0.7c0.1-0.1,0.3-0.3,0.4-0.4c0.3-0.8,0.5-1.5,0.9-2.3
					c0.4-0.8,0.9-1.1,1.7-0.8c0.7,0.3,1.1,0.8,0.8,1.7c-0.3,0.8-0.5,1.6-0.8,2.4c1.2,0.5,2.3,0.3,3.1-0.7c0.8-0.9,1.1-2.3,0.4-3.3
					c-0.3-0.5-0.7-0.9-1.1-1.3c-0.7-0.9-0.7-1.9,0-2.7c0.7-0.7,1.5-0.7,2.5-0.1C57.9,128,58.7,129.3,58.8,130.9z M89.3,130.7
					c0,23.8-19.3,43.2-43.2,43.2S3,154.7,3,130.7c0-23.8,19.3-43.2,43.2-43.2S89.3,106.9,89.3,130.7z M23.4,129.9
					c1.7-4.2,3.3-8.6,5-12.9c0.1-0.4,0.3-0.9,0.1-1.3c-0.5-3.1-1.2-6-1.7-8.9c-0.1-0.4-0.3-0.7-0.4-0.9c-0.1,0-0.3,0-0.5,0
					c-0.1,0.4-0.4,0.8-0.4,1.2c-0.4,2.1-0.8,4.2-1.2,6.4c-0.9,4.5-2.3,8.8-4.6,12.6c-1.9,3.1-3.5,6.1-5,9.3
					c-0.3,0.5-0.8,1.1-0.3,1.9c0.4-0.1,0.8-0.4,1.2-0.7c2.3-1.7,4.6-3.5,6.9-5.2C22.9,131,23.3,130.5,23.4,129.9z M68.8,120.6
					c-2.3-5-5.7-8.8-10.8-10.8c-2-0.8-3.9-0.9-6-0.4c-2,0.5-3.7,1.5-5.4,2.5c-1.6,1.1-3.1,2.1-4.6,3.1c-3.1,1.7-6.2,2.8-9.8,2.1
					c-0.3,0-0.7,0-1.1,0c-2,5-3.9,10-5.7,14.8c0.3,0.3,0.4,0.4,0.5,0.5c3.3,2,5.4,4.9,6.5,8.6c0.4,1.2,0.5,2.4,0.9,3.6
					c0.7,2,1.2,4.1,2.1,6c1.2,2.7,3.3,4.4,6.2,5.2c4.1,1.2,8.1,1.1,12-0.3C67.3,150.6,74.6,133.9,68.8,120.6z"/>
				<path id="technical_14_" fill="#FFFFFF" d="M246.6,264.6c0.3,1.3,0.5,2.7,0.9,4c-6.6,1.3-13.3,2.7-20.1,4.1
					c-0.3-1.5-0.5-2.7-0.8-4C233.2,267.3,239.9,266,246.6,264.6z M282.2,268.6c0,23.8-19.3,43.2-43.2,43.2s-43.2-19.3-43.2-43.2
					s19.3-43.2,43.2-43.2S282.2,244.8,282.2,268.6z M267.8,263.1c-1.9,1.6-3.6,3.1-5.3,4.6c-1.7-0.7-3.5-1.2-5.2-1.7
					c-0.4-0.1-0.8-0.5-0.8-0.8c-0.4-1.9-0.8-3.7-1.2-5.6c2-1.7,3.9-3.5,6-5.3c-5.4-2.1-11.6,0.4-13.8,6c-0.4,0.8-0.8,1.2-1.7,1.5
					c-6.4,1.2-12.8,2.5-19.2,3.9c-1.2,0.3-2,0-2.9-0.8c-3.3-3.1-7.3-3.7-11.3-2s-6.2,5-6.5,9.4c0,0.5,0.1,0.9,0.1,1.7
					c1.7-1.6,3.2-2.8,4.6-4.1c0.5-0.5,1.1-0.7,1.7-0.4c1.5,0.5,2.8,0.9,4.2,1.5c0.5,0.1,0.8,0.5,0.9,1.1c0.3,1.5,0.5,2.9,0.9,4.4
					c0.1,0.7,0,1.2-0.7,1.7c-1.5,1.2-2.8,2.4-4.2,3.7c-0.3,0.3-0.5,0.5-0.9,0.9c0.4,0.1,0.7,0.3,0.9,0.4c5.2,1.5,10.5-1.1,12.6-6
					c0.4-0.8,0.8-1.2,1.7-1.3c3.6-0.7,7.2-1.5,10.6-2.1c3.6-0.7,7.2-1.5,10.7-2.1c5.2,5,10.7,4.1,14,1.9
					C266.8,270.9,268.9,266.4,267.8,263.1z"/>
			</g>
		</g>
	</g>
</g>
</svg>
